%
M48
M72
T01C0.0236
T02C0.0276
T03C0.0320
T04C0.0354
T05C0.0400
T06C0.0440
T07C0.0512
T08C0.1300
%
T01
X6180Y15180
T02
X2180Y5180
X1180Y5180
T03
X1680Y930
X1680Y1930
X4055Y1930
X4055Y930
X4180Y4680
X5180Y4680
X6180Y4680
X7180Y4680
X8180Y4680
X9180Y4680
X10180Y4680
X11180Y4680
X11180Y6680
X10180Y6680
X9180Y6680
X8180Y6680
X7180Y6680
X6180Y6680
X5180Y6680
X4180Y6680
X4180Y9680
X5180Y9680
X5180Y11180
X4180Y11180
X4180Y12680
X5180Y12680
X6180Y12680
X7180Y12680
X7180Y11180
X6180Y11180
X6180Y9680
X7180Y9680
X8180Y9680
X9180Y9680
X9180Y11180
X8180Y11180
X8180Y12680
X9180Y12680
X10180Y12680
X11180Y12680
X11180Y11180
X10180Y11180
X10180Y9680
X11180Y9680
X8680Y16180
X8680Y17180
X6680Y17180
X6680Y16180
X11180Y1930
X11180Y930
X13680Y930
X13680Y1930
T04
X9680Y19680
X5680Y19680
T05
X3680Y20180
X2680Y20180
X1680Y20180
X1680Y14680
X2680Y14680
X3680Y14680
X11680Y14680
X12680Y14680
X13680Y14680
X13680Y20180
X12680Y20180
X11680Y20180
X8680Y680
X7680Y680
X6680Y680
T06
X4680Y16680
X4680Y18180
X680Y18180
X680Y16680
X10680Y16680
X10680Y18180
X14680Y18180
X14680Y16680
T07
X13555Y11180
X13555Y9211
X8649Y23180
X6680Y23180
X1805Y11149
X1805Y9180
T08
X1680Y23680
X13680Y23680
M30
