G75*
%MOIN*%
%OFA0B0*%
%FSLAX24Y24*%
%IPPOS*%
%LPD*%
%AMOC8*
5,1,8,0,0,1.08239X$1,22.5*
%
%ADD10C,0.0080*%
D10*
X004296Y003580D02*
X004226Y003650D01*
X004226Y004000D01*
X004436Y004000D01*
X004506Y003930D01*
X004506Y003790D01*
X004436Y003720D01*
X004226Y003720D01*
X004046Y003790D02*
X004046Y003930D01*
X003976Y004000D01*
X003836Y004000D01*
X003766Y003930D01*
X003766Y003860D01*
X004046Y003860D01*
X004046Y003790D02*
X003976Y003720D01*
X003836Y003720D01*
X004296Y003580D02*
X004366Y003580D01*
X004757Y003720D02*
X004897Y003720D01*
X004967Y003790D01*
X004967Y003930D01*
X004897Y004000D01*
X004757Y004000D01*
X004687Y003930D01*
X004687Y003860D01*
X004967Y003860D01*
X005134Y003720D02*
X005274Y003720D01*
X005204Y003720D02*
X005204Y004140D01*
X005274Y004140D01*
X005511Y004140D02*
X005511Y003720D01*
X005581Y003720D02*
X005441Y003720D01*
X005761Y003790D02*
X005761Y003930D01*
X005831Y004000D01*
X005971Y004000D01*
X006041Y003930D01*
X006041Y003790D01*
X005971Y003720D01*
X005831Y003720D01*
X005761Y003790D01*
X005581Y004140D02*
X005511Y004140D01*
X006221Y004070D02*
X006291Y004140D01*
X006431Y004140D01*
X006501Y004070D01*
X006501Y003790D01*
X006431Y003720D01*
X006291Y003720D01*
X006221Y003790D01*
X007142Y003720D02*
X007352Y003720D01*
X007422Y003790D01*
X007422Y004000D01*
X007589Y004000D02*
X007729Y004000D01*
X007659Y004070D02*
X007659Y003790D01*
X007589Y003720D01*
X007896Y003720D02*
X008036Y003720D01*
X007966Y003720D02*
X007966Y004000D01*
X008036Y004000D01*
X007966Y004140D02*
X007966Y004210D01*
X008216Y004070D02*
X008286Y004140D01*
X008426Y004140D01*
X008496Y004070D01*
X008496Y003790D01*
X008426Y003720D01*
X008286Y003720D01*
X008216Y003790D01*
X009137Y003720D02*
X009347Y003720D01*
X009417Y003790D01*
X009347Y003860D01*
X009137Y003860D01*
X009137Y003930D02*
X009137Y003720D01*
X009137Y003930D02*
X009207Y004000D01*
X009347Y004000D01*
X009597Y003930D02*
X009597Y003720D01*
X009597Y003930D02*
X009667Y004000D01*
X009878Y004000D01*
X009878Y003720D01*
X010058Y003860D02*
X010338Y003860D01*
X010338Y003790D02*
X010338Y003930D01*
X010268Y004000D01*
X010128Y004000D01*
X010058Y003930D01*
X010058Y003860D01*
X010128Y003720D02*
X010268Y003720D01*
X010338Y003790D01*
X010518Y003720D02*
X010728Y003720D01*
X010798Y003790D01*
X010798Y003930D01*
X010728Y004000D01*
X010518Y004000D01*
X010518Y004140D02*
X010518Y003720D01*
X010979Y003720D02*
X011189Y003720D01*
X011259Y003790D01*
X011189Y003860D01*
X010979Y003860D01*
X010979Y003930D02*
X010979Y003720D01*
X010979Y003930D02*
X011049Y004000D01*
X011189Y004000D01*
X011439Y004000D02*
X011649Y004000D01*
X011719Y003930D01*
X011649Y003860D01*
X011509Y003860D01*
X011439Y003790D01*
X011509Y003720D01*
X011719Y003720D01*
X011899Y003720D02*
X011899Y003930D01*
X011969Y004000D01*
X012110Y004000D01*
X012110Y003860D02*
X011899Y003860D01*
X011899Y003720D02*
X012110Y003720D01*
X012180Y003790D01*
X012110Y003860D01*
X012360Y003930D02*
X012360Y004070D01*
X012430Y004140D01*
X012640Y004140D01*
X012640Y003720D01*
X012640Y003860D02*
X012430Y003860D01*
X012360Y003930D01*
X015345Y004457D02*
X015555Y004667D01*
X015555Y004387D01*
X015765Y004457D02*
X015345Y004457D01*
X015765Y004847D02*
X015765Y005128D01*
X015765Y004988D02*
X015345Y004988D01*
X015485Y005128D01*
X015555Y005308D02*
X015555Y005588D01*
X015625Y005768D02*
X015695Y005768D01*
X015765Y005838D01*
X015765Y005978D01*
X015695Y006048D01*
X015555Y005908D02*
X015555Y005838D01*
X015625Y005768D01*
X015555Y005838D02*
X015485Y005768D01*
X015415Y005768D01*
X015345Y005838D01*
X015345Y005978D01*
X015415Y006048D01*
X015415Y006229D02*
X015345Y006299D01*
X015345Y006439D01*
X015415Y006509D01*
X015555Y006689D02*
X015555Y006969D01*
X015415Y007149D02*
X015695Y007430D01*
X015765Y007430D01*
X015695Y007610D02*
X015765Y007680D01*
X015765Y007820D01*
X015695Y007890D01*
X015415Y007610D01*
X015695Y007610D01*
X015415Y007610D02*
X015345Y007680D01*
X015345Y007820D01*
X015415Y007890D01*
X015695Y007890D01*
X015345Y007430D02*
X015345Y007149D01*
X015415Y007149D01*
X015765Y006509D02*
X015485Y006229D01*
X015415Y006229D01*
X015765Y006229D02*
X015765Y006509D01*
X008555Y000820D02*
X008485Y000890D01*
X008344Y000890D01*
X008274Y000820D01*
X008555Y000540D01*
X008485Y000470D01*
X008344Y000470D01*
X008274Y000540D01*
X008274Y000820D01*
X008094Y000820D02*
X008024Y000890D01*
X007884Y000890D01*
X007814Y000820D01*
X008094Y000540D01*
X008024Y000470D01*
X007884Y000470D01*
X007814Y000540D01*
X007814Y000820D01*
X007634Y000750D02*
X007494Y000890D01*
X007494Y000470D01*
X007634Y000470D02*
X007354Y000470D01*
X008094Y000540D02*
X008094Y000820D01*
X008555Y000820D02*
X008555Y000540D01*
X008735Y000750D02*
X008875Y000470D01*
X009015Y000750D01*
X007282Y003580D02*
X007212Y003580D01*
X007142Y003650D01*
X007142Y004000D01*
M02*
