G75*
%MOIN*%
%OFA0B0*%
%FSLAX24Y24*%
%IPPOS*%
%LPD*%
%AMOC8*
5,1,8,0,0,1.08239X$1,22.5*
%
%ADD10C,0.0640*%
%ADD11C,0.0650*%
%ADD12R,0.0650X0.0650*%
%ADD13C,0.0740*%
%ADD14R,0.0800X0.0800*%
%ADD15C,0.0800*%
%ADD16C,0.1000*%
%ADD17C,0.0160*%
%ADD18C,0.0400*%
D10*
X004680Y004860D02*
X004680Y005500D01*
X005680Y005500D02*
X005680Y004860D01*
X006680Y004860D02*
X006680Y005500D01*
X009680Y005500D02*
X009680Y004860D01*
X010680Y004860D02*
X010680Y005500D01*
X011680Y005500D02*
X011680Y004860D01*
D11*
X005930Y006446D03*
X004930Y007430D03*
X005930Y008414D03*
X012430Y010680D03*
D12*
X012430Y009680D03*
X003930Y007430D03*
D13*
X006680Y007430D03*
X007680Y007430D03*
X008680Y007430D03*
X006930Y008930D03*
X006930Y010180D03*
X006930Y011430D03*
X010930Y011430D03*
X010930Y010180D03*
X010930Y008930D03*
X012680Y007430D03*
D14*
X014680Y006930D03*
X003930Y010680D03*
X001680Y005430D03*
D15*
X001680Y006808D03*
X005308Y010680D03*
X014680Y005552D03*
D16*
X012280Y002430D02*
X012280Y001430D01*
X010280Y001430D02*
X010280Y002430D01*
X006080Y002430D02*
X006080Y001430D01*
X004080Y001430D02*
X004080Y002430D01*
D17*
X000826Y000656D02*
X015534Y000656D01*
X015496Y000617D02*
X015193Y000442D01*
X014855Y000351D01*
X014680Y000340D01*
X001680Y000340D01*
X001505Y000351D01*
X001167Y000442D01*
X000864Y000617D01*
X000617Y000864D01*
X000442Y001167D01*
X000351Y001505D01*
X000340Y001680D01*
X000340Y010680D01*
X000351Y010855D01*
X000442Y011193D01*
X000617Y011496D01*
X000864Y011743D01*
X001167Y011918D01*
X001505Y012009D01*
X001680Y012020D01*
X014680Y012020D01*
X014855Y012009D01*
X015193Y011918D01*
X015496Y011743D01*
X015743Y011496D01*
X015918Y011193D01*
X016009Y010855D01*
X016020Y010680D01*
X016020Y001680D01*
X016009Y001505D01*
X015918Y001167D01*
X015743Y000864D01*
X015496Y000617D01*
X015288Y000497D02*
X001072Y000497D01*
X001167Y000442D02*
X001167Y000442D01*
X001199Y000959D02*
X001511Y000830D01*
X001630Y000830D01*
X001849Y000830D01*
X002161Y000959D01*
X002161Y000959D01*
X002401Y001199D01*
X002530Y001511D01*
X002530Y001849D01*
X002401Y002161D01*
X002401Y002161D01*
X002161Y002401D01*
X001849Y002530D01*
X001511Y002530D01*
X001199Y002401D01*
X001199Y002401D01*
X000959Y002161D01*
X000830Y001849D01*
X000830Y001511D01*
X000959Y001199D01*
X001199Y000959D01*
X001199Y000959D01*
X001199Y000959D01*
X001185Y000973D02*
X000554Y000973D01*
X000667Y000814D02*
X003842Y000814D01*
X003949Y000770D02*
X003706Y000870D01*
X003520Y001056D01*
X003420Y001299D01*
X003420Y002561D01*
X003520Y002804D01*
X003706Y002990D01*
X003949Y003090D01*
X004211Y003090D01*
X004454Y002990D01*
X004542Y002901D01*
X005626Y003985D01*
X005758Y004040D01*
X010031Y004040D01*
X010320Y004329D01*
X010320Y004541D01*
X010273Y004588D01*
X010200Y004765D01*
X010200Y005595D01*
X010273Y005772D01*
X010408Y005907D01*
X010585Y005980D01*
X010775Y005980D01*
X010952Y005907D01*
X011087Y005772D01*
X011160Y005595D01*
X011160Y004765D01*
X011087Y004588D01*
X011040Y004541D01*
X011040Y004108D01*
X010985Y003976D01*
X010485Y003476D01*
X010384Y003375D01*
X010252Y003320D01*
X005979Y003320D01*
X004740Y002081D01*
X004740Y001299D01*
X004640Y001056D01*
X004454Y000870D01*
X004211Y000770D01*
X003949Y000770D01*
X004318Y000814D02*
X005842Y000814D01*
X005949Y000770D02*
X005706Y000870D01*
X005520Y001056D01*
X005420Y001299D01*
X005420Y002561D01*
X005520Y002804D01*
X005706Y002990D01*
X005949Y003090D01*
X006211Y003090D01*
X006454Y002990D01*
X006640Y002804D01*
X006740Y002561D01*
X006740Y001299D01*
X006640Y001056D01*
X006454Y000870D01*
X006211Y000770D01*
X005949Y000770D01*
X006318Y000814D02*
X010042Y000814D01*
X010149Y000770D02*
X009906Y000870D01*
X009720Y001056D01*
X009620Y001299D01*
X009620Y002561D01*
X009720Y002804D01*
X009906Y002990D01*
X010149Y003090D01*
X010411Y003090D01*
X010654Y002990D01*
X010840Y002804D01*
X010940Y002561D01*
X010940Y001299D01*
X010840Y001056D01*
X010654Y000870D01*
X010411Y000770D01*
X010149Y000770D01*
X010518Y000814D02*
X012042Y000814D01*
X012149Y000770D02*
X011906Y000870D01*
X011720Y001056D01*
X011620Y001299D01*
X011620Y002561D01*
X011720Y002804D01*
X011906Y002990D01*
X012149Y003090D01*
X012411Y003090D01*
X012654Y002990D01*
X012840Y002804D01*
X012940Y002561D01*
X012940Y001299D01*
X012840Y001056D01*
X012654Y000870D01*
X012411Y000770D01*
X012149Y000770D01*
X012518Y000814D02*
X015693Y000814D01*
X015806Y000973D02*
X015175Y000973D01*
X015161Y000959D02*
X015401Y001199D01*
X015530Y001511D01*
X015530Y001849D01*
X015401Y002161D01*
X015401Y002161D01*
X015161Y002401D01*
X014849Y002530D01*
X014511Y002530D01*
X014199Y002401D01*
X014199Y002401D01*
X013959Y002161D01*
X013830Y001849D01*
X013830Y001511D01*
X013959Y001199D01*
X014199Y000959D01*
X014511Y000830D01*
X014730Y000830D01*
X014849Y000830D01*
X014849Y000830D01*
X015161Y000959D01*
X015161Y000959D01*
X015333Y001131D02*
X015897Y001131D01*
X015951Y001290D02*
X015438Y001290D01*
X015401Y001199D02*
X015401Y001199D01*
X015504Y001448D02*
X015993Y001448D01*
X016015Y001607D02*
X015530Y001607D01*
X015530Y001765D02*
X016020Y001765D01*
X016020Y001924D02*
X015499Y001924D01*
X015434Y002082D02*
X016020Y002082D01*
X016020Y002241D02*
X015322Y002241D01*
X015163Y002399D02*
X016020Y002399D01*
X016020Y002558D02*
X012940Y002558D01*
X012940Y002399D02*
X014197Y002399D01*
X014038Y002241D02*
X012940Y002241D01*
X012940Y002082D02*
X013926Y002082D01*
X013959Y002161D02*
X013959Y002161D01*
X013861Y001924D02*
X012940Y001924D01*
X012940Y001765D02*
X013830Y001765D01*
X013830Y001607D02*
X012940Y001607D01*
X012940Y001448D02*
X013856Y001448D01*
X013922Y001290D02*
X012936Y001290D01*
X012871Y001131D02*
X014027Y001131D01*
X013959Y001199D02*
X013959Y001199D01*
X014185Y000973D02*
X012756Y000973D01*
X011804Y000973D02*
X010756Y000973D01*
X010871Y001131D02*
X011689Y001131D01*
X011624Y001290D02*
X010936Y001290D01*
X010940Y001448D02*
X011620Y001448D01*
X011620Y001607D02*
X010940Y001607D01*
X010940Y001765D02*
X011620Y001765D01*
X011620Y001924D02*
X010940Y001924D01*
X010940Y002082D02*
X011620Y002082D01*
X011620Y002241D02*
X010940Y002241D01*
X010940Y002399D02*
X011620Y002399D01*
X011620Y002558D02*
X010940Y002558D01*
X010876Y002716D02*
X011684Y002716D01*
X011791Y002875D02*
X010769Y002875D01*
X010549Y003033D02*
X012011Y003033D01*
X012549Y003033D02*
X016020Y003033D01*
X016020Y002875D02*
X012769Y002875D01*
X012876Y002716D02*
X016020Y002716D01*
X016020Y003192D02*
X005851Y003192D01*
X005811Y003033D02*
X005692Y003033D01*
X005591Y002875D02*
X005534Y002875D01*
X005484Y002716D02*
X005375Y002716D01*
X005420Y002558D02*
X005217Y002558D01*
X005058Y002399D02*
X005420Y002399D01*
X005420Y002241D02*
X004900Y002241D01*
X004741Y002082D02*
X005420Y002082D01*
X005420Y001924D02*
X004740Y001924D01*
X004740Y001765D02*
X005420Y001765D01*
X005420Y001607D02*
X004740Y001607D01*
X004740Y001448D02*
X005420Y001448D01*
X005424Y001290D02*
X004736Y001290D01*
X004671Y001131D02*
X005489Y001131D01*
X005604Y000973D02*
X004556Y000973D01*
X003604Y000973D02*
X002175Y000973D01*
X002333Y001131D02*
X003489Y001131D01*
X003424Y001290D02*
X002438Y001290D01*
X002401Y001199D02*
X002401Y001199D01*
X002504Y001448D02*
X003420Y001448D01*
X003420Y001607D02*
X002530Y001607D01*
X002530Y001765D02*
X003420Y001765D01*
X003420Y001924D02*
X002499Y001924D01*
X002434Y002082D02*
X003420Y002082D01*
X003420Y002241D02*
X002322Y002241D01*
X002163Y002399D02*
X003420Y002399D01*
X003420Y002558D02*
X000340Y002558D01*
X000340Y002716D02*
X003484Y002716D01*
X003591Y002875D02*
X000340Y002875D01*
X000340Y003033D02*
X003811Y003033D01*
X004349Y003033D02*
X004674Y003033D01*
X004832Y003192D02*
X000340Y003192D01*
X000340Y003350D02*
X004991Y003350D01*
X005149Y003509D02*
X000340Y003509D01*
X000340Y003667D02*
X005308Y003667D01*
X005466Y003826D02*
X000340Y003826D01*
X000340Y003984D02*
X005625Y003984D01*
X005585Y004380D02*
X005775Y004380D01*
X005952Y004453D01*
X006087Y004588D01*
X006160Y004765D01*
X006160Y005595D01*
X006087Y005772D01*
X005952Y005907D01*
X005858Y005946D01*
X005890Y005941D01*
X005930Y005941D01*
X005970Y005941D01*
X006048Y005953D01*
X006124Y005978D01*
X006195Y006014D01*
X006259Y006061D01*
X006315Y006117D01*
X006362Y006181D01*
X006398Y006252D01*
X006423Y006327D01*
X006435Y006406D01*
X006435Y006446D01*
X006435Y006485D01*
X006423Y006564D01*
X006398Y006640D01*
X006362Y006710D01*
X006315Y006775D01*
X006259Y006831D01*
X006195Y006878D01*
X006124Y006914D01*
X006048Y006938D01*
X005970Y006951D01*
X005930Y006951D01*
X005890Y006951D01*
X005812Y006938D01*
X005736Y006914D01*
X005665Y006878D01*
X005601Y006831D01*
X005545Y006775D01*
X005498Y006710D01*
X005462Y006640D01*
X005437Y006564D01*
X005425Y006485D01*
X005425Y006446D01*
X005930Y006446D01*
X005930Y006951D01*
X005930Y006446D01*
X005930Y006446D01*
X006435Y006446D01*
X005930Y006446D01*
X005930Y006446D01*
X005930Y006446D01*
X005425Y006446D01*
X005425Y006406D01*
X005437Y006327D01*
X005462Y006252D01*
X005498Y006181D01*
X005545Y006117D01*
X005601Y006061D01*
X005665Y006014D01*
X005732Y005980D01*
X005585Y005980D01*
X005408Y005907D01*
X005273Y005772D01*
X005200Y005595D01*
X005200Y004765D01*
X005273Y004588D01*
X005408Y004453D01*
X005585Y004380D01*
X005402Y004460D02*
X004958Y004460D01*
X004952Y004453D02*
X005087Y004588D01*
X005160Y004765D01*
X005160Y005595D01*
X005087Y005772D01*
X004952Y005907D01*
X004775Y005980D01*
X004585Y005980D01*
X004408Y005907D01*
X004273Y005772D01*
X004200Y005595D01*
X004200Y004765D01*
X004273Y004588D01*
X004408Y004453D01*
X004585Y004380D01*
X004775Y004380D01*
X004952Y004453D01*
X005099Y004618D02*
X005261Y004618D01*
X005200Y004777D02*
X005160Y004777D01*
X005160Y004935D02*
X005200Y004935D01*
X005200Y005094D02*
X005160Y005094D01*
X005160Y005252D02*
X005200Y005252D01*
X005200Y005411D02*
X005160Y005411D01*
X005160Y005569D02*
X005200Y005569D01*
X005255Y005728D02*
X005105Y005728D01*
X004973Y005886D02*
X005387Y005886D01*
X005623Y006045D02*
X000340Y006045D01*
X000340Y005886D02*
X001109Y005886D01*
X001112Y005899D02*
X001100Y005854D01*
X001100Y005468D01*
X001642Y005468D01*
X001642Y006010D01*
X001256Y006010D01*
X001211Y005998D01*
X001169Y005974D01*
X001136Y005941D01*
X001112Y005899D01*
X001100Y005728D02*
X000340Y005728D01*
X000340Y005569D02*
X001100Y005569D01*
X001100Y005392D02*
X001100Y005006D01*
X001112Y004961D01*
X001136Y004919D01*
X001169Y004886D01*
X001211Y004862D01*
X001256Y004850D01*
X001642Y004850D01*
X001642Y005392D01*
X001718Y005392D01*
X001718Y005468D01*
X001642Y005468D01*
X001642Y005392D01*
X001100Y005392D01*
X001100Y005252D02*
X000340Y005252D01*
X000340Y005094D02*
X001100Y005094D01*
X001127Y004935D02*
X000340Y004935D01*
X000340Y004777D02*
X004200Y004777D01*
X004200Y004935D02*
X002233Y004935D01*
X002224Y004919D02*
X002248Y004961D01*
X002260Y005006D01*
X002260Y005392D01*
X001718Y005392D01*
X001718Y004850D01*
X002104Y004850D01*
X002149Y004862D01*
X002191Y004886D01*
X002224Y004919D01*
X002260Y005094D02*
X004200Y005094D01*
X004200Y005252D02*
X002260Y005252D01*
X002260Y005468D02*
X002260Y005854D01*
X002248Y005899D01*
X002224Y005941D01*
X002191Y005974D01*
X002149Y005998D01*
X002104Y006010D01*
X001718Y006010D01*
X001718Y005468D01*
X002260Y005468D01*
X002260Y005569D02*
X004200Y005569D01*
X004255Y005728D02*
X002260Y005728D01*
X002251Y005886D02*
X004387Y005886D01*
X004200Y005411D02*
X001718Y005411D01*
X001642Y005411D02*
X000340Y005411D01*
X000340Y004618D02*
X004261Y004618D01*
X004402Y004460D02*
X000340Y004460D01*
X000340Y004301D02*
X010292Y004301D01*
X010133Y004143D02*
X000340Y004143D01*
X001642Y004935D02*
X001718Y004935D01*
X001718Y005094D02*
X001642Y005094D01*
X001642Y005252D02*
X001718Y005252D01*
X001718Y005569D02*
X001642Y005569D01*
X001642Y005728D02*
X001718Y005728D01*
X001718Y005886D02*
X001642Y005886D01*
X001569Y006248D02*
X001791Y006248D01*
X001997Y006333D01*
X002155Y006491D01*
X002240Y006697D01*
X002240Y006919D01*
X002155Y007125D01*
X001997Y007283D01*
X001791Y007368D01*
X001569Y007368D01*
X001363Y007283D01*
X001205Y007125D01*
X001120Y006919D01*
X001120Y006697D01*
X001205Y006491D01*
X001363Y006333D01*
X001569Y006248D01*
X001334Y006362D02*
X000340Y006362D01*
X000340Y006520D02*
X001193Y006520D01*
X001127Y006679D02*
X000340Y006679D01*
X000340Y006837D02*
X001120Y006837D01*
X001152Y006996D02*
X000340Y006996D01*
X000340Y007154D02*
X001234Y007154D01*
X001435Y007313D02*
X000340Y007313D01*
X000340Y007471D02*
X003445Y007471D01*
X003445Y007313D02*
X001925Y007313D01*
X002126Y007154D02*
X003445Y007154D01*
X003445Y007039D02*
X003539Y006945D01*
X004321Y006945D01*
X004415Y007039D01*
X004415Y007821D01*
X004321Y007915D01*
X003539Y007915D01*
X003445Y007821D01*
X003445Y007039D01*
X003488Y006996D02*
X002208Y006996D01*
X002240Y006837D02*
X005609Y006837D01*
X005482Y006679D02*
X002233Y006679D01*
X002167Y006520D02*
X005430Y006520D01*
X005432Y006362D02*
X002026Y006362D01*
X000340Y006203D02*
X005487Y006203D01*
X005930Y006203D02*
X005930Y006203D01*
X005930Y006362D02*
X005930Y006362D01*
X005930Y006446D02*
X005930Y005941D01*
X005930Y006446D01*
X005930Y006446D01*
X005930Y006520D02*
X005930Y006520D01*
X005930Y006679D02*
X005930Y006679D01*
X005930Y006837D02*
X005930Y006837D01*
X006251Y006837D02*
X014120Y006837D01*
X014120Y006679D02*
X006378Y006679D01*
X006469Y006920D02*
X006551Y006894D01*
X006637Y006880D01*
X006680Y006880D01*
X006723Y006880D01*
X006809Y006894D01*
X006891Y006920D01*
X006968Y006960D01*
X007038Y007010D01*
X007100Y007072D01*
X007150Y007142D01*
X007190Y007219D01*
X007191Y007224D01*
X007231Y007130D01*
X007380Y006981D01*
X007575Y006900D01*
X007785Y006900D01*
X007980Y006981D01*
X008129Y007130D01*
X008180Y007252D01*
X008231Y007130D01*
X008380Y006981D01*
X008575Y006900D01*
X008785Y006900D01*
X008980Y006981D01*
X009129Y007130D01*
X009210Y007325D01*
X009210Y007535D01*
X009129Y007730D01*
X008980Y007879D01*
X008785Y007960D01*
X008575Y007960D01*
X008380Y007879D01*
X008231Y007730D01*
X008180Y007608D01*
X008129Y007730D01*
X007980Y007879D01*
X007785Y007960D01*
X007575Y007960D01*
X007380Y007879D01*
X007231Y007730D01*
X007191Y007636D01*
X007190Y007641D01*
X007150Y007718D01*
X007100Y007788D01*
X007288Y007788D01*
X007100Y007788D02*
X007038Y007850D01*
X006968Y007900D01*
X006891Y007940D01*
X006809Y007966D01*
X006723Y007980D01*
X006680Y007980D01*
X006680Y007430D01*
X006680Y007430D01*
X006680Y007980D01*
X006637Y007980D01*
X006551Y007966D01*
X006469Y007940D01*
X006392Y007900D01*
X006322Y007850D01*
X006260Y007788D01*
X005286Y007788D01*
X005259Y007815D02*
X005195Y007862D01*
X005124Y007898D01*
X005048Y007923D01*
X004970Y007935D01*
X004930Y007935D01*
X004930Y007430D01*
X005435Y007430D01*
X005435Y007470D01*
X005423Y007548D01*
X005398Y007624D01*
X005362Y007695D01*
X005315Y007759D01*
X005259Y007815D01*
X005395Y007630D02*
X006167Y007630D01*
X006170Y007641D02*
X006144Y007559D01*
X006130Y007473D01*
X006130Y007430D01*
X006680Y007430D01*
X006680Y006880D01*
X006680Y007430D01*
X006680Y007430D01*
X006680Y007430D01*
X006130Y007430D01*
X006130Y007387D01*
X006144Y007301D01*
X006170Y007219D01*
X006210Y007142D01*
X006260Y007072D01*
X006322Y007010D01*
X006392Y006960D01*
X006469Y006920D01*
X006342Y006996D02*
X005190Y006996D01*
X005195Y006998D02*
X005259Y007045D01*
X005315Y007101D01*
X005362Y007165D01*
X005398Y007236D01*
X005423Y007312D01*
X005435Y007390D01*
X005435Y007430D01*
X004930Y007430D01*
X004930Y007430D01*
X004930Y007430D01*
X004930Y006925D01*
X004970Y006925D01*
X005048Y006937D01*
X005124Y006962D01*
X005195Y006998D01*
X005354Y007154D02*
X006203Y007154D01*
X006142Y007313D02*
X005423Y007313D01*
X005435Y007471D02*
X006130Y007471D01*
X006170Y007641D02*
X006210Y007718D01*
X006260Y007788D01*
X006205Y008003D02*
X006341Y008140D01*
X006415Y008318D01*
X006415Y008511D01*
X006341Y008689D01*
X006205Y008825D01*
X006026Y008899D01*
X005834Y008899D01*
X005655Y008825D01*
X005519Y008689D01*
X005445Y008511D01*
X005445Y008318D01*
X005519Y008140D01*
X005655Y008003D01*
X005834Y007929D01*
X006026Y007929D01*
X006205Y008003D01*
X006307Y008105D02*
X016020Y008105D01*
X016020Y007947D02*
X012818Y007947D01*
X012785Y007960D02*
X012575Y007960D01*
X012380Y007879D01*
X012231Y007730D01*
X012150Y007535D01*
X012150Y007325D01*
X012231Y007130D01*
X012380Y006981D01*
X012575Y006900D01*
X012785Y006900D01*
X012980Y006981D01*
X013129Y007130D01*
X013210Y007325D01*
X013210Y007535D01*
X013129Y007730D01*
X012980Y007879D01*
X012785Y007960D01*
X013072Y007788D02*
X016020Y007788D01*
X016020Y007630D02*
X013171Y007630D01*
X013210Y007471D02*
X014195Y007471D01*
X014214Y007490D02*
X014120Y007396D01*
X014120Y006464D01*
X014214Y006370D01*
X015146Y006370D01*
X015240Y006464D01*
X015240Y007396D01*
X015146Y007490D01*
X014214Y007490D01*
X014120Y007313D02*
X013205Y007313D01*
X013139Y007154D02*
X014120Y007154D01*
X014120Y006996D02*
X012995Y006996D01*
X012365Y006996D02*
X008995Y006996D01*
X009139Y007154D02*
X012221Y007154D01*
X012155Y007313D02*
X009205Y007313D01*
X009210Y007471D02*
X012150Y007471D01*
X012189Y007630D02*
X009171Y007630D01*
X009072Y007788D02*
X012288Y007788D01*
X012542Y007947D02*
X008818Y007947D01*
X008542Y007947D02*
X007818Y007947D01*
X007542Y007947D02*
X006870Y007947D01*
X006680Y007947D02*
X006680Y007947D01*
X006680Y007788D02*
X006680Y007788D01*
X006490Y007947D02*
X006068Y007947D01*
X005792Y007947D02*
X000340Y007947D01*
X000340Y008105D02*
X005553Y008105D01*
X005467Y008264D02*
X000340Y008264D01*
X000340Y008422D02*
X005445Y008422D01*
X005474Y008581D02*
X000340Y008581D01*
X000340Y008739D02*
X005569Y008739D01*
X005829Y008898D02*
X000340Y008898D01*
X000340Y009056D02*
X006409Y009056D01*
X006400Y009035D02*
X006400Y008825D01*
X006481Y008630D01*
X006630Y008481D01*
X006825Y008400D01*
X007035Y008400D01*
X007230Y008481D01*
X007379Y008630D01*
X007460Y008825D01*
X007460Y009035D01*
X007379Y009230D01*
X007230Y009379D01*
X007035Y009460D01*
X006825Y009460D01*
X006630Y009379D01*
X006481Y009230D01*
X006400Y009035D01*
X006474Y009215D02*
X000340Y009215D01*
X000340Y009373D02*
X006623Y009373D01*
X006801Y009644D02*
X006887Y009630D01*
X006921Y009630D01*
X006921Y010171D01*
X006939Y010171D01*
X006939Y010189D01*
X007480Y010189D01*
X007480Y010223D01*
X007466Y010309D01*
X007440Y010391D01*
X007400Y010468D01*
X007350Y010538D01*
X007288Y010600D01*
X007218Y010650D01*
X007141Y010690D01*
X007059Y010716D01*
X006973Y010730D01*
X006939Y010730D01*
X006939Y010189D01*
X006921Y010189D01*
X006921Y010730D01*
X006887Y010730D01*
X006801Y010716D01*
X006719Y010690D01*
X006642Y010650D01*
X006572Y010600D01*
X006510Y010538D01*
X006460Y010468D01*
X006420Y010391D01*
X006394Y010309D01*
X006380Y010223D01*
X006380Y010189D01*
X006921Y010189D01*
X006921Y010171D01*
X006380Y010171D01*
X006380Y010137D01*
X006394Y010051D01*
X006420Y009969D01*
X006460Y009892D01*
X006510Y009822D01*
X006572Y009760D01*
X006642Y009710D01*
X006719Y009670D01*
X006801Y009644D01*
X006921Y009690D02*
X006939Y009690D01*
X006939Y009630D02*
X006973Y009630D01*
X007059Y009644D01*
X007141Y009670D01*
X007218Y009710D01*
X007288Y009760D01*
X007350Y009822D01*
X007400Y009892D01*
X007440Y009969D01*
X007466Y010051D01*
X007480Y010137D01*
X007480Y010171D01*
X006939Y010171D01*
X006939Y009630D01*
X007180Y009690D02*
X010728Y009690D01*
X010825Y009650D02*
X010630Y009731D01*
X010481Y009880D01*
X010400Y010075D01*
X010400Y010285D01*
X010481Y010480D01*
X010630Y010629D01*
X010825Y010710D01*
X011035Y010710D01*
X011230Y010629D01*
X011379Y010480D01*
X011460Y010285D01*
X011460Y010075D01*
X011379Y009880D01*
X011230Y009731D01*
X011035Y009650D01*
X010825Y009650D01*
X010825Y009460D02*
X010630Y009379D01*
X010481Y009230D01*
X010400Y009035D01*
X010400Y008825D01*
X010481Y008630D01*
X010630Y008481D01*
X010825Y008400D01*
X011035Y008400D01*
X011230Y008481D01*
X011379Y008630D01*
X011460Y008825D01*
X011460Y009035D01*
X011379Y009230D01*
X011230Y009379D01*
X011035Y009460D01*
X010825Y009460D01*
X010623Y009373D02*
X007237Y009373D01*
X007386Y009215D02*
X010474Y009215D01*
X010409Y009056D02*
X007451Y009056D01*
X007460Y008898D02*
X010400Y008898D01*
X010435Y008739D02*
X007425Y008739D01*
X007330Y008581D02*
X010530Y008581D01*
X010771Y008422D02*
X007089Y008422D01*
X006771Y008422D02*
X006415Y008422D01*
X006386Y008581D02*
X006530Y008581D01*
X006435Y008739D02*
X006291Y008739D01*
X006400Y008898D02*
X006031Y008898D01*
X006393Y008264D02*
X016020Y008264D01*
X016020Y008422D02*
X011089Y008422D01*
X011330Y008581D02*
X016020Y008581D01*
X016020Y008739D02*
X011425Y008739D01*
X011460Y008898D02*
X016020Y008898D01*
X016020Y009056D02*
X011451Y009056D01*
X011386Y009215D02*
X012019Y009215D01*
X012039Y009195D02*
X011945Y009289D01*
X011945Y010071D01*
X012039Y010165D01*
X012821Y010165D01*
X012915Y010071D01*
X012915Y009289D01*
X012821Y009195D01*
X012039Y009195D01*
X011945Y009373D02*
X011237Y009373D01*
X011132Y009690D02*
X011945Y009690D01*
X011945Y009532D02*
X000340Y009532D01*
X000340Y009690D02*
X006680Y009690D01*
X006491Y009849D02*
X001894Y009849D01*
X001849Y009830D02*
X002161Y009959D01*
X002161Y009959D01*
X002401Y010199D01*
X002530Y010511D01*
X002530Y010849D01*
X002401Y011161D01*
X002161Y011401D01*
X001849Y011530D01*
X001511Y011530D01*
X001199Y011401D01*
X001199Y011401D01*
X000959Y011161D01*
X000830Y010849D01*
X000830Y010511D01*
X000959Y010199D01*
X001199Y009959D01*
X001511Y009830D01*
X001630Y009830D01*
X001849Y009830D01*
X002209Y010007D02*
X006408Y010007D01*
X006380Y010166D02*
X005529Y010166D01*
X005625Y010205D02*
X005419Y010120D01*
X005197Y010120D01*
X004991Y010205D01*
X004833Y010363D01*
X004748Y010569D01*
X004748Y010791D01*
X004833Y010997D01*
X004991Y011155D01*
X005197Y011240D01*
X005419Y011240D01*
X005625Y011155D01*
X005783Y010997D01*
X005868Y010791D01*
X005868Y010569D01*
X005783Y010363D01*
X005625Y010205D01*
X005744Y010324D02*
X006398Y010324D01*
X006470Y010483D02*
X005832Y010483D01*
X005868Y010641D02*
X006629Y010641D01*
X006921Y010641D02*
X006939Y010641D01*
X006939Y010483D02*
X006921Y010483D01*
X006921Y010324D02*
X006939Y010324D01*
X006939Y010166D02*
X006921Y010166D01*
X006921Y010007D02*
X006939Y010007D01*
X006939Y009849D02*
X006921Y009849D01*
X007369Y009849D02*
X010512Y009849D01*
X010428Y010007D02*
X007452Y010007D01*
X007480Y010166D02*
X010400Y010166D01*
X010416Y010324D02*
X007462Y010324D01*
X007390Y010483D02*
X010483Y010483D01*
X010658Y010641D02*
X007231Y010641D01*
X007175Y010958D02*
X010685Y010958D01*
X010630Y010981D02*
X010825Y010900D01*
X011035Y010900D01*
X011230Y010981D01*
X011379Y011130D01*
X011460Y011325D01*
X011460Y011535D01*
X011379Y011730D01*
X011230Y011879D01*
X011035Y011960D01*
X010825Y011960D01*
X010630Y011879D01*
X010481Y011730D01*
X010400Y011535D01*
X010400Y011325D01*
X010481Y011130D01*
X010630Y010981D01*
X010494Y011117D02*
X007366Y011117D01*
X007379Y011130D02*
X007230Y010981D01*
X007035Y010900D01*
X006825Y010900D01*
X006630Y010981D01*
X006481Y011130D01*
X006400Y011325D01*
X006400Y011535D01*
X006481Y011730D01*
X006630Y011879D01*
X006825Y011960D01*
X007035Y011960D01*
X007230Y011879D01*
X007379Y011730D01*
X007460Y011535D01*
X007460Y011325D01*
X007379Y011130D01*
X007439Y011275D02*
X010421Y011275D01*
X010400Y011434D02*
X007460Y011434D01*
X007437Y011592D02*
X010423Y011592D01*
X010501Y011751D02*
X007359Y011751D01*
X007159Y011909D02*
X010701Y011909D01*
X011159Y011909D02*
X015208Y011909D01*
X015483Y011751D02*
X011359Y011751D01*
X011437Y011592D02*
X015647Y011592D01*
X015779Y011434D02*
X015082Y011434D01*
X015161Y011401D02*
X014849Y011530D01*
X014511Y011530D01*
X014199Y011401D01*
X014199Y011401D01*
X013959Y011161D01*
X013830Y010849D01*
X013830Y010511D01*
X013959Y010199D01*
X013959Y010199D01*
X014199Y009959D01*
X014511Y009830D01*
X014630Y009830D01*
X014849Y009830D01*
X015161Y009959D01*
X015161Y009959D01*
X015401Y010199D01*
X015530Y010511D01*
X015530Y010849D01*
X015401Y011161D01*
X015401Y011161D01*
X015161Y011401D01*
X015161Y011401D01*
X015287Y011275D02*
X015871Y011275D01*
X015938Y011117D02*
X015419Y011117D01*
X015485Y010958D02*
X015981Y010958D01*
X016012Y010800D02*
X015530Y010800D01*
X015530Y010641D02*
X016020Y010641D01*
X016020Y010483D02*
X015518Y010483D01*
X015453Y010324D02*
X016020Y010324D01*
X016020Y010166D02*
X015368Y010166D01*
X015401Y010199D02*
X015401Y010199D01*
X015209Y010007D02*
X016020Y010007D01*
X016020Y009849D02*
X014894Y009849D01*
X014466Y009849D02*
X012915Y009849D01*
X012915Y010007D02*
X014151Y010007D01*
X014199Y009959D02*
X014199Y009959D01*
X013992Y010166D02*
X011460Y010166D01*
X011444Y010324D02*
X012072Y010324D01*
X012045Y010351D02*
X012101Y010295D01*
X012165Y010248D01*
X012236Y010212D01*
X012312Y010187D01*
X012390Y010175D01*
X012430Y010175D01*
X012470Y010175D01*
X012548Y010187D01*
X012624Y010212D01*
X012695Y010248D01*
X012759Y010295D01*
X012815Y010351D01*
X012862Y010415D01*
X012898Y010486D01*
X012923Y010562D01*
X012935Y010640D01*
X012935Y010680D01*
X012935Y010720D01*
X012923Y010798D01*
X012898Y010874D01*
X012862Y010945D01*
X012815Y011009D01*
X012759Y011065D01*
X012695Y011112D01*
X012624Y011148D01*
X012548Y011173D01*
X012470Y011185D01*
X012430Y011185D01*
X012430Y010680D01*
X012430Y010680D01*
X012935Y010680D01*
X012430Y010680D01*
X012430Y010680D01*
X012430Y010680D01*
X011925Y010680D01*
X011925Y010720D01*
X011937Y010798D01*
X011962Y010874D01*
X011998Y010945D01*
X012045Y011009D01*
X012101Y011065D01*
X012165Y011112D01*
X012236Y011148D01*
X012312Y011173D01*
X012390Y011185D01*
X012430Y011185D01*
X012430Y010680D01*
X012430Y010175D01*
X012430Y010680D01*
X012430Y010680D01*
X011925Y010680D01*
X011925Y010640D01*
X011937Y010562D01*
X011962Y010486D01*
X011998Y010415D01*
X012045Y010351D01*
X011964Y010483D02*
X011377Y010483D01*
X011202Y010641D02*
X011925Y010641D01*
X011938Y010800D02*
X005865Y010800D01*
X005799Y010958D02*
X006685Y010958D01*
X006494Y011117D02*
X005663Y011117D01*
X004953Y011117D02*
X004490Y011117D01*
X004490Y011146D02*
X004396Y011240D01*
X003464Y011240D01*
X003370Y011146D01*
X003370Y010214D01*
X003464Y010120D01*
X004396Y010120D01*
X004490Y010214D01*
X004490Y011146D01*
X004490Y010958D02*
X004817Y010958D01*
X004751Y010800D02*
X004490Y010800D01*
X004490Y010641D02*
X004748Y010641D01*
X004784Y010483D02*
X004490Y010483D01*
X004490Y010324D02*
X004872Y010324D01*
X005087Y010166D02*
X004442Y010166D01*
X003418Y010166D02*
X002368Y010166D01*
X002401Y010199D02*
X002401Y010199D01*
X002453Y010324D02*
X003370Y010324D01*
X003370Y010483D02*
X002518Y010483D01*
X002530Y010641D02*
X003370Y010641D01*
X003370Y010800D02*
X002530Y010800D01*
X002485Y010958D02*
X003370Y010958D01*
X003370Y011117D02*
X002419Y011117D01*
X002287Y011275D02*
X006421Y011275D01*
X006400Y011434D02*
X002082Y011434D01*
X002161Y011401D02*
X002161Y011401D01*
X002161Y011401D01*
X001278Y011434D02*
X000581Y011434D01*
X000489Y011275D02*
X001073Y011275D01*
X000959Y011161D02*
X000959Y011161D01*
X000941Y011117D02*
X000422Y011117D01*
X000379Y010958D02*
X000875Y010958D01*
X000830Y010800D02*
X000348Y010800D01*
X000340Y010641D02*
X000830Y010641D01*
X000842Y010483D02*
X000340Y010483D01*
X000340Y010324D02*
X000907Y010324D01*
X000959Y010199D02*
X000959Y010199D01*
X000992Y010166D02*
X000340Y010166D01*
X000340Y010007D02*
X001151Y010007D01*
X001199Y009959D02*
X001199Y009959D01*
X001466Y009849D02*
X000340Y009849D01*
X000713Y011592D02*
X006423Y011592D01*
X006501Y011751D02*
X000877Y011751D01*
X001152Y011909D02*
X006701Y011909D01*
X011175Y010958D02*
X012008Y010958D01*
X012174Y011117D02*
X011366Y011117D01*
X011439Y011275D02*
X014073Y011275D01*
X013959Y011161D02*
X013959Y011161D01*
X013941Y011117D02*
X012686Y011117D01*
X012852Y010958D02*
X013875Y010958D01*
X013830Y010800D02*
X012922Y010800D01*
X012935Y010641D02*
X013830Y010641D01*
X013842Y010483D02*
X012896Y010483D01*
X012788Y010324D02*
X013907Y010324D01*
X012915Y009690D02*
X016020Y009690D01*
X016020Y009532D02*
X012915Y009532D01*
X012915Y009373D02*
X016020Y009373D01*
X016020Y009215D02*
X012841Y009215D01*
X011945Y009849D02*
X011348Y009849D01*
X011432Y010007D02*
X011945Y010007D01*
X012430Y010324D02*
X012430Y010324D01*
X012430Y010483D02*
X012430Y010483D01*
X012430Y010641D02*
X012430Y010641D01*
X012430Y010800D02*
X012430Y010800D01*
X012430Y010958D02*
X012430Y010958D01*
X012430Y011117D02*
X012430Y011117D01*
X011460Y011434D02*
X014278Y011434D01*
X015165Y007471D02*
X016020Y007471D01*
X016020Y007313D02*
X015240Y007313D01*
X015240Y007154D02*
X016020Y007154D01*
X016020Y006996D02*
X015240Y006996D01*
X015240Y006837D02*
X016020Y006837D01*
X016020Y006679D02*
X015240Y006679D01*
X015240Y006520D02*
X016020Y006520D01*
X016020Y006362D02*
X006428Y006362D01*
X006430Y006520D02*
X014120Y006520D01*
X014376Y006048D02*
X014457Y006090D01*
X014544Y006118D01*
X014634Y006132D01*
X014642Y006132D01*
X014642Y005590D01*
X014642Y005514D01*
X014718Y005514D01*
X014718Y004972D01*
X014726Y004972D01*
X014816Y004986D01*
X014903Y005015D01*
X014984Y005056D01*
X015058Y005110D01*
X015122Y005174D01*
X015176Y005248D01*
X015218Y005329D01*
X015246Y005416D01*
X015260Y005506D01*
X015260Y005514D01*
X014718Y005514D01*
X014718Y005590D01*
X015260Y005590D01*
X015260Y005598D01*
X015246Y005688D01*
X015218Y005775D01*
X015176Y005856D01*
X015122Y005930D01*
X015058Y005994D01*
X014984Y006048D01*
X014903Y006090D01*
X014816Y006118D01*
X014726Y006132D01*
X014718Y006132D01*
X014718Y005590D01*
X014642Y005590D01*
X014100Y005590D01*
X014100Y005598D01*
X014114Y005688D01*
X014142Y005775D01*
X014184Y005856D01*
X014238Y005930D01*
X014302Y005994D01*
X014376Y006048D01*
X014371Y006045D02*
X006237Y006045D01*
X006387Y005886D02*
X005973Y005886D01*
X005930Y006045D02*
X005930Y006045D01*
X006105Y005728D02*
X006255Y005728D01*
X006273Y005772D02*
X006200Y005595D01*
X006200Y004765D01*
X006273Y004588D01*
X006408Y004453D01*
X006585Y004380D01*
X006775Y004380D01*
X006952Y004453D01*
X007087Y004588D01*
X007160Y004765D01*
X007160Y005595D01*
X007087Y005772D01*
X006952Y005907D01*
X006775Y005980D01*
X006585Y005980D01*
X006408Y005907D01*
X006273Y005772D01*
X006200Y005569D02*
X006160Y005569D01*
X006160Y005411D02*
X006200Y005411D01*
X006200Y005252D02*
X006160Y005252D01*
X006160Y005094D02*
X006200Y005094D01*
X006200Y004935D02*
X006160Y004935D01*
X006160Y004777D02*
X006200Y004777D01*
X006261Y004618D02*
X006099Y004618D01*
X005958Y004460D02*
X006402Y004460D01*
X006958Y004460D02*
X009381Y004460D01*
X009354Y004479D02*
X009418Y004432D01*
X009488Y004397D01*
X009563Y004372D01*
X009641Y004360D01*
X009660Y004360D01*
X009660Y005160D01*
X009180Y005160D01*
X009180Y004821D01*
X009192Y004743D01*
X009217Y004668D01*
X009252Y004598D01*
X009299Y004534D01*
X009354Y004479D01*
X009242Y004618D02*
X007099Y004618D01*
X007160Y004777D02*
X009187Y004777D01*
X009180Y004935D02*
X007160Y004935D01*
X007160Y005094D02*
X009180Y005094D01*
X009180Y005200D02*
X009660Y005200D01*
X009660Y006000D01*
X009641Y006000D01*
X009563Y005988D01*
X009488Y005963D01*
X009418Y005928D01*
X009354Y005881D01*
X009299Y005826D01*
X009252Y005762D01*
X009217Y005692D01*
X009192Y005617D01*
X009180Y005539D01*
X009180Y005200D01*
X009180Y005252D02*
X007160Y005252D01*
X007160Y005411D02*
X009180Y005411D01*
X009185Y005569D02*
X007160Y005569D01*
X007105Y005728D02*
X009235Y005728D01*
X009361Y005886D02*
X006973Y005886D01*
X006373Y006203D02*
X016020Y006203D01*
X016020Y006045D02*
X014989Y006045D01*
X015154Y005886D02*
X016020Y005886D01*
X016020Y005728D02*
X015233Y005728D01*
X015244Y005411D02*
X016020Y005411D01*
X016020Y005252D02*
X015178Y005252D01*
X015036Y005094D02*
X016020Y005094D01*
X016020Y004935D02*
X012160Y004935D01*
X012160Y004777D02*
X016020Y004777D01*
X016020Y004618D02*
X012099Y004618D01*
X012087Y004588D02*
X012160Y004765D01*
X012160Y005595D01*
X012087Y005772D01*
X011952Y005907D01*
X011775Y005980D01*
X011585Y005980D01*
X011408Y005907D01*
X011273Y005772D01*
X011200Y005595D01*
X011200Y004765D01*
X011273Y004588D01*
X011408Y004453D01*
X011585Y004380D01*
X011775Y004380D01*
X011952Y004453D01*
X012087Y004588D01*
X011958Y004460D02*
X016020Y004460D01*
X016020Y004301D02*
X011040Y004301D01*
X011040Y004143D02*
X016020Y004143D01*
X016020Y003984D02*
X010988Y003984D01*
X010835Y003826D02*
X016020Y003826D01*
X016020Y003667D02*
X010676Y003667D01*
X010518Y003509D02*
X016020Y003509D01*
X016020Y003350D02*
X010324Y003350D01*
X010011Y003033D02*
X006349Y003033D01*
X006569Y002875D02*
X009791Y002875D01*
X009684Y002716D02*
X006676Y002716D01*
X006740Y002558D02*
X009620Y002558D01*
X009620Y002399D02*
X006740Y002399D01*
X006740Y002241D02*
X009620Y002241D01*
X009620Y002082D02*
X006740Y002082D01*
X006740Y001924D02*
X009620Y001924D01*
X009620Y001765D02*
X006740Y001765D01*
X006740Y001607D02*
X009620Y001607D01*
X009620Y001448D02*
X006740Y001448D01*
X006736Y001290D02*
X009624Y001290D01*
X009689Y001131D02*
X006671Y001131D01*
X006556Y000973D02*
X009804Y000973D01*
X014199Y000959D02*
X014199Y000959D01*
X015161Y002401D02*
X015161Y002401D01*
X014642Y004972D02*
X014642Y005514D01*
X014100Y005514D01*
X014100Y005506D01*
X014114Y005416D01*
X014142Y005329D01*
X014184Y005248D01*
X014238Y005174D01*
X014302Y005110D01*
X014376Y005056D01*
X014457Y005015D01*
X014544Y004986D01*
X014634Y004972D01*
X014642Y004972D01*
X014642Y005094D02*
X014718Y005094D01*
X014718Y005252D02*
X014642Y005252D01*
X014642Y005411D02*
X014718Y005411D01*
X014718Y005569D02*
X016020Y005569D01*
X014718Y005728D02*
X014642Y005728D01*
X014642Y005886D02*
X014718Y005886D01*
X014718Y006045D02*
X014642Y006045D01*
X014206Y005886D02*
X011973Y005886D01*
X012105Y005728D02*
X014127Y005728D01*
X014116Y005411D02*
X012160Y005411D01*
X012160Y005252D02*
X014182Y005252D01*
X014324Y005094D02*
X012160Y005094D01*
X012160Y005569D02*
X014642Y005569D01*
X011387Y005886D02*
X010973Y005886D01*
X011105Y005728D02*
X011255Y005728D01*
X011200Y005569D02*
X011160Y005569D01*
X011160Y005411D02*
X011200Y005411D01*
X011200Y005252D02*
X011160Y005252D01*
X011160Y005094D02*
X011200Y005094D01*
X011200Y004935D02*
X011160Y004935D01*
X011160Y004777D02*
X011200Y004777D01*
X011261Y004618D02*
X011099Y004618D01*
X011040Y004460D02*
X011402Y004460D01*
X010320Y004460D02*
X009979Y004460D01*
X010006Y004479D02*
X009942Y004432D01*
X009872Y004397D01*
X009797Y004372D01*
X009719Y004360D01*
X009700Y004360D01*
X009700Y005160D01*
X009700Y005200D01*
X009660Y005200D01*
X009660Y005160D01*
X009700Y005160D01*
X010180Y005160D01*
X010180Y004821D01*
X010168Y004743D01*
X010143Y004668D01*
X010108Y004598D01*
X010061Y004534D01*
X010006Y004479D01*
X010118Y004618D02*
X010261Y004618D01*
X010200Y004777D02*
X010173Y004777D01*
X010180Y004935D02*
X010200Y004935D01*
X010200Y005094D02*
X010180Y005094D01*
X010180Y005200D02*
X010180Y005539D01*
X010168Y005617D01*
X010143Y005692D01*
X010108Y005762D01*
X010061Y005826D01*
X010006Y005881D01*
X009942Y005928D01*
X009872Y005963D01*
X009797Y005988D01*
X009719Y006000D01*
X009700Y006000D01*
X009700Y005200D01*
X010180Y005200D01*
X010180Y005252D02*
X010200Y005252D01*
X010200Y005411D02*
X010180Y005411D01*
X010175Y005569D02*
X010200Y005569D01*
X010255Y005728D02*
X010125Y005728D01*
X009999Y005886D02*
X010387Y005886D01*
X009700Y005886D02*
X009660Y005886D01*
X009660Y005728D02*
X009700Y005728D01*
X009700Y005569D02*
X009660Y005569D01*
X009660Y005411D02*
X009700Y005411D01*
X009700Y005252D02*
X009660Y005252D01*
X009660Y005094D02*
X009700Y005094D01*
X009700Y004935D02*
X009660Y004935D01*
X009660Y004777D02*
X009700Y004777D01*
X009700Y004618D02*
X009660Y004618D01*
X009660Y004460D02*
X009700Y004460D01*
X008365Y006996D02*
X007995Y006996D01*
X008139Y007154D02*
X008221Y007154D01*
X008189Y007630D02*
X008171Y007630D01*
X008072Y007788D02*
X008288Y007788D01*
X007221Y007154D02*
X007157Y007154D01*
X007018Y006996D02*
X007365Y006996D01*
X006680Y006996D02*
X006680Y006996D01*
X006680Y007154D02*
X006680Y007154D01*
X006680Y007313D02*
X006680Y007313D01*
X006680Y007471D02*
X006680Y007471D01*
X006680Y007630D02*
X006680Y007630D01*
X004930Y007630D02*
X004930Y007630D01*
X004930Y007471D02*
X004930Y007471D01*
X004930Y007430D02*
X004930Y007935D01*
X004890Y007935D01*
X004812Y007923D01*
X004736Y007898D01*
X004665Y007862D01*
X004601Y007815D01*
X004545Y007759D01*
X004498Y007695D01*
X004462Y007624D01*
X004437Y007548D01*
X004425Y007470D01*
X004425Y007430D01*
X004930Y007430D01*
X004930Y007430D01*
X004930Y007430D01*
X004930Y006925D01*
X004890Y006925D01*
X004812Y006937D01*
X004736Y006962D01*
X004665Y006998D01*
X004601Y007045D01*
X004545Y007101D01*
X004498Y007165D01*
X004462Y007236D01*
X004437Y007312D01*
X004425Y007390D01*
X004425Y007430D01*
X004930Y007430D01*
X004930Y007313D02*
X004930Y007313D01*
X004930Y007154D02*
X004930Y007154D01*
X004930Y006996D02*
X004930Y006996D01*
X004670Y006996D02*
X004372Y006996D01*
X004415Y007154D02*
X004506Y007154D01*
X004437Y007313D02*
X004415Y007313D01*
X004415Y007471D02*
X004425Y007471D01*
X004415Y007630D02*
X004465Y007630D01*
X004415Y007788D02*
X004574Y007788D01*
X004930Y007788D02*
X004930Y007788D01*
X003445Y007788D02*
X000340Y007788D01*
X000340Y007630D02*
X003445Y007630D01*
X002161Y002401D02*
X002161Y002401D01*
X001197Y002399D02*
X000340Y002399D01*
X000340Y002241D02*
X001038Y002241D01*
X000926Y002082D02*
X000340Y002082D01*
X000340Y001924D02*
X000861Y001924D01*
X000830Y001765D02*
X000340Y001765D01*
X000345Y001607D02*
X000830Y001607D01*
X000856Y001448D02*
X000367Y001448D01*
X000409Y001290D02*
X000922Y001290D01*
X000959Y001199D02*
X000959Y001199D01*
X001027Y001131D02*
X000463Y001131D01*
D18*
X004080Y001930D02*
X005830Y003680D01*
X010180Y003680D01*
X010680Y004180D01*
X010680Y005180D01*
M02*
