%
M48
M72
T01C0.0276
T02C0.0320
T03C0.0354
T04C0.0400
T05C0.0472
T06C0.0520
T07C0.1200
%
T01
X5930Y6446
X4930Y7430
X3930Y7430
X5930Y8414
X12430Y9680
X12430Y10680
T02
X7680Y7430
X6680Y7430
T03
X6930Y8930
X6930Y10180
X6930Y11430
X10930Y11430
X10930Y10180
X10930Y8930
X12680Y7430
X8680Y7430
T04
X9680Y5180
X10680Y5180
X11680Y5180
X6680Y5180
X5680Y5180
X4680Y5180
T05
X1680Y5430
X1680Y6808
X3930Y10680
X5308Y10680
X14680Y6930
X14680Y5552
T06
X12280Y1930
X10280Y1930
X6080Y1930
X4080Y1930
T07
X1680Y1680
X1680Y10680
X14680Y10680
X14680Y1680
M30
