G75*
%MOIN*%
%OFA0B0*%
%FSLAX24Y24*%
%IPPOS*%
%LPD*%
%AMOC8*
5,1,8,0,0,1.08239X$1,22.5*
%
%ADD10C,0.0080*%
D10*
X002900Y003194D02*
X002980Y003194D01*
X002980Y003515D01*
X003060Y003515D02*
X002900Y003515D01*
X002820Y003435D01*
X002820Y003275D01*
X002900Y003194D01*
X003140Y003435D02*
X003060Y003515D01*
X003140Y003435D02*
X003140Y003275D01*
X003140Y003710D02*
X003140Y003950D01*
X003060Y004030D01*
X002900Y004030D01*
X002820Y003950D01*
X002820Y003710D01*
X003220Y003710D01*
X003300Y003790D01*
X003300Y003870D01*
X003140Y004306D02*
X003140Y004466D01*
X003060Y004546D01*
X002900Y004546D01*
X002820Y004466D01*
X002820Y004306D01*
X002900Y004226D01*
X002980Y004226D01*
X002980Y004546D01*
X003140Y004730D02*
X003140Y004890D01*
X003140Y004810D02*
X002660Y004810D01*
X002660Y004890D01*
X002660Y005153D02*
X003140Y005153D01*
X003140Y005073D02*
X003140Y005234D01*
X003060Y005429D02*
X002900Y005429D01*
X002820Y005509D01*
X002820Y005669D01*
X002900Y005749D01*
X003060Y005749D01*
X003140Y005669D01*
X003140Y005509D01*
X003060Y005429D01*
X002660Y005234D02*
X002660Y005153D01*
X002740Y005945D02*
X002660Y006025D01*
X002660Y006185D01*
X002740Y006265D01*
X003060Y006265D01*
X003140Y006185D01*
X003140Y006025D01*
X003060Y005945D01*
X003140Y006976D02*
X003140Y007216D01*
X003060Y007296D01*
X002820Y007296D01*
X002820Y007480D02*
X002820Y007640D01*
X002740Y007560D02*
X003060Y007560D01*
X003140Y007480D01*
X003140Y007823D02*
X003140Y007984D01*
X003140Y007904D02*
X002820Y007904D01*
X002820Y007984D01*
X002660Y007904D02*
X002580Y007904D01*
X002740Y008179D02*
X002660Y008259D01*
X002660Y008419D01*
X002740Y008499D01*
X003060Y008499D01*
X003140Y008419D01*
X003140Y008259D01*
X003060Y008179D01*
X003140Y009210D02*
X002900Y009210D01*
X002820Y009290D01*
X002820Y009450D01*
X002980Y009450D02*
X002980Y009210D01*
X003140Y009210D02*
X003140Y009450D01*
X003060Y009531D01*
X002980Y009450D01*
X002900Y009726D02*
X003140Y009726D01*
X003140Y010046D02*
X002820Y010046D01*
X002820Y009806D01*
X002900Y009726D01*
X002900Y010242D02*
X002980Y010242D01*
X002980Y010562D01*
X003060Y010562D02*
X002900Y010562D01*
X002820Y010482D01*
X002820Y010322D01*
X002900Y010242D01*
X003140Y010482D02*
X003060Y010562D01*
X003140Y010482D02*
X003140Y010322D01*
X003140Y010757D02*
X003140Y010997D01*
X003060Y011077D01*
X002900Y011077D01*
X002820Y010997D01*
X002820Y010757D01*
X002660Y010757D02*
X003140Y010757D01*
X003140Y011273D02*
X002900Y011273D01*
X002820Y011353D01*
X002820Y011513D01*
X002980Y011513D02*
X002980Y011273D01*
X003140Y011273D02*
X003140Y011513D01*
X003060Y011593D01*
X002980Y011513D01*
X003060Y011788D02*
X002980Y011869D01*
X002980Y012029D01*
X002900Y012109D01*
X002820Y012029D01*
X002820Y011788D01*
X003060Y011788D02*
X003140Y011869D01*
X003140Y012109D01*
X003140Y012304D02*
X003140Y012544D01*
X003060Y012624D01*
X002980Y012544D01*
X002980Y012304D01*
X002900Y012304D02*
X003140Y012304D01*
X002900Y012304D02*
X002820Y012384D01*
X002820Y012544D01*
X002740Y012820D02*
X002900Y012820D01*
X002980Y012900D01*
X002980Y013140D01*
X003140Y013140D02*
X002660Y013140D01*
X002660Y012900D01*
X002740Y012820D01*
X003300Y007136D02*
X003300Y007056D01*
X003220Y006976D01*
X002820Y006976D01*
M02*
