G75*
%MOIN*%
%OFA0B0*%
%FSLAX24Y24*%
%IPPOS*%
%LPD*%
%AMOC8*
5,1,8,0,0,1.08239X$1,22.5*
%
%ADD10C,0.0060*%
%ADD11C,0.0120*%
%ADD12C,0.0150*%
%ADD13R,0.0200X0.1000*%
%ADD14R,0.0750X0.0300*%
%ADD15C,0.0040*%
%ADD16C,0.0080*%
%ADD17R,0.4200X0.0300*%
%ADD18R,0.0750X0.0200*%
%ADD19R,0.0300X0.0200*%
%ADD20C,0.0050*%
%ADD21C,0.0010*%
%ADD22C,0.0100*%
D10*
X001085Y002360D02*
X001312Y002360D01*
X001453Y002360D02*
X001453Y002700D01*
X001680Y002700D01*
X001822Y002700D02*
X001822Y002360D01*
X001992Y002360D01*
X002048Y002417D01*
X002048Y002644D01*
X001992Y002700D01*
X001822Y002700D01*
X001567Y002530D02*
X001453Y002530D01*
X001453Y002360D02*
X001680Y002360D01*
X001085Y002360D02*
X001085Y002700D01*
X002190Y002587D02*
X002303Y002700D01*
X002303Y002360D01*
X002190Y002360D02*
X002417Y002360D01*
X003460Y002360D02*
X003687Y002360D01*
X003828Y002360D02*
X004055Y002360D01*
X004197Y002360D02*
X004197Y002700D01*
X004367Y002700D01*
X004423Y002644D01*
X004423Y002417D01*
X004367Y002360D01*
X004197Y002360D01*
X004055Y002700D02*
X003828Y002700D01*
X003828Y002360D01*
X003828Y002530D02*
X003942Y002530D01*
X003460Y002700D02*
X003460Y002360D01*
X004565Y002530D02*
X004792Y002530D01*
X004735Y002360D02*
X004735Y002700D01*
X004565Y002530D01*
X003880Y004280D02*
X011480Y004280D01*
X011506Y004282D01*
X011532Y004287D01*
X011557Y004295D01*
X011580Y004307D01*
X011602Y004321D01*
X011621Y004339D01*
X011639Y004358D01*
X011653Y004380D01*
X011665Y004403D01*
X011673Y004428D01*
X011678Y004454D01*
X011680Y004480D01*
X011680Y004880D01*
X011678Y004906D01*
X011673Y004932D01*
X011665Y004957D01*
X011653Y004980D01*
X011639Y005002D01*
X011621Y005021D01*
X011602Y005039D01*
X011580Y005053D01*
X011557Y005065D01*
X011532Y005073D01*
X011506Y005078D01*
X011480Y005080D01*
X003880Y005080D01*
X003830Y005030D02*
X004530Y005030D01*
X004530Y004330D01*
X003830Y004330D01*
X003830Y005030D01*
X003880Y005080D02*
X003854Y005078D01*
X003828Y005073D01*
X003803Y005065D01*
X003780Y005053D01*
X003758Y005039D01*
X003739Y005021D01*
X003721Y005002D01*
X003707Y004980D01*
X003695Y004957D01*
X003687Y004932D01*
X003682Y004906D01*
X003680Y004880D01*
X003680Y004480D01*
X003682Y004454D01*
X003687Y004428D01*
X003695Y004403D01*
X003707Y004380D01*
X003721Y004358D01*
X003739Y004339D01*
X003758Y004321D01*
X003780Y004307D01*
X003803Y004295D01*
X003828Y004287D01*
X003854Y004282D01*
X003880Y004280D01*
X003680Y007030D02*
X003680Y007780D01*
X003719Y007782D01*
X003758Y007788D01*
X003796Y007797D01*
X003833Y007810D01*
X003869Y007827D01*
X003902Y007847D01*
X003934Y007871D01*
X003963Y007897D01*
X003989Y007926D01*
X004013Y007958D01*
X004033Y007991D01*
X004050Y008027D01*
X004063Y008064D01*
X004072Y008102D01*
X004078Y008141D01*
X004080Y008180D01*
X004078Y008219D01*
X004072Y008258D01*
X004063Y008296D01*
X004050Y008333D01*
X004033Y008369D01*
X004013Y008402D01*
X003989Y008434D01*
X003963Y008463D01*
X003934Y008489D01*
X003902Y008513D01*
X003869Y008533D01*
X003833Y008550D01*
X003796Y008563D01*
X003758Y008572D01*
X003719Y008578D01*
X003680Y008580D01*
X003680Y009330D01*
X011680Y009330D01*
X011680Y007030D01*
X003680Y007030D01*
X004560Y007860D02*
X004560Y008300D01*
X004780Y008300D01*
X004854Y008227D01*
X004854Y008080D01*
X004780Y008007D01*
X004560Y008007D01*
X005020Y007933D02*
X005094Y007860D01*
X005241Y007860D01*
X005314Y007933D01*
X005314Y008007D01*
X005241Y008080D01*
X005094Y008080D01*
X005020Y008154D01*
X005020Y008227D01*
X005094Y008300D01*
X005241Y008300D01*
X005314Y008227D01*
X005481Y008227D02*
X005554Y008300D01*
X005701Y008300D01*
X005774Y008227D01*
X005774Y008154D01*
X005481Y007860D01*
X005774Y007860D01*
X005941Y007933D02*
X006015Y007860D01*
X006161Y007860D01*
X006235Y007933D01*
X006235Y008080D01*
X006161Y008154D01*
X006088Y008154D01*
X005941Y008080D01*
X005941Y008300D01*
X006235Y008300D01*
X006402Y008227D02*
X006402Y007933D01*
X006695Y008227D01*
X006695Y007933D01*
X006622Y007860D01*
X006475Y007860D01*
X006402Y007933D01*
X006402Y008227D02*
X006475Y008300D01*
X006622Y008300D01*
X006695Y008227D01*
X006862Y008154D02*
X007009Y008300D01*
X007009Y007860D01*
X006862Y007860D02*
X007156Y007860D01*
X007322Y008080D02*
X007616Y008080D01*
X007783Y008080D02*
X008076Y008080D01*
X008003Y007860D02*
X008003Y008300D01*
X007783Y008080D01*
X004530Y010830D02*
X003830Y010830D01*
X003830Y011530D01*
X004530Y011530D01*
X004530Y010830D01*
X003880Y010780D02*
X011480Y010780D01*
X011506Y010782D01*
X011532Y010787D01*
X011557Y010795D01*
X011580Y010807D01*
X011602Y010821D01*
X011621Y010839D01*
X011639Y010858D01*
X011653Y010880D01*
X011665Y010903D01*
X011673Y010928D01*
X011678Y010954D01*
X011680Y010980D01*
X011680Y011380D01*
X011678Y011406D01*
X011673Y011432D01*
X011665Y011457D01*
X011653Y011480D01*
X011639Y011502D01*
X011621Y011521D01*
X011602Y011539D01*
X011580Y011553D01*
X011557Y011565D01*
X011532Y011573D01*
X011506Y011578D01*
X011480Y011580D01*
X003880Y011580D01*
X003854Y011578D01*
X003828Y011573D01*
X003803Y011565D01*
X003780Y011553D01*
X003758Y011539D01*
X003739Y011521D01*
X003721Y011502D01*
X003707Y011480D01*
X003695Y011457D01*
X003687Y011432D01*
X003682Y011406D01*
X003680Y011380D01*
X003680Y010980D01*
X003682Y010954D01*
X003687Y010928D01*
X003695Y010903D01*
X003707Y010880D01*
X003721Y010858D01*
X003739Y010839D01*
X003758Y010821D01*
X003780Y010807D01*
X003803Y010795D01*
X003828Y010787D01*
X003854Y010782D01*
X003880Y010780D01*
X003880Y012280D02*
X011480Y012280D01*
X011506Y012282D01*
X011532Y012287D01*
X011557Y012295D01*
X011580Y012307D01*
X011602Y012321D01*
X011621Y012339D01*
X011639Y012358D01*
X011653Y012380D01*
X011665Y012403D01*
X011673Y012428D01*
X011678Y012454D01*
X011680Y012480D01*
X011680Y012880D01*
X011678Y012906D01*
X011673Y012932D01*
X011665Y012957D01*
X011653Y012980D01*
X011639Y013002D01*
X011621Y013021D01*
X011602Y013039D01*
X011580Y013053D01*
X011557Y013065D01*
X011532Y013073D01*
X011506Y013078D01*
X011480Y013080D01*
X003880Y013080D01*
X003830Y013030D02*
X004530Y013030D01*
X004530Y012330D01*
X003830Y012330D01*
X003830Y013030D01*
X003880Y013080D02*
X003854Y013078D01*
X003828Y013073D01*
X003803Y013065D01*
X003780Y013053D01*
X003758Y013039D01*
X003739Y013021D01*
X003721Y013002D01*
X003707Y012980D01*
X003695Y012957D01*
X003687Y012932D01*
X003682Y012906D01*
X003680Y012880D01*
X003680Y012480D01*
X003682Y012454D01*
X003687Y012428D01*
X003695Y012403D01*
X003707Y012380D01*
X003721Y012358D01*
X003739Y012339D01*
X003758Y012321D01*
X003780Y012307D01*
X003803Y012295D01*
X003828Y012287D01*
X003854Y012282D01*
X003880Y012280D01*
X004530Y013980D02*
X000830Y013980D01*
X000730Y014080D01*
X000680Y015230D01*
X000810Y014220D02*
X000812Y014240D01*
X000818Y014258D01*
X000827Y014276D01*
X000839Y014291D01*
X000854Y014303D01*
X000872Y014312D01*
X000890Y014318D01*
X000910Y014320D01*
X000930Y014318D01*
X000948Y014312D01*
X000966Y014303D01*
X000981Y014291D01*
X000993Y014276D01*
X001002Y014258D01*
X001008Y014240D01*
X001010Y014220D01*
X001008Y014200D01*
X001002Y014182D01*
X000993Y014164D01*
X000981Y014149D01*
X000966Y014137D01*
X000948Y014128D01*
X000930Y014122D01*
X000910Y014120D01*
X000890Y014122D01*
X000872Y014128D01*
X000854Y014137D01*
X000839Y014149D01*
X000827Y014164D01*
X000818Y014182D01*
X000812Y014200D01*
X000810Y014220D01*
X001880Y016180D02*
X001880Y017180D01*
X003480Y017180D01*
X003480Y016180D01*
X001880Y016180D01*
X002430Y016680D02*
X002680Y016680D01*
X002680Y016430D01*
X002680Y016680D02*
X002680Y016930D01*
X002680Y016680D02*
X003080Y016930D01*
X003080Y016430D01*
X002680Y016680D01*
X003280Y016680D01*
X003480Y017680D02*
X003480Y018680D01*
X001880Y018680D01*
X001880Y017680D01*
X003480Y017680D01*
X002930Y018180D02*
X002680Y018180D01*
X002680Y018430D01*
X002680Y018180D02*
X002680Y017930D01*
X002680Y018180D02*
X002280Y017930D01*
X002280Y018430D01*
X002680Y018180D01*
X002080Y018180D01*
X000680Y019630D02*
X000730Y020780D01*
X000830Y020880D01*
X004530Y020880D01*
X004630Y020780D01*
X004680Y019630D01*
X004350Y020640D02*
X004352Y020660D01*
X004358Y020678D01*
X004367Y020696D01*
X004379Y020711D01*
X004394Y020723D01*
X004412Y020732D01*
X004430Y020738D01*
X004450Y020740D01*
X004470Y020738D01*
X004488Y020732D01*
X004506Y020723D01*
X004521Y020711D01*
X004533Y020696D01*
X004542Y020678D01*
X004548Y020660D01*
X004550Y020640D01*
X004548Y020620D01*
X004542Y020602D01*
X004533Y020584D01*
X004521Y020569D01*
X004506Y020557D01*
X004488Y020548D01*
X004470Y020542D01*
X004450Y020540D01*
X004430Y020542D01*
X004412Y020548D01*
X004394Y020557D01*
X004379Y020569D01*
X004367Y020584D01*
X004358Y020602D01*
X004352Y020620D01*
X004350Y020640D01*
X004460Y022460D02*
X004606Y022607D01*
X004460Y022754D01*
X004900Y022754D01*
X004827Y022920D02*
X004900Y022994D01*
X004900Y023141D01*
X004827Y023214D01*
X004533Y023214D01*
X004460Y023141D01*
X004460Y022994D01*
X004533Y022920D01*
X004827Y022920D01*
X004900Y022460D02*
X004460Y022460D01*
X004460Y023381D02*
X004460Y023674D01*
X004460Y023528D02*
X004900Y023528D01*
X004827Y023841D02*
X004533Y023841D01*
X004460Y023915D01*
X004460Y024061D01*
X004533Y024135D01*
X004827Y024135D01*
X004900Y024061D01*
X004900Y023915D01*
X004827Y023841D01*
X004900Y024302D02*
X004460Y024302D01*
X004460Y024522D01*
X004533Y024595D01*
X004680Y024595D01*
X004753Y024522D01*
X004753Y024302D01*
X004753Y024448D02*
X004900Y024595D01*
X005960Y018075D02*
X005960Y017735D01*
X006187Y017735D01*
X006328Y017735D02*
X006555Y017735D01*
X006697Y017735D02*
X006867Y017735D01*
X006923Y017792D01*
X006923Y018019D01*
X006867Y018075D01*
X006697Y018075D01*
X006697Y017735D01*
X006442Y017905D02*
X006328Y017905D01*
X006328Y018075D02*
X006328Y017735D01*
X006328Y018075D02*
X006555Y018075D01*
X007065Y018075D02*
X007065Y017905D01*
X007178Y017962D01*
X007235Y017962D01*
X007292Y017905D01*
X007292Y017792D01*
X007235Y017735D01*
X007122Y017735D01*
X007065Y017792D01*
X007065Y018075D02*
X007292Y018075D01*
X008085Y018075D02*
X008085Y017735D01*
X008312Y017735D01*
X008453Y017735D02*
X008680Y017735D01*
X008822Y017735D02*
X008992Y017735D01*
X009048Y017792D01*
X009048Y018019D01*
X008992Y018075D01*
X008822Y018075D01*
X008822Y017735D01*
X008567Y017905D02*
X008453Y017905D01*
X008453Y018075D02*
X008453Y017735D01*
X008453Y018075D02*
X008680Y018075D01*
X009190Y017905D02*
X009360Y017905D01*
X009417Y017848D01*
X009417Y017792D01*
X009360Y017735D01*
X009247Y017735D01*
X009190Y017792D01*
X009190Y017905D01*
X009303Y018019D01*
X009417Y018075D01*
X010680Y019630D02*
X010730Y020780D01*
X010830Y020880D01*
X014530Y020880D01*
X014630Y020780D01*
X014680Y019630D01*
X014350Y020640D02*
X014352Y020660D01*
X014358Y020678D01*
X014367Y020696D01*
X014379Y020711D01*
X014394Y020723D01*
X014412Y020732D01*
X014430Y020738D01*
X014450Y020740D01*
X014470Y020738D01*
X014488Y020732D01*
X014506Y020723D01*
X014521Y020711D01*
X014533Y020696D01*
X014542Y020678D01*
X014548Y020660D01*
X014550Y020640D01*
X014548Y020620D01*
X014542Y020602D01*
X014533Y020584D01*
X014521Y020569D01*
X014506Y020557D01*
X014488Y020548D01*
X014470Y020542D01*
X014450Y020540D01*
X014430Y020542D01*
X014412Y020548D01*
X014394Y020557D01*
X014379Y020569D01*
X014367Y020584D01*
X014358Y020602D01*
X014352Y020620D01*
X014350Y020640D01*
X013480Y018680D02*
X013480Y017680D01*
X011880Y017680D01*
X011880Y018680D01*
X013480Y018680D01*
X012930Y018180D02*
X012680Y018180D01*
X012680Y018430D01*
X012680Y018180D02*
X012680Y017930D01*
X012680Y018180D02*
X012280Y017930D01*
X012280Y018430D01*
X012680Y018180D01*
X012080Y018180D01*
X011880Y017180D02*
X011880Y016180D01*
X013480Y016180D01*
X013480Y017180D01*
X011880Y017180D01*
X012430Y016680D02*
X012680Y016680D01*
X012680Y016430D01*
X012680Y016680D02*
X012680Y016930D01*
X012680Y016680D02*
X013080Y016930D01*
X013080Y016430D01*
X012680Y016680D01*
X013280Y016680D01*
X014680Y015230D02*
X014630Y014080D01*
X014530Y013980D01*
X010830Y013980D01*
X010730Y014080D01*
X010680Y015230D01*
X010810Y014220D02*
X010812Y014240D01*
X010818Y014258D01*
X010827Y014276D01*
X010839Y014291D01*
X010854Y014303D01*
X010872Y014312D01*
X010890Y014318D01*
X010910Y014320D01*
X010930Y014318D01*
X010948Y014312D01*
X010966Y014303D01*
X010981Y014291D01*
X010993Y014276D01*
X011002Y014258D01*
X011008Y014240D01*
X011010Y014220D01*
X011008Y014200D01*
X011002Y014182D01*
X010993Y014164D01*
X010981Y014149D01*
X010966Y014137D01*
X010948Y014128D01*
X010930Y014122D01*
X010910Y014120D01*
X010890Y014122D01*
X010872Y014128D01*
X010854Y014137D01*
X010839Y014149D01*
X010827Y014164D01*
X010818Y014182D01*
X010812Y014200D01*
X010810Y014220D01*
X012810Y007747D02*
X012810Y007520D01*
X012810Y007634D02*
X013150Y007634D01*
X013093Y007322D02*
X012810Y007322D01*
X012810Y007265D02*
X012810Y007379D01*
X013093Y007322D02*
X013150Y007265D01*
X013150Y007209D01*
X013093Y007152D01*
X013093Y007011D02*
X013037Y007011D01*
X012980Y006954D01*
X012980Y006784D01*
X012980Y006954D02*
X012923Y007011D01*
X012866Y007011D01*
X012810Y006954D01*
X012810Y006784D01*
X013150Y006784D01*
X013150Y006954D01*
X013093Y007011D01*
X013093Y006274D02*
X013037Y006217D01*
X013037Y006104D01*
X012980Y006047D01*
X012923Y006104D01*
X012923Y006274D01*
X013093Y006274D02*
X013150Y006217D01*
X013150Y006047D01*
X013150Y005915D02*
X013150Y005802D01*
X013150Y005858D02*
X012923Y005858D01*
X012923Y005802D01*
X012810Y005858D02*
X012753Y005858D01*
X012980Y005660D02*
X013150Y005660D01*
X012980Y005660D02*
X012923Y005603D01*
X012923Y005433D01*
X013150Y005433D01*
X013150Y005292D02*
X012980Y005292D01*
X012923Y005235D01*
X012923Y005122D01*
X013037Y005122D02*
X013037Y005292D01*
X013150Y005292D02*
X013150Y005122D01*
X013093Y005065D01*
X013037Y005122D01*
X013150Y004923D02*
X012810Y004923D01*
X012923Y004810D01*
X012810Y004697D01*
X013150Y004697D01*
X013150Y004555D02*
X013150Y004385D01*
X013093Y004328D01*
X012980Y004328D01*
X012923Y004385D01*
X012923Y004555D01*
X012810Y004187D02*
X013150Y004187D01*
X013150Y003960D02*
X012810Y003960D01*
X012923Y004073D01*
X012810Y004187D01*
X013560Y004460D02*
X013900Y004460D01*
X013730Y004460D02*
X013730Y004687D01*
X013730Y004828D02*
X013730Y005055D01*
X013730Y005197D02*
X013730Y005367D01*
X013787Y005423D01*
X013843Y005423D01*
X013900Y005367D01*
X013900Y005197D01*
X013560Y005197D01*
X013560Y005367D01*
X013616Y005423D01*
X013673Y005423D01*
X013730Y005367D01*
X013787Y005565D02*
X013673Y005678D01*
X013673Y005735D01*
X013673Y005872D02*
X013673Y005929D01*
X013900Y005929D01*
X013900Y005985D02*
X013900Y005872D01*
X013843Y006117D02*
X013730Y006117D01*
X013673Y006174D01*
X013673Y006344D01*
X013560Y006344D02*
X013900Y006344D01*
X013900Y006174D01*
X013843Y006117D01*
X013843Y006486D02*
X013730Y006486D01*
X013673Y006542D01*
X013673Y006713D01*
X013957Y006713D01*
X014013Y006656D01*
X014013Y006599D01*
X013900Y006542D02*
X013900Y006713D01*
X013843Y006854D02*
X013730Y006854D01*
X013673Y006911D01*
X013673Y007024D01*
X013730Y007081D01*
X013787Y007081D01*
X013787Y006854D01*
X013843Y006854D02*
X013900Y006911D01*
X013900Y007024D01*
X013900Y006542D02*
X013843Y006486D01*
X013560Y005929D02*
X013503Y005929D01*
X013673Y005565D02*
X013900Y005565D01*
X014310Y005428D02*
X014423Y005315D01*
X014480Y005173D02*
X014480Y004947D01*
X014537Y004805D02*
X014480Y004748D01*
X014480Y004578D01*
X014593Y004578D01*
X014650Y004635D01*
X014650Y004748D01*
X014593Y004805D01*
X014537Y004805D01*
X014366Y004692D02*
X014480Y004578D01*
X014366Y004692D02*
X014310Y004805D01*
X014366Y004437D02*
X014593Y004210D01*
X014650Y004267D01*
X014650Y004380D01*
X014593Y004437D01*
X014366Y004437D01*
X014310Y004380D01*
X014310Y004267D01*
X014366Y004210D01*
X014593Y004210D01*
X014650Y005315D02*
X014650Y005542D01*
X014650Y005428D02*
X014310Y005428D01*
X014366Y005683D02*
X014310Y005740D01*
X014310Y005853D01*
X014366Y005910D01*
X014593Y005683D01*
X014650Y005740D01*
X014650Y005853D01*
X014593Y005910D01*
X014366Y005910D01*
X014480Y006052D02*
X014480Y006278D01*
X014423Y006420D02*
X014310Y006533D01*
X014650Y006533D01*
X014650Y006420D02*
X014650Y006647D01*
X014480Y006788D02*
X014480Y007015D01*
X014650Y006958D02*
X014310Y006958D01*
X014480Y006788D01*
X014593Y005683D02*
X014366Y005683D01*
X013900Y004687D02*
X013560Y004687D01*
X013453Y002700D02*
X013453Y002360D01*
X013680Y002360D01*
X013822Y002360D02*
X013992Y002360D01*
X014048Y002417D01*
X014048Y002644D01*
X013992Y002700D01*
X013822Y002700D01*
X013822Y002360D01*
X013567Y002530D02*
X013453Y002530D01*
X013453Y002700D02*
X013680Y002700D01*
X013312Y002360D02*
X013085Y002360D01*
X013085Y002700D01*
X014190Y002644D02*
X014247Y002700D01*
X014360Y002700D01*
X014417Y002644D01*
X014417Y002587D01*
X014360Y002530D01*
X014417Y002473D01*
X014417Y002417D01*
X014360Y002360D01*
X014247Y002360D01*
X014190Y002417D01*
X014303Y002530D02*
X014360Y002530D01*
X011917Y002587D02*
X011917Y002644D01*
X011860Y002700D01*
X011747Y002700D01*
X011690Y002644D01*
X011548Y002644D02*
X011548Y002417D01*
X011492Y002360D01*
X011322Y002360D01*
X011322Y002700D01*
X011492Y002700D01*
X011548Y002644D01*
X011690Y002360D02*
X011917Y002587D01*
X011917Y002360D02*
X011690Y002360D01*
X011180Y002360D02*
X010953Y002360D01*
X010953Y002700D01*
X011180Y002700D01*
X011067Y002530D02*
X010953Y002530D01*
X010812Y002360D02*
X010585Y002360D01*
X010585Y002700D01*
X008900Y002674D02*
X008753Y002528D01*
X008753Y002601D02*
X008753Y002381D01*
X008900Y002381D02*
X008460Y002381D01*
X008460Y002601D01*
X008533Y002674D01*
X008680Y002674D01*
X008753Y002601D01*
X008900Y002214D02*
X008460Y002214D01*
X008460Y001920D02*
X008900Y001920D01*
X008753Y002067D01*
X008900Y002214D01*
X008460Y001754D02*
X008460Y001460D01*
X008900Y001460D01*
X008680Y001460D02*
X008680Y001607D01*
X007900Y001754D02*
X007753Y001607D01*
X007753Y001680D02*
X007753Y001460D01*
X007900Y001460D02*
X007460Y001460D01*
X007460Y001680D01*
X007533Y001754D01*
X007680Y001754D01*
X007753Y001680D01*
X007680Y001920D02*
X007680Y002067D01*
X007900Y001920D02*
X007900Y002214D01*
X007753Y002381D02*
X007900Y002528D01*
X007753Y002674D01*
X007460Y002674D01*
X007460Y002381D02*
X007753Y002381D01*
X007460Y002214D02*
X007460Y001920D01*
X007900Y001920D01*
X006900Y001920D02*
X006460Y001920D01*
X006900Y002214D01*
X006460Y002214D01*
X006460Y001754D02*
X006460Y001460D01*
X006900Y001460D01*
X006900Y001754D01*
X006680Y001607D02*
X006680Y001460D01*
X002470Y006960D02*
X002323Y007107D01*
X002397Y007107D02*
X002177Y007107D01*
X002177Y006960D02*
X002177Y007400D01*
X002397Y007400D01*
X002470Y007327D01*
X002470Y007180D01*
X002397Y007107D01*
X002010Y006960D02*
X001716Y006960D01*
X001716Y007400D01*
X002010Y007400D01*
X001863Y007180D02*
X001716Y007180D01*
X001549Y006960D02*
X001549Y007400D01*
X001403Y007107D02*
X001549Y006960D01*
X001403Y007107D02*
X001256Y006960D01*
X001256Y007400D01*
X001089Y007327D02*
X001016Y007400D01*
X000869Y007400D01*
X000795Y007327D01*
X000795Y007033D01*
X000869Y006960D01*
X001016Y006960D01*
X001089Y007033D01*
X001089Y007327D01*
X000629Y007327D02*
X000629Y007180D01*
X000555Y007107D01*
X000335Y007107D01*
X000335Y006960D02*
X000335Y007400D01*
X000555Y007400D01*
X000629Y007327D01*
X001960Y007780D02*
X002387Y007780D01*
X004530Y013980D02*
X004630Y014080D01*
X004680Y015230D01*
D11*
X001952Y012930D02*
X001365Y012930D01*
X001659Y013224D02*
X001659Y012637D01*
X013365Y012930D02*
X013952Y012930D01*
X013659Y012637D02*
X013659Y013224D01*
D12*
X008947Y021305D02*
X008380Y021305D01*
X006947Y021305D02*
X006380Y021305D01*
X006664Y021022D02*
X006664Y021589D01*
D13*
X003230Y018180D03*
X002130Y016680D03*
X012130Y016680D03*
X013230Y018180D03*
D14*
X013855Y018180D03*
X013855Y016680D03*
X011505Y016680D03*
X011505Y018180D03*
X003855Y018180D03*
X003855Y016680D03*
X001505Y016680D03*
X001505Y018180D03*
D15*
X001413Y017755D02*
X001413Y017475D01*
X001320Y017475D02*
X001506Y017475D01*
X001320Y017662D02*
X001413Y017755D01*
X001212Y017709D02*
X001165Y017755D01*
X001025Y017755D01*
X001025Y017475D01*
X001165Y017475D01*
X001212Y017522D01*
X001212Y017709D01*
X001165Y016255D02*
X001025Y016255D01*
X001025Y015975D01*
X001165Y015975D01*
X001212Y016022D01*
X001212Y016209D01*
X001165Y016255D01*
X001320Y016209D02*
X001366Y016255D01*
X001460Y016255D01*
X001506Y016209D01*
X001506Y016162D01*
X001320Y015975D01*
X001506Y015975D01*
X001825Y013855D02*
X002012Y013855D01*
X001918Y013855D02*
X001918Y013575D01*
X002120Y013575D02*
X002213Y013575D01*
X002166Y013575D02*
X002166Y013855D01*
X002120Y013855D02*
X002213Y013855D01*
X002316Y013855D02*
X002316Y013575D01*
X002316Y013668D02*
X002456Y013668D01*
X002503Y013715D01*
X002503Y013809D01*
X002456Y013855D01*
X002316Y013855D01*
X002611Y013762D02*
X002704Y013855D01*
X002704Y013575D01*
X002611Y013575D02*
X002798Y013575D01*
X002905Y013622D02*
X003092Y013809D01*
X003092Y013622D01*
X003046Y013575D01*
X002952Y013575D01*
X002905Y013622D01*
X002905Y013809D01*
X002952Y013855D01*
X003046Y013855D01*
X003092Y013809D01*
X003200Y013855D02*
X003387Y013855D01*
X003387Y013809D01*
X003200Y013622D01*
X003200Y013575D01*
X003650Y015850D02*
X003837Y015850D01*
X003743Y015850D02*
X003743Y016130D01*
X003650Y016037D01*
X003945Y016130D02*
X003945Y015850D01*
X004131Y015850D02*
X003945Y016130D01*
X004131Y016130D02*
X004131Y015850D01*
X004239Y015990D02*
X004426Y015990D01*
X004534Y016037D02*
X004581Y015990D01*
X004721Y015990D01*
X004721Y015897D02*
X004721Y016084D01*
X004674Y016130D01*
X004581Y016130D01*
X004534Y016084D01*
X004534Y016037D01*
X004534Y015897D02*
X004581Y015850D01*
X004674Y015850D01*
X004721Y015897D01*
X004829Y015897D02*
X004875Y015850D01*
X004969Y015850D01*
X005015Y015897D01*
X005015Y015943D01*
X004969Y015990D01*
X004922Y015990D01*
X004969Y015990D02*
X005015Y016037D01*
X005015Y016084D01*
X004969Y016130D01*
X004875Y016130D01*
X004829Y016084D01*
X005123Y016084D02*
X005170Y016130D01*
X005263Y016130D01*
X005310Y016084D01*
X005310Y016037D01*
X005263Y015990D01*
X005310Y015943D01*
X005310Y015897D01*
X005263Y015850D01*
X005170Y015850D01*
X005123Y015897D01*
X005217Y015990D02*
X005263Y015990D01*
X005263Y017350D02*
X005170Y017350D01*
X005123Y017397D01*
X005015Y017397D02*
X004969Y017350D01*
X004875Y017350D01*
X004829Y017397D01*
X004721Y017397D02*
X004721Y017584D01*
X004674Y017630D01*
X004581Y017630D01*
X004534Y017584D01*
X004534Y017537D01*
X004581Y017490D01*
X004721Y017490D01*
X004721Y017397D02*
X004674Y017350D01*
X004581Y017350D01*
X004534Y017397D01*
X004426Y017490D02*
X004239Y017490D01*
X004379Y017630D01*
X004379Y017350D01*
X004131Y017350D02*
X004131Y017630D01*
X003945Y017630D02*
X003945Y017350D01*
X003837Y017350D02*
X003650Y017350D01*
X003743Y017350D02*
X003743Y017630D01*
X003650Y017537D01*
X003945Y017630D02*
X004131Y017350D01*
X004829Y017584D02*
X004875Y017630D01*
X004969Y017630D01*
X005015Y017584D01*
X005015Y017537D01*
X004969Y017490D01*
X005015Y017443D01*
X005015Y017397D01*
X004969Y017490D02*
X004922Y017490D01*
X005123Y017584D02*
X005170Y017630D01*
X005263Y017630D01*
X005310Y017584D01*
X005310Y017537D01*
X005263Y017490D01*
X005310Y017443D01*
X005310Y017397D01*
X005263Y017350D01*
X005263Y017490D02*
X005217Y017490D01*
X004379Y016130D02*
X004239Y015990D01*
X004379Y015850D02*
X004379Y016130D01*
X006700Y018825D02*
X006700Y019105D01*
X006840Y019105D01*
X006887Y019059D01*
X006887Y018965D01*
X006840Y018918D01*
X006700Y018918D01*
X006793Y018918D02*
X006887Y018825D01*
X006995Y018825D02*
X007181Y018825D01*
X007088Y018825D02*
X007088Y019105D01*
X006995Y019012D01*
X008011Y018967D02*
X008104Y019060D01*
X008104Y018780D01*
X008011Y018780D02*
X008198Y018780D01*
X008305Y018780D02*
X008305Y019060D01*
X008352Y018920D02*
X008492Y018780D01*
X008305Y018873D02*
X008492Y019060D01*
X010950Y021117D02*
X010997Y021070D01*
X011090Y021070D01*
X011137Y021117D01*
X011137Y021304D01*
X011090Y021350D01*
X010997Y021350D01*
X010950Y021304D01*
X010950Y021117D01*
X011043Y021163D02*
X011137Y021070D01*
X011245Y021070D02*
X011431Y021257D01*
X011431Y021304D01*
X011385Y021350D01*
X011291Y021350D01*
X011245Y021304D01*
X011245Y021070D02*
X011431Y021070D01*
X011950Y021355D02*
X012137Y021355D01*
X012043Y021355D02*
X012043Y021075D01*
X012245Y021075D02*
X012338Y021075D01*
X012291Y021075D02*
X012291Y021355D01*
X012245Y021355D02*
X012338Y021355D01*
X012441Y021355D02*
X012581Y021355D01*
X012628Y021309D01*
X012628Y021215D01*
X012581Y021168D01*
X012441Y021168D01*
X012441Y021075D02*
X012441Y021355D01*
X012736Y021262D02*
X012829Y021355D01*
X012829Y021075D01*
X012736Y021075D02*
X012923Y021075D01*
X013030Y021122D02*
X013217Y021309D01*
X013217Y021122D01*
X013171Y021075D01*
X013077Y021075D01*
X013030Y021122D01*
X013030Y021309D01*
X013077Y021355D01*
X013171Y021355D01*
X013217Y021309D01*
X013325Y021309D02*
X013372Y021355D01*
X013465Y021355D01*
X013512Y021309D01*
X013512Y021262D01*
X013325Y021075D01*
X013512Y021075D01*
X011585Y017880D02*
X011491Y017880D01*
X011445Y017834D01*
X011337Y017834D02*
X011337Y017647D01*
X011290Y017600D01*
X011150Y017600D01*
X011150Y017880D01*
X011290Y017880D01*
X011337Y017834D01*
X011445Y017647D02*
X011491Y017600D01*
X011585Y017600D01*
X011631Y017647D01*
X011631Y017693D01*
X011585Y017740D01*
X011538Y017740D01*
X011585Y017740D02*
X011631Y017787D01*
X011631Y017834D01*
X011585Y017880D01*
X011585Y016380D02*
X011445Y016240D01*
X011631Y016240D01*
X011585Y016100D02*
X011585Y016380D01*
X011337Y016334D02*
X011337Y016147D01*
X011290Y016100D01*
X011150Y016100D01*
X011150Y016380D01*
X011290Y016380D01*
X011337Y016334D01*
X011385Y013850D02*
X011245Y013710D01*
X011431Y013710D01*
X011385Y013570D02*
X011385Y013850D01*
X011137Y013804D02*
X011137Y013617D01*
X011090Y013570D01*
X010997Y013570D01*
X010950Y013617D01*
X010950Y013804D01*
X010997Y013850D01*
X011090Y013850D01*
X011137Y013804D01*
X011043Y013663D02*
X011137Y013570D01*
X011950Y013855D02*
X012137Y013855D01*
X012043Y013855D02*
X012043Y013575D01*
X012245Y013575D02*
X012338Y013575D01*
X012291Y013575D02*
X012291Y013855D01*
X012245Y013855D02*
X012338Y013855D01*
X012441Y013855D02*
X012581Y013855D01*
X012628Y013809D01*
X012628Y013715D01*
X012581Y013668D01*
X012441Y013668D01*
X012441Y013575D02*
X012441Y013855D01*
X012736Y013762D02*
X012829Y013855D01*
X012829Y013575D01*
X012736Y013575D02*
X012923Y013575D01*
X013030Y013622D02*
X013217Y013809D01*
X013217Y013622D01*
X013171Y013575D01*
X013077Y013575D01*
X013030Y013622D01*
X013030Y013809D01*
X013077Y013855D01*
X013171Y013855D01*
X013217Y013809D01*
X013325Y013809D02*
X013372Y013855D01*
X013465Y013855D01*
X013512Y013809D01*
X013512Y013762D01*
X013325Y013575D01*
X013512Y013575D01*
X013493Y015850D02*
X013493Y016130D01*
X013400Y016037D01*
X013400Y015850D02*
X013587Y015850D01*
X013695Y015850D02*
X013695Y016130D01*
X013881Y015850D01*
X013881Y016130D01*
X013989Y015990D02*
X014176Y015990D01*
X014284Y016037D02*
X014331Y015990D01*
X014471Y015990D01*
X014471Y015897D02*
X014471Y016084D01*
X014424Y016130D01*
X014331Y016130D01*
X014284Y016084D01*
X014284Y016037D01*
X014284Y015897D02*
X014331Y015850D01*
X014424Y015850D01*
X014471Y015897D01*
X014579Y015897D02*
X014625Y015850D01*
X014719Y015850D01*
X014765Y015897D01*
X014765Y015943D01*
X014719Y015990D01*
X014672Y015990D01*
X014719Y015990D02*
X014765Y016037D01*
X014765Y016084D01*
X014719Y016130D01*
X014625Y016130D01*
X014579Y016084D01*
X014873Y016084D02*
X014920Y016130D01*
X015013Y016130D01*
X015060Y016084D01*
X015060Y016037D01*
X015013Y015990D01*
X015060Y015943D01*
X015060Y015897D01*
X015013Y015850D01*
X014920Y015850D01*
X014873Y015897D01*
X014967Y015990D02*
X015013Y015990D01*
X015013Y017350D02*
X014920Y017350D01*
X014873Y017397D01*
X014765Y017397D02*
X014719Y017350D01*
X014625Y017350D01*
X014579Y017397D01*
X014471Y017397D02*
X014471Y017584D01*
X014424Y017630D01*
X014331Y017630D01*
X014284Y017584D01*
X014284Y017537D01*
X014331Y017490D01*
X014471Y017490D01*
X014471Y017397D02*
X014424Y017350D01*
X014331Y017350D01*
X014284Y017397D01*
X014176Y017490D02*
X013989Y017490D01*
X014129Y017630D01*
X014129Y017350D01*
X013881Y017350D02*
X013881Y017630D01*
X013695Y017630D02*
X013695Y017350D01*
X013587Y017350D02*
X013400Y017350D01*
X013493Y017350D02*
X013493Y017630D01*
X013400Y017537D01*
X013695Y017630D02*
X013881Y017350D01*
X014579Y017584D02*
X014625Y017630D01*
X014719Y017630D01*
X014765Y017584D01*
X014765Y017537D01*
X014719Y017490D01*
X014765Y017443D01*
X014765Y017397D01*
X014719Y017490D02*
X014672Y017490D01*
X014873Y017584D02*
X014920Y017630D01*
X015013Y017630D01*
X015060Y017584D01*
X015060Y017537D01*
X015013Y017490D01*
X015060Y017443D01*
X015060Y017397D01*
X015013Y017350D01*
X015013Y017490D02*
X014967Y017490D01*
X014129Y016130D02*
X014129Y015850D01*
X013989Y015990D02*
X014129Y016130D01*
X003512Y021309D02*
X003325Y021122D01*
X003325Y021075D01*
X003217Y021122D02*
X003217Y021309D01*
X003030Y021122D01*
X003077Y021075D01*
X003171Y021075D01*
X003217Y021122D01*
X003217Y021309D02*
X003171Y021355D01*
X003077Y021355D01*
X003030Y021309D01*
X003030Y021122D01*
X002923Y021075D02*
X002736Y021075D01*
X002829Y021075D02*
X002829Y021355D01*
X002736Y021262D01*
X002628Y021309D02*
X002628Y021215D01*
X002581Y021168D01*
X002441Y021168D01*
X002441Y021075D02*
X002441Y021355D01*
X002581Y021355D01*
X002628Y021309D01*
X002338Y021355D02*
X002245Y021355D01*
X002291Y021355D02*
X002291Y021075D01*
X002245Y021075D02*
X002338Y021075D01*
X002043Y021075D02*
X002043Y021355D01*
X001950Y021355D02*
X002137Y021355D01*
X001431Y021304D02*
X001431Y021257D01*
X001385Y021210D01*
X001431Y021163D01*
X001431Y021117D01*
X001385Y021070D01*
X001291Y021070D01*
X001245Y021117D01*
X001137Y021117D02*
X001137Y021304D01*
X001090Y021350D01*
X000997Y021350D01*
X000950Y021304D01*
X000950Y021117D01*
X000997Y021070D01*
X001090Y021070D01*
X001137Y021117D01*
X001137Y021070D02*
X001043Y021163D01*
X001245Y021304D02*
X001291Y021350D01*
X001385Y021350D01*
X001431Y021304D01*
X001385Y021210D02*
X001338Y021210D01*
X003325Y021355D02*
X003512Y021355D01*
X003512Y021309D01*
X001088Y013850D02*
X000995Y013757D01*
X000887Y013804D02*
X000887Y013617D01*
X000840Y013570D01*
X000747Y013570D01*
X000700Y013617D01*
X000700Y013804D01*
X000747Y013850D01*
X000840Y013850D01*
X000887Y013804D01*
X000793Y013663D02*
X000887Y013570D01*
X000995Y013570D02*
X001181Y013570D01*
X001088Y013570D02*
X001088Y013850D01*
D16*
X000151Y012369D02*
X002711Y012369D01*
X002711Y007960D01*
X000151Y007960D01*
X000151Y012369D01*
X002711Y012369D02*
X003104Y012369D01*
X003104Y007960D01*
X002711Y007960D01*
X001430Y005680D02*
X000930Y005680D01*
X000400Y005180D02*
X000402Y005251D01*
X000408Y005322D01*
X000418Y005393D01*
X000432Y005462D01*
X000449Y005531D01*
X000471Y005599D01*
X000496Y005666D01*
X000525Y005731D01*
X000557Y005794D01*
X000593Y005856D01*
X000632Y005915D01*
X000675Y005972D01*
X000720Y006027D01*
X000769Y006079D01*
X000820Y006128D01*
X000874Y006174D01*
X000931Y006218D01*
X000989Y006258D01*
X001050Y006294D01*
X001113Y006328D01*
X001178Y006357D01*
X001244Y006383D01*
X001312Y006406D01*
X001380Y006424D01*
X001450Y006439D01*
X001520Y006450D01*
X001591Y006457D01*
X001662Y006460D01*
X001733Y006459D01*
X001804Y006454D01*
X001875Y006445D01*
X001945Y006432D01*
X002014Y006416D01*
X002082Y006395D01*
X002149Y006371D01*
X002215Y006343D01*
X002278Y006311D01*
X002340Y006276D01*
X002400Y006238D01*
X002458Y006196D01*
X002513Y006152D01*
X002566Y006104D01*
X002616Y006053D01*
X002663Y006000D01*
X002707Y005944D01*
X002748Y005886D01*
X002786Y005825D01*
X002820Y005763D01*
X002850Y005698D01*
X002877Y005633D01*
X002901Y005565D01*
X002920Y005497D01*
X002936Y005428D01*
X002948Y005357D01*
X002956Y005287D01*
X002960Y005216D01*
X002960Y005144D01*
X002956Y005073D01*
X002948Y005003D01*
X002936Y004932D01*
X002920Y004863D01*
X002901Y004795D01*
X002877Y004727D01*
X002850Y004662D01*
X002820Y004597D01*
X002786Y004535D01*
X002748Y004474D01*
X002707Y004416D01*
X002663Y004360D01*
X002616Y004307D01*
X002566Y004256D01*
X002513Y004208D01*
X002458Y004164D01*
X002400Y004122D01*
X002340Y004084D01*
X002278Y004049D01*
X002215Y004017D01*
X002149Y003989D01*
X002082Y003965D01*
X002014Y003944D01*
X001945Y003928D01*
X001875Y003915D01*
X001804Y003906D01*
X001733Y003901D01*
X001662Y003900D01*
X001591Y003903D01*
X001520Y003910D01*
X001450Y003921D01*
X001380Y003936D01*
X001312Y003954D01*
X001244Y003977D01*
X001178Y004003D01*
X001113Y004032D01*
X001050Y004066D01*
X000989Y004102D01*
X000931Y004142D01*
X000874Y004186D01*
X000820Y004232D01*
X000769Y004281D01*
X000720Y004333D01*
X000675Y004388D01*
X000632Y004445D01*
X000593Y004504D01*
X000557Y004566D01*
X000525Y004629D01*
X000496Y004694D01*
X000471Y004761D01*
X000449Y004829D01*
X000432Y004898D01*
X000418Y004967D01*
X000408Y005038D01*
X000402Y005109D01*
X000400Y005180D01*
X006180Y000930D02*
X006180Y000430D01*
X006430Y000180D01*
X006930Y000180D01*
X007180Y000430D01*
X007430Y000180D01*
X007930Y000180D01*
X008180Y000430D01*
X008430Y000180D01*
X008930Y000180D01*
X009180Y000430D01*
X009180Y000930D01*
X008930Y001180D01*
X008430Y001180D01*
X008180Y000930D01*
X007930Y001180D01*
X007430Y001180D01*
X007180Y000930D01*
X006930Y001180D01*
X006430Y001180D01*
X006180Y000930D01*
X012256Y007991D02*
X012256Y012400D01*
X012649Y012400D01*
X012649Y007991D01*
X012256Y007991D01*
X012649Y007991D02*
X015209Y007991D01*
X015209Y012400D01*
X012649Y012400D01*
X008920Y019208D02*
X006440Y019208D01*
X006440Y020152D01*
X008920Y020152D01*
X008920Y019208D01*
X009869Y021881D02*
X005460Y021881D01*
X005460Y022274D01*
X009869Y022274D01*
X009869Y021881D01*
X009869Y022274D02*
X009869Y024834D01*
X005460Y024834D01*
X005460Y022274D01*
D17*
X002680Y019330D03*
X002680Y015530D03*
X012680Y015530D03*
X012680Y019330D03*
D18*
X010955Y019580D03*
X010955Y015280D03*
X014405Y015280D03*
X014405Y019580D03*
X004405Y019580D03*
X004405Y015280D03*
X000955Y015280D03*
X000955Y019580D03*
D19*
X002180Y019580D03*
X003180Y019580D03*
X003180Y015280D03*
X002180Y015280D03*
X012180Y015280D03*
X013180Y015280D03*
X013180Y019580D03*
X012180Y019580D03*
D20*
X007675Y013555D02*
X007442Y013322D01*
X007500Y013380D02*
X007675Y013205D01*
X007442Y013205D02*
X007442Y013555D01*
X007307Y013497D02*
X007307Y013263D01*
X007248Y013205D01*
X007132Y013205D01*
X007073Y013263D01*
X007307Y013497D01*
X007248Y013555D01*
X007132Y013555D01*
X007073Y013497D01*
X007073Y013263D01*
X006939Y013205D02*
X006705Y013205D01*
X006822Y013205D02*
X006822Y013555D01*
X006705Y013439D01*
X006822Y012055D02*
X006705Y011939D01*
X006822Y012055D02*
X006822Y011705D01*
X006705Y011705D02*
X006939Y011705D01*
X007073Y011705D02*
X007073Y012055D01*
X007132Y011880D02*
X007307Y011705D01*
X007073Y011822D02*
X007307Y012055D01*
X004675Y011997D02*
X004617Y012055D01*
X004500Y012055D01*
X004442Y011997D01*
X004307Y012055D02*
X004307Y011705D01*
X004073Y012055D01*
X004073Y011705D01*
X003939Y011705D02*
X003822Y011822D01*
X003880Y011822D02*
X003705Y011822D01*
X003705Y011705D02*
X003705Y012055D01*
X003880Y012055D01*
X003939Y011997D01*
X003939Y011880D01*
X003880Y011822D01*
X004442Y011705D02*
X004675Y011939D01*
X004675Y011997D01*
X004675Y011705D02*
X004442Y011705D01*
X003418Y011345D02*
X003418Y011005D01*
X003305Y011005D02*
X003532Y011005D01*
X003305Y011232D02*
X003418Y011345D01*
X003418Y012505D02*
X003418Y012845D01*
X003305Y012732D01*
X003305Y012505D02*
X003532Y012505D01*
X003705Y013205D02*
X003705Y013555D01*
X003880Y013555D01*
X003939Y013497D01*
X003939Y013380D01*
X003880Y013322D01*
X003705Y013322D01*
X003822Y013322D02*
X003939Y013205D01*
X004073Y013205D02*
X004073Y013555D01*
X004307Y013205D01*
X004307Y013555D01*
X004442Y013439D02*
X004558Y013555D01*
X004558Y013205D01*
X004442Y013205D02*
X004675Y013205D01*
X004617Y005555D02*
X004500Y005555D01*
X004442Y005497D01*
X004307Y005555D02*
X004307Y005205D01*
X004073Y005555D01*
X004073Y005205D01*
X003939Y005205D02*
X003822Y005322D01*
X003880Y005322D02*
X003705Y005322D01*
X003705Y005205D02*
X003705Y005555D01*
X003880Y005555D01*
X003939Y005497D01*
X003939Y005380D01*
X003880Y005322D01*
X004442Y005263D02*
X004500Y005205D01*
X004617Y005205D01*
X004675Y005263D01*
X004675Y005322D01*
X004617Y005380D01*
X004558Y005380D01*
X004617Y005380D02*
X004675Y005439D01*
X004675Y005497D01*
X004617Y005555D01*
X003912Y003980D02*
X003678Y003980D01*
X003678Y003630D01*
X003543Y003630D02*
X003543Y003864D01*
X003678Y003805D02*
X003795Y003805D01*
X003543Y003630D02*
X003368Y003630D01*
X003310Y003688D01*
X003310Y003864D01*
X003175Y003922D02*
X003175Y003688D01*
X003117Y003630D01*
X003000Y003630D01*
X002942Y003688D01*
X003175Y003922D01*
X003117Y003980D01*
X003000Y003980D01*
X002942Y003922D01*
X002942Y003688D01*
X002807Y003688D02*
X002807Y003922D01*
X002573Y003688D01*
X002632Y003630D01*
X002748Y003630D01*
X002807Y003688D01*
X002807Y003922D02*
X002748Y003980D01*
X002632Y003980D01*
X002573Y003922D01*
X002573Y003688D01*
X002439Y003630D02*
X002205Y003630D01*
X002322Y003630D02*
X002322Y003980D01*
X002205Y003864D01*
X003305Y004505D02*
X003532Y004505D01*
X003418Y004505D02*
X003418Y004845D01*
X003305Y004732D01*
X001007Y003605D02*
X000773Y003605D01*
X000890Y003605D02*
X000890Y003955D01*
X000773Y003839D01*
X000639Y003897D02*
X000580Y003955D01*
X000463Y003955D01*
X000405Y003897D01*
X000405Y003663D01*
X000463Y003605D01*
X000580Y003605D01*
X000639Y003663D01*
X006705Y005380D02*
X006939Y005380D01*
X007073Y005263D02*
X007073Y005205D01*
X007073Y005263D02*
X007307Y005497D01*
X007307Y005555D01*
X007073Y005555D01*
X006880Y005555D02*
X006880Y005205D01*
X006705Y005380D02*
X006880Y005555D01*
X007442Y005497D02*
X007442Y005263D01*
X007675Y005497D01*
X007675Y005263D01*
X007617Y005205D01*
X007500Y005205D01*
X007442Y005263D01*
X007442Y005497D02*
X007500Y005555D01*
X007617Y005555D01*
X007675Y005497D01*
D21*
X010757Y002161D02*
X010802Y002083D01*
X010801Y002083D02*
X010757Y002055D01*
X010715Y002024D01*
X010675Y001991D01*
X010637Y001955D01*
X010602Y001916D01*
X010570Y001875D01*
X010540Y001831D01*
X010514Y001786D01*
X010491Y001739D01*
X010471Y001691D01*
X010455Y001641D01*
X010442Y001591D01*
X010433Y001539D01*
X010427Y001487D01*
X010425Y001435D01*
X010336Y001434D01*
X010335Y001435D01*
X010337Y001490D01*
X010343Y001544D01*
X010352Y001599D01*
X010365Y001652D01*
X010381Y001704D01*
X010400Y001756D01*
X010423Y001806D01*
X010449Y001854D01*
X010478Y001901D01*
X010510Y001945D01*
X010545Y001988D01*
X010583Y002028D01*
X010623Y002065D01*
X010665Y002100D01*
X010710Y002132D01*
X010756Y002161D01*
X010761Y002153D01*
X010715Y002125D01*
X010671Y002093D01*
X010629Y002058D01*
X010589Y002021D01*
X010552Y001982D01*
X010517Y001940D01*
X010486Y001896D01*
X010457Y001850D01*
X010431Y001802D01*
X010409Y001752D01*
X010389Y001702D01*
X010373Y001650D01*
X010361Y001597D01*
X010352Y001543D01*
X010346Y001489D01*
X010344Y001435D01*
X010353Y001435D01*
X010355Y001489D01*
X010361Y001542D01*
X010370Y001595D01*
X010382Y001647D01*
X010398Y001699D01*
X010417Y001749D01*
X010439Y001798D01*
X010465Y001845D01*
X010493Y001891D01*
X010525Y001934D01*
X010559Y001976D01*
X010595Y002015D01*
X010635Y002052D01*
X010676Y002086D01*
X010720Y002117D01*
X010765Y002146D01*
X010770Y002138D01*
X010722Y002108D01*
X010676Y002074D01*
X010633Y002038D01*
X010592Y001998D01*
X010554Y001956D01*
X010519Y001912D01*
X010487Y001865D01*
X010459Y001816D01*
X010434Y001765D01*
X010412Y001712D01*
X010395Y001659D01*
X010381Y001604D01*
X010371Y001548D01*
X010364Y001492D01*
X010362Y001435D01*
X010371Y001435D01*
X010373Y001491D01*
X010379Y001547D01*
X010389Y001602D01*
X010403Y001656D01*
X010421Y001709D01*
X010442Y001761D01*
X010467Y001812D01*
X010495Y001860D01*
X010526Y001906D01*
X010561Y001951D01*
X010598Y001992D01*
X010639Y002031D01*
X010681Y002067D01*
X010727Y002100D01*
X010774Y002130D01*
X010779Y002122D01*
X010732Y002093D01*
X010687Y002060D01*
X010645Y002024D01*
X010605Y001986D01*
X010568Y001945D01*
X010533Y001901D01*
X010502Y001855D01*
X010475Y001807D01*
X010450Y001758D01*
X010429Y001706D01*
X010412Y001654D01*
X010398Y001600D01*
X010388Y001545D01*
X010382Y001490D01*
X010380Y001435D01*
X010389Y001435D01*
X010391Y001490D01*
X010397Y001544D01*
X010407Y001598D01*
X010421Y001651D01*
X010438Y001703D01*
X010458Y001754D01*
X010483Y001803D01*
X010510Y001850D01*
X010541Y001896D01*
X010574Y001939D01*
X010611Y001980D01*
X010651Y002018D01*
X010693Y002053D01*
X010737Y002085D01*
X010783Y002114D01*
X010788Y002106D01*
X010742Y002078D01*
X010698Y002046D01*
X010657Y002011D01*
X010618Y001973D01*
X010581Y001933D01*
X010548Y001891D01*
X010518Y001846D01*
X010490Y001799D01*
X010467Y001750D01*
X010446Y001700D01*
X010429Y001649D01*
X010416Y001596D01*
X010406Y001543D01*
X010400Y001489D01*
X010398Y001435D01*
X010407Y001435D01*
X010409Y001488D01*
X010415Y001542D01*
X010425Y001594D01*
X010438Y001646D01*
X010455Y001697D01*
X010475Y001747D01*
X010498Y001795D01*
X010525Y001841D01*
X010555Y001885D01*
X010588Y001927D01*
X010624Y001967D01*
X010663Y002004D01*
X010704Y002039D01*
X010747Y002070D01*
X010792Y002099D01*
X010797Y002091D01*
X010752Y002063D01*
X010709Y002032D01*
X010669Y001998D01*
X010631Y001961D01*
X010595Y001922D01*
X010563Y001880D01*
X010533Y001836D01*
X010506Y001790D01*
X010483Y001743D01*
X010463Y001694D01*
X010446Y001644D01*
X010433Y001592D01*
X010424Y001540D01*
X010418Y001488D01*
X010416Y001435D01*
X012024Y001435D02*
X011934Y001435D01*
X011935Y001435D02*
X011933Y001489D01*
X011927Y001542D01*
X011917Y001595D01*
X011903Y001647D01*
X011886Y001698D01*
X011865Y001747D01*
X011841Y001795D01*
X011813Y001841D01*
X011782Y001885D01*
X011748Y001927D01*
X011712Y001966D01*
X011672Y002003D01*
X011630Y002036D01*
X011586Y002067D01*
X011540Y002094D01*
X011582Y002173D01*
X011631Y002145D01*
X011677Y002113D01*
X011722Y002078D01*
X011764Y002041D01*
X011804Y002000D01*
X011840Y001957D01*
X011874Y001912D01*
X011905Y001865D01*
X011932Y001815D01*
X011956Y001764D01*
X011977Y001712D01*
X011994Y001658D01*
X012007Y001603D01*
X012017Y001548D01*
X012023Y001491D01*
X012025Y001435D01*
X012016Y001435D01*
X012014Y001491D01*
X012008Y001546D01*
X011998Y001601D01*
X011985Y001656D01*
X011968Y001709D01*
X011948Y001761D01*
X011924Y001811D01*
X011897Y001860D01*
X011867Y001907D01*
X011833Y001952D01*
X011797Y001994D01*
X011758Y002034D01*
X011716Y002071D01*
X011672Y002106D01*
X011626Y002137D01*
X011578Y002165D01*
X011574Y002157D01*
X011621Y002129D01*
X011667Y002098D01*
X011710Y002064D01*
X011752Y002028D01*
X011790Y001988D01*
X011826Y001946D01*
X011859Y001902D01*
X011889Y001856D01*
X011916Y001807D01*
X011939Y001757D01*
X011960Y001706D01*
X011976Y001653D01*
X011989Y001600D01*
X011999Y001545D01*
X012005Y001490D01*
X012007Y001435D01*
X011998Y001435D01*
X011996Y001490D01*
X011990Y001544D01*
X011981Y001598D01*
X011968Y001651D01*
X011951Y001703D01*
X011931Y001754D01*
X011908Y001803D01*
X011881Y001851D01*
X011852Y001897D01*
X011819Y001941D01*
X011784Y001982D01*
X011745Y002021D01*
X011705Y002058D01*
X011662Y002091D01*
X011616Y002122D01*
X011569Y002149D01*
X011565Y002141D01*
X011612Y002114D01*
X011656Y002084D01*
X011699Y002051D01*
X011739Y002015D01*
X011777Y001976D01*
X011812Y001935D01*
X011844Y001892D01*
X011874Y001846D01*
X011900Y001799D01*
X011923Y001750D01*
X011943Y001700D01*
X011959Y001648D01*
X011972Y001596D01*
X011981Y001543D01*
X011987Y001489D01*
X011989Y001435D01*
X011980Y001435D01*
X011978Y001488D01*
X011972Y001541D01*
X011963Y001594D01*
X011950Y001646D01*
X011934Y001697D01*
X011915Y001747D01*
X011892Y001795D01*
X011866Y001842D01*
X011837Y001886D01*
X011805Y001929D01*
X011770Y001970D01*
X011733Y002008D01*
X011693Y002044D01*
X011651Y002077D01*
X011607Y002107D01*
X011561Y002134D01*
X011557Y002126D01*
X011602Y002099D01*
X011646Y002069D01*
X011687Y002037D01*
X011727Y002002D01*
X011764Y001964D01*
X011798Y001924D01*
X011830Y001881D01*
X011858Y001837D01*
X011884Y001791D01*
X011906Y001743D01*
X011926Y001694D01*
X011942Y001644D01*
X011954Y001592D01*
X011963Y001540D01*
X011969Y001488D01*
X011971Y001435D01*
X011962Y001435D01*
X011960Y001491D01*
X011953Y001546D01*
X011943Y001601D01*
X011929Y001655D01*
X011911Y001707D01*
X011890Y001759D01*
X011864Y001808D01*
X011836Y001856D01*
X011804Y001902D01*
X011769Y001945D01*
X011731Y001985D01*
X011690Y002023D01*
X011646Y002058D01*
X011600Y002089D01*
X011552Y002118D01*
X011548Y002110D01*
X011596Y002082D01*
X011641Y002051D01*
X011684Y002016D01*
X011724Y001979D01*
X011762Y001939D01*
X011797Y001896D01*
X011828Y001851D01*
X011857Y001804D01*
X011881Y001755D01*
X011903Y001704D01*
X011920Y001652D01*
X011934Y001599D01*
X011944Y001545D01*
X011951Y001490D01*
X011953Y001435D01*
X011944Y001435D01*
X011942Y001489D01*
X011936Y001543D01*
X011926Y001597D01*
X011912Y001649D01*
X011894Y001701D01*
X011873Y001751D01*
X011849Y001800D01*
X011821Y001846D01*
X011789Y001891D01*
X011755Y001933D01*
X011718Y001972D01*
X011678Y002009D01*
X011636Y002043D01*
X011591Y002074D01*
X011544Y002102D01*
X011724Y000785D02*
X011667Y000854D01*
X011667Y000853D02*
X011707Y000890D01*
X011745Y000929D01*
X011779Y000971D01*
X011811Y001015D01*
X011839Y001061D01*
X011864Y001110D01*
X011885Y001160D01*
X011903Y001211D01*
X011916Y001264D01*
X011926Y001317D01*
X011933Y001371D01*
X011935Y001425D01*
X012024Y001426D01*
X012025Y001425D01*
X012023Y001369D01*
X012017Y001313D01*
X012007Y001258D01*
X011994Y001203D01*
X011977Y001150D01*
X011957Y001097D01*
X011933Y001046D01*
X011906Y000997D01*
X011875Y000950D01*
X011842Y000905D01*
X011806Y000862D01*
X011767Y000822D01*
X011725Y000784D01*
X011719Y000791D01*
X011760Y000828D01*
X011799Y000868D01*
X011835Y000910D01*
X011868Y000955D01*
X011898Y001002D01*
X011925Y001050D01*
X011948Y001101D01*
X011969Y001153D01*
X011985Y001206D01*
X011998Y001260D01*
X012008Y001314D01*
X012014Y001369D01*
X012016Y001425D01*
X012007Y001425D01*
X012005Y001370D01*
X011999Y001315D01*
X011990Y001261D01*
X011977Y001208D01*
X011960Y001156D01*
X011940Y001104D01*
X011917Y001055D01*
X011890Y001006D01*
X011861Y000960D01*
X011828Y000916D01*
X011792Y000874D01*
X011754Y000835D01*
X011713Y000798D01*
X011708Y000805D01*
X011748Y000841D01*
X011786Y000880D01*
X011821Y000922D01*
X011853Y000965D01*
X011883Y001011D01*
X011909Y001059D01*
X011932Y001108D01*
X011952Y001158D01*
X011968Y001210D01*
X011981Y001263D01*
X011990Y001317D01*
X011996Y001371D01*
X011998Y001425D01*
X011989Y001425D01*
X011987Y001371D01*
X011981Y001318D01*
X011972Y001265D01*
X011959Y001213D01*
X011943Y001161D01*
X011924Y001111D01*
X011901Y001063D01*
X011875Y001016D01*
X011846Y000970D01*
X011814Y000927D01*
X011779Y000886D01*
X011742Y000848D01*
X011702Y000812D01*
X011696Y000819D01*
X011735Y000854D01*
X011772Y000892D01*
X011807Y000933D01*
X011838Y000976D01*
X011867Y001020D01*
X011893Y001067D01*
X011915Y001115D01*
X011935Y001164D01*
X011951Y001215D01*
X011963Y001267D01*
X011972Y001319D01*
X011978Y001372D01*
X011980Y001425D01*
X011971Y001425D01*
X011969Y001373D01*
X011963Y001320D01*
X011954Y001269D01*
X011942Y001218D01*
X011926Y001167D01*
X011907Y001118D01*
X011885Y001071D01*
X011859Y001025D01*
X011831Y000981D01*
X011800Y000939D01*
X011766Y000898D01*
X011729Y000861D01*
X011690Y000826D01*
X011684Y000832D01*
X011723Y000867D01*
X011759Y000905D01*
X011793Y000944D01*
X011824Y000986D01*
X011852Y001030D01*
X011877Y001075D01*
X011899Y001122D01*
X011918Y001170D01*
X011933Y001220D01*
X011946Y001270D01*
X011954Y001322D01*
X011960Y001373D01*
X011962Y001425D01*
X011953Y001425D01*
X011951Y001374D01*
X011946Y001323D01*
X011937Y001272D01*
X011925Y001222D01*
X011909Y001173D01*
X011891Y001126D01*
X011869Y001079D01*
X011844Y001034D01*
X011816Y000991D01*
X011786Y000950D01*
X011753Y000911D01*
X011717Y000874D01*
X011679Y000839D01*
X011673Y000846D01*
X011714Y000883D01*
X011752Y000923D01*
X011786Y000965D01*
X011818Y001010D01*
X011847Y001057D01*
X011872Y001106D01*
X011893Y001157D01*
X011911Y001208D01*
X011925Y001262D01*
X011935Y001316D01*
X011942Y001370D01*
X011944Y001425D01*
X010336Y001426D02*
X010426Y001426D01*
X010425Y001425D02*
X010427Y001371D01*
X010433Y001318D01*
X010443Y001265D01*
X010457Y001213D01*
X010474Y001162D01*
X010495Y001112D01*
X010519Y001064D01*
X010547Y001018D01*
X010578Y000974D01*
X010612Y000933D01*
X010649Y000893D01*
X010688Y000857D01*
X010631Y000789D01*
X010630Y000788D01*
X010589Y000826D01*
X010551Y000866D01*
X010515Y000909D01*
X010482Y000954D01*
X010452Y001001D01*
X010426Y001049D01*
X010402Y001100D01*
X010382Y001152D01*
X010366Y001205D01*
X010352Y001259D01*
X010343Y001314D01*
X010337Y001369D01*
X010335Y001425D01*
X010344Y001425D01*
X010346Y001370D01*
X010352Y001315D01*
X010361Y001261D01*
X010374Y001207D01*
X010391Y001155D01*
X010410Y001103D01*
X010434Y001053D01*
X010460Y001005D01*
X010490Y000959D01*
X010522Y000914D01*
X010557Y000872D01*
X010596Y000832D01*
X010636Y000795D01*
X010642Y000802D01*
X010602Y000839D01*
X010564Y000878D01*
X010529Y000920D01*
X010497Y000964D01*
X010468Y001010D01*
X010442Y001058D01*
X010419Y001107D01*
X010399Y001158D01*
X010383Y001210D01*
X010370Y001263D01*
X010361Y001316D01*
X010355Y001371D01*
X010353Y001425D01*
X010362Y001425D01*
X010364Y001371D01*
X010370Y001318D01*
X010379Y001265D01*
X010392Y001212D01*
X010408Y001161D01*
X010427Y001110D01*
X010450Y001062D01*
X010475Y001014D01*
X010504Y000969D01*
X010536Y000925D01*
X010571Y000884D01*
X010608Y000845D01*
X010648Y000809D01*
X010654Y000816D01*
X010614Y000852D01*
X010577Y000890D01*
X010543Y000931D01*
X010512Y000974D01*
X010483Y001019D01*
X010458Y001066D01*
X010435Y001114D01*
X010416Y001164D01*
X010400Y001215D01*
X010388Y001266D01*
X010379Y001319D01*
X010373Y001372D01*
X010371Y001425D01*
X010380Y001425D01*
X010382Y001372D01*
X010388Y001320D01*
X010397Y001268D01*
X010409Y001217D01*
X010425Y001167D01*
X010444Y001117D01*
X010466Y001070D01*
X010491Y001023D01*
X010519Y000979D01*
X010550Y000937D01*
X010584Y000896D01*
X010621Y000858D01*
X010659Y000823D01*
X010665Y000829D01*
X010627Y000865D01*
X010591Y000902D01*
X010557Y000942D01*
X010527Y000984D01*
X010499Y001028D01*
X010474Y001074D01*
X010452Y001121D01*
X010433Y001170D01*
X010418Y001219D01*
X010405Y001270D01*
X010397Y001321D01*
X010391Y001373D01*
X010389Y001425D01*
X010398Y001425D01*
X010400Y001369D01*
X010407Y001314D01*
X010417Y001259D01*
X010431Y001205D01*
X010449Y001152D01*
X010471Y001101D01*
X010496Y001051D01*
X010525Y001003D01*
X010557Y000958D01*
X010592Y000915D01*
X010630Y000874D01*
X010671Y000836D01*
X010677Y000843D01*
X010636Y000880D01*
X010599Y000921D01*
X010564Y000963D01*
X010532Y001008D01*
X010504Y001056D01*
X010479Y001105D01*
X010457Y001156D01*
X010440Y001208D01*
X010426Y001261D01*
X010416Y001315D01*
X010409Y001370D01*
X010407Y001425D01*
X010416Y001425D01*
X010418Y001371D01*
X010424Y001317D01*
X010434Y001263D01*
X010448Y001210D01*
X010466Y001159D01*
X010487Y001109D01*
X010512Y001060D01*
X010540Y001013D01*
X010571Y000969D01*
X010605Y000927D01*
X010643Y000887D01*
X010683Y000850D01*
X014524Y001435D02*
X014434Y001435D01*
X014435Y001435D02*
X014433Y001489D01*
X014427Y001542D01*
X014417Y001595D01*
X014403Y001647D01*
X014386Y001698D01*
X014365Y001747D01*
X014341Y001795D01*
X014313Y001841D01*
X014282Y001885D01*
X014248Y001927D01*
X014212Y001966D01*
X014172Y002003D01*
X014130Y002036D01*
X014086Y002067D01*
X014040Y002094D01*
X014082Y002173D01*
X014131Y002145D01*
X014177Y002113D01*
X014222Y002078D01*
X014264Y002041D01*
X014304Y002000D01*
X014340Y001957D01*
X014374Y001912D01*
X014405Y001865D01*
X014432Y001815D01*
X014456Y001764D01*
X014477Y001712D01*
X014494Y001658D01*
X014507Y001603D01*
X014517Y001548D01*
X014523Y001491D01*
X014525Y001435D01*
X014516Y001435D01*
X014514Y001491D01*
X014508Y001546D01*
X014498Y001601D01*
X014485Y001656D01*
X014468Y001709D01*
X014448Y001761D01*
X014424Y001811D01*
X014397Y001860D01*
X014367Y001907D01*
X014333Y001952D01*
X014297Y001994D01*
X014258Y002034D01*
X014216Y002071D01*
X014172Y002106D01*
X014126Y002137D01*
X014078Y002165D01*
X014074Y002157D01*
X014121Y002129D01*
X014167Y002098D01*
X014210Y002064D01*
X014252Y002028D01*
X014290Y001988D01*
X014326Y001946D01*
X014359Y001902D01*
X014389Y001856D01*
X014416Y001807D01*
X014439Y001757D01*
X014460Y001706D01*
X014476Y001653D01*
X014489Y001600D01*
X014499Y001545D01*
X014505Y001490D01*
X014507Y001435D01*
X014498Y001435D01*
X014496Y001490D01*
X014490Y001544D01*
X014481Y001598D01*
X014468Y001651D01*
X014451Y001703D01*
X014431Y001754D01*
X014408Y001803D01*
X014381Y001851D01*
X014352Y001897D01*
X014319Y001941D01*
X014284Y001982D01*
X014245Y002021D01*
X014205Y002058D01*
X014162Y002091D01*
X014116Y002122D01*
X014069Y002149D01*
X014065Y002141D01*
X014112Y002114D01*
X014156Y002084D01*
X014199Y002051D01*
X014239Y002015D01*
X014277Y001976D01*
X014312Y001935D01*
X014344Y001892D01*
X014374Y001846D01*
X014400Y001799D01*
X014423Y001750D01*
X014443Y001700D01*
X014459Y001648D01*
X014472Y001596D01*
X014481Y001543D01*
X014487Y001489D01*
X014489Y001435D01*
X014480Y001435D01*
X014478Y001488D01*
X014472Y001541D01*
X014463Y001594D01*
X014450Y001646D01*
X014434Y001697D01*
X014415Y001747D01*
X014392Y001795D01*
X014366Y001842D01*
X014337Y001886D01*
X014305Y001929D01*
X014270Y001970D01*
X014233Y002008D01*
X014193Y002044D01*
X014151Y002077D01*
X014107Y002107D01*
X014061Y002134D01*
X014057Y002126D01*
X014102Y002099D01*
X014146Y002069D01*
X014187Y002037D01*
X014227Y002002D01*
X014264Y001964D01*
X014298Y001924D01*
X014330Y001881D01*
X014358Y001837D01*
X014384Y001791D01*
X014406Y001743D01*
X014426Y001694D01*
X014442Y001644D01*
X014454Y001592D01*
X014463Y001540D01*
X014469Y001488D01*
X014471Y001435D01*
X014462Y001435D01*
X014460Y001491D01*
X014453Y001546D01*
X014443Y001601D01*
X014429Y001655D01*
X014411Y001707D01*
X014390Y001759D01*
X014364Y001808D01*
X014336Y001856D01*
X014304Y001902D01*
X014269Y001945D01*
X014231Y001985D01*
X014190Y002023D01*
X014146Y002058D01*
X014100Y002089D01*
X014052Y002118D01*
X014048Y002110D01*
X014096Y002082D01*
X014141Y002051D01*
X014184Y002016D01*
X014224Y001979D01*
X014262Y001939D01*
X014297Y001896D01*
X014328Y001851D01*
X014357Y001804D01*
X014381Y001755D01*
X014403Y001704D01*
X014420Y001652D01*
X014434Y001599D01*
X014444Y001545D01*
X014451Y001490D01*
X014453Y001435D01*
X014444Y001435D01*
X014442Y001489D01*
X014436Y001543D01*
X014426Y001597D01*
X014412Y001649D01*
X014394Y001701D01*
X014373Y001751D01*
X014349Y001800D01*
X014321Y001846D01*
X014289Y001891D01*
X014255Y001933D01*
X014218Y001972D01*
X014178Y002009D01*
X014136Y002043D01*
X014091Y002074D01*
X014044Y002102D01*
X013257Y002161D02*
X013302Y002083D01*
X013301Y002083D02*
X013257Y002055D01*
X013215Y002024D01*
X013175Y001991D01*
X013137Y001955D01*
X013102Y001916D01*
X013070Y001875D01*
X013040Y001831D01*
X013014Y001786D01*
X012991Y001739D01*
X012971Y001691D01*
X012955Y001641D01*
X012942Y001591D01*
X012933Y001539D01*
X012927Y001487D01*
X012925Y001435D01*
X012836Y001434D01*
X012835Y001435D01*
X012837Y001490D01*
X012843Y001544D01*
X012852Y001599D01*
X012865Y001652D01*
X012881Y001704D01*
X012900Y001756D01*
X012923Y001806D01*
X012949Y001854D01*
X012978Y001901D01*
X013010Y001945D01*
X013045Y001988D01*
X013083Y002028D01*
X013123Y002065D01*
X013165Y002100D01*
X013210Y002132D01*
X013256Y002161D01*
X013261Y002153D01*
X013215Y002125D01*
X013171Y002093D01*
X013129Y002058D01*
X013089Y002021D01*
X013052Y001982D01*
X013017Y001940D01*
X012986Y001896D01*
X012957Y001850D01*
X012931Y001802D01*
X012909Y001752D01*
X012889Y001702D01*
X012873Y001650D01*
X012861Y001597D01*
X012852Y001543D01*
X012846Y001489D01*
X012844Y001435D01*
X012853Y001435D01*
X012855Y001489D01*
X012861Y001542D01*
X012870Y001595D01*
X012882Y001647D01*
X012898Y001699D01*
X012917Y001749D01*
X012939Y001798D01*
X012965Y001845D01*
X012993Y001891D01*
X013025Y001934D01*
X013059Y001976D01*
X013095Y002015D01*
X013135Y002052D01*
X013176Y002086D01*
X013220Y002117D01*
X013265Y002146D01*
X013270Y002138D01*
X013222Y002108D01*
X013176Y002074D01*
X013133Y002038D01*
X013092Y001998D01*
X013054Y001956D01*
X013019Y001912D01*
X012987Y001865D01*
X012959Y001816D01*
X012934Y001765D01*
X012912Y001712D01*
X012895Y001659D01*
X012881Y001604D01*
X012871Y001548D01*
X012864Y001492D01*
X012862Y001435D01*
X012871Y001435D01*
X012873Y001491D01*
X012879Y001547D01*
X012889Y001602D01*
X012903Y001656D01*
X012921Y001709D01*
X012942Y001761D01*
X012967Y001812D01*
X012995Y001860D01*
X013026Y001906D01*
X013061Y001951D01*
X013098Y001992D01*
X013139Y002031D01*
X013181Y002067D01*
X013227Y002100D01*
X013274Y002130D01*
X013279Y002122D01*
X013232Y002093D01*
X013187Y002060D01*
X013145Y002024D01*
X013105Y001986D01*
X013068Y001945D01*
X013033Y001901D01*
X013002Y001855D01*
X012975Y001807D01*
X012950Y001758D01*
X012929Y001706D01*
X012912Y001654D01*
X012898Y001600D01*
X012888Y001545D01*
X012882Y001490D01*
X012880Y001435D01*
X012889Y001435D01*
X012891Y001490D01*
X012897Y001544D01*
X012907Y001598D01*
X012921Y001651D01*
X012938Y001703D01*
X012958Y001754D01*
X012983Y001803D01*
X013010Y001850D01*
X013041Y001896D01*
X013074Y001939D01*
X013111Y001980D01*
X013151Y002018D01*
X013193Y002053D01*
X013237Y002085D01*
X013283Y002114D01*
X013288Y002106D01*
X013242Y002078D01*
X013198Y002046D01*
X013157Y002011D01*
X013118Y001973D01*
X013081Y001933D01*
X013048Y001891D01*
X013018Y001846D01*
X012990Y001799D01*
X012967Y001750D01*
X012946Y001700D01*
X012929Y001649D01*
X012916Y001596D01*
X012906Y001543D01*
X012900Y001489D01*
X012898Y001435D01*
X012907Y001435D01*
X012909Y001488D01*
X012915Y001542D01*
X012925Y001594D01*
X012938Y001646D01*
X012955Y001697D01*
X012975Y001747D01*
X012998Y001795D01*
X013025Y001841D01*
X013055Y001885D01*
X013088Y001927D01*
X013124Y001967D01*
X013163Y002004D01*
X013204Y002039D01*
X013247Y002070D01*
X013292Y002099D01*
X013297Y002091D01*
X013252Y002063D01*
X013209Y002032D01*
X013169Y001998D01*
X013131Y001961D01*
X013095Y001922D01*
X013063Y001880D01*
X013033Y001836D01*
X013006Y001790D01*
X012983Y001743D01*
X012963Y001694D01*
X012946Y001644D01*
X012933Y001592D01*
X012924Y001540D01*
X012918Y001488D01*
X012916Y001435D01*
X012836Y001426D02*
X012926Y001426D01*
X012925Y001425D02*
X012927Y001371D01*
X012933Y001318D01*
X012943Y001265D01*
X012957Y001213D01*
X012974Y001162D01*
X012995Y001112D01*
X013019Y001064D01*
X013047Y001018D01*
X013078Y000974D01*
X013112Y000933D01*
X013149Y000893D01*
X013188Y000857D01*
X013131Y000789D01*
X013130Y000788D01*
X013089Y000826D01*
X013051Y000866D01*
X013015Y000909D01*
X012982Y000954D01*
X012952Y001001D01*
X012926Y001049D01*
X012902Y001100D01*
X012882Y001152D01*
X012866Y001205D01*
X012852Y001259D01*
X012843Y001314D01*
X012837Y001369D01*
X012835Y001425D01*
X012844Y001425D01*
X012846Y001370D01*
X012852Y001315D01*
X012861Y001261D01*
X012874Y001207D01*
X012891Y001155D01*
X012910Y001103D01*
X012934Y001053D01*
X012960Y001005D01*
X012990Y000959D01*
X013022Y000914D01*
X013057Y000872D01*
X013096Y000832D01*
X013136Y000795D01*
X013142Y000802D01*
X013102Y000839D01*
X013064Y000878D01*
X013029Y000920D01*
X012997Y000964D01*
X012968Y001010D01*
X012942Y001058D01*
X012919Y001107D01*
X012899Y001158D01*
X012883Y001210D01*
X012870Y001263D01*
X012861Y001316D01*
X012855Y001371D01*
X012853Y001425D01*
X012862Y001425D01*
X012864Y001371D01*
X012870Y001318D01*
X012879Y001265D01*
X012892Y001212D01*
X012908Y001161D01*
X012927Y001110D01*
X012950Y001062D01*
X012975Y001014D01*
X013004Y000969D01*
X013036Y000925D01*
X013071Y000884D01*
X013108Y000845D01*
X013148Y000809D01*
X013154Y000816D01*
X013114Y000852D01*
X013077Y000890D01*
X013043Y000931D01*
X013012Y000974D01*
X012983Y001019D01*
X012958Y001066D01*
X012935Y001114D01*
X012916Y001164D01*
X012900Y001215D01*
X012888Y001266D01*
X012879Y001319D01*
X012873Y001372D01*
X012871Y001425D01*
X012880Y001425D01*
X012882Y001372D01*
X012888Y001320D01*
X012897Y001268D01*
X012909Y001217D01*
X012925Y001167D01*
X012944Y001117D01*
X012966Y001070D01*
X012991Y001023D01*
X013019Y000979D01*
X013050Y000937D01*
X013084Y000896D01*
X013121Y000858D01*
X013159Y000823D01*
X013165Y000829D01*
X013127Y000865D01*
X013091Y000902D01*
X013057Y000942D01*
X013027Y000984D01*
X012999Y001028D01*
X012974Y001074D01*
X012952Y001121D01*
X012933Y001170D01*
X012918Y001219D01*
X012905Y001270D01*
X012897Y001321D01*
X012891Y001373D01*
X012889Y001425D01*
X012898Y001425D01*
X012900Y001369D01*
X012907Y001314D01*
X012917Y001259D01*
X012931Y001205D01*
X012949Y001152D01*
X012971Y001101D01*
X012996Y001051D01*
X013025Y001003D01*
X013057Y000958D01*
X013092Y000915D01*
X013130Y000874D01*
X013171Y000836D01*
X013177Y000843D01*
X013136Y000880D01*
X013099Y000921D01*
X013064Y000963D01*
X013032Y001008D01*
X013004Y001056D01*
X012979Y001105D01*
X012957Y001156D01*
X012940Y001208D01*
X012926Y001261D01*
X012916Y001315D01*
X012909Y001370D01*
X012907Y001425D01*
X012916Y001425D01*
X012918Y001371D01*
X012924Y001317D01*
X012934Y001263D01*
X012948Y001210D01*
X012966Y001159D01*
X012987Y001109D01*
X013012Y001060D01*
X013040Y001013D01*
X013071Y000969D01*
X013105Y000927D01*
X013143Y000887D01*
X013183Y000850D01*
X014224Y000785D02*
X014167Y000854D01*
X014167Y000853D02*
X014207Y000890D01*
X014245Y000929D01*
X014279Y000971D01*
X014311Y001015D01*
X014339Y001061D01*
X014364Y001110D01*
X014385Y001160D01*
X014403Y001211D01*
X014416Y001264D01*
X014426Y001317D01*
X014433Y001371D01*
X014435Y001425D01*
X014524Y001426D01*
X014525Y001425D01*
X014523Y001369D01*
X014517Y001313D01*
X014507Y001258D01*
X014494Y001203D01*
X014477Y001150D01*
X014457Y001097D01*
X014433Y001046D01*
X014406Y000997D01*
X014375Y000950D01*
X014342Y000905D01*
X014306Y000862D01*
X014267Y000822D01*
X014225Y000784D01*
X014219Y000791D01*
X014260Y000828D01*
X014299Y000868D01*
X014335Y000910D01*
X014368Y000955D01*
X014398Y001002D01*
X014425Y001050D01*
X014448Y001101D01*
X014469Y001153D01*
X014485Y001206D01*
X014498Y001260D01*
X014508Y001314D01*
X014514Y001369D01*
X014516Y001425D01*
X014507Y001425D01*
X014505Y001370D01*
X014499Y001315D01*
X014490Y001261D01*
X014477Y001208D01*
X014460Y001156D01*
X014440Y001104D01*
X014417Y001055D01*
X014390Y001006D01*
X014361Y000960D01*
X014328Y000916D01*
X014292Y000874D01*
X014254Y000835D01*
X014213Y000798D01*
X014208Y000805D01*
X014248Y000841D01*
X014286Y000880D01*
X014321Y000922D01*
X014353Y000965D01*
X014383Y001011D01*
X014409Y001059D01*
X014432Y001108D01*
X014452Y001158D01*
X014468Y001210D01*
X014481Y001263D01*
X014490Y001317D01*
X014496Y001371D01*
X014498Y001425D01*
X014489Y001425D01*
X014487Y001371D01*
X014481Y001318D01*
X014472Y001265D01*
X014459Y001213D01*
X014443Y001161D01*
X014424Y001111D01*
X014401Y001063D01*
X014375Y001016D01*
X014346Y000970D01*
X014314Y000927D01*
X014279Y000886D01*
X014242Y000848D01*
X014202Y000812D01*
X014196Y000819D01*
X014235Y000854D01*
X014272Y000892D01*
X014307Y000933D01*
X014338Y000976D01*
X014367Y001020D01*
X014393Y001067D01*
X014415Y001115D01*
X014435Y001164D01*
X014451Y001215D01*
X014463Y001267D01*
X014472Y001319D01*
X014478Y001372D01*
X014480Y001425D01*
X014471Y001425D01*
X014469Y001373D01*
X014463Y001320D01*
X014454Y001269D01*
X014442Y001218D01*
X014426Y001167D01*
X014407Y001118D01*
X014385Y001071D01*
X014359Y001025D01*
X014331Y000981D01*
X014300Y000939D01*
X014266Y000898D01*
X014229Y000861D01*
X014190Y000826D01*
X014184Y000832D01*
X014223Y000867D01*
X014259Y000905D01*
X014293Y000944D01*
X014324Y000986D01*
X014352Y001030D01*
X014377Y001075D01*
X014399Y001122D01*
X014418Y001170D01*
X014433Y001220D01*
X014446Y001270D01*
X014454Y001322D01*
X014460Y001373D01*
X014462Y001425D01*
X014453Y001425D01*
X014451Y001374D01*
X014446Y001323D01*
X014437Y001272D01*
X014425Y001222D01*
X014409Y001173D01*
X014391Y001126D01*
X014369Y001079D01*
X014344Y001034D01*
X014316Y000991D01*
X014286Y000950D01*
X014253Y000911D01*
X014217Y000874D01*
X014179Y000839D01*
X014173Y000846D01*
X014214Y000883D01*
X014252Y000923D01*
X014286Y000965D01*
X014318Y001010D01*
X014347Y001057D01*
X014372Y001106D01*
X014393Y001157D01*
X014411Y001208D01*
X014425Y001262D01*
X014435Y001316D01*
X014442Y001370D01*
X014444Y001425D01*
X014560Y010801D02*
X014560Y010876D01*
X014585Y010901D01*
X014635Y010901D01*
X014660Y010876D01*
X014660Y010801D01*
X014710Y010801D02*
X014560Y010801D01*
X014585Y010948D02*
X014685Y010948D01*
X014710Y010973D01*
X014710Y011023D01*
X014685Y011048D01*
X014585Y011048D01*
X014560Y011023D01*
X014560Y010973D01*
X014585Y010948D01*
X014560Y011096D02*
X014710Y011096D01*
X014660Y011146D01*
X014710Y011196D01*
X014560Y011196D01*
X014560Y011243D02*
X014710Y011243D01*
X014710Y011343D01*
X014710Y011390D02*
X014560Y011390D01*
X014560Y011465D01*
X014585Y011490D01*
X014635Y011490D01*
X014660Y011465D01*
X014660Y011390D01*
X014660Y011440D02*
X014710Y011490D01*
X014710Y011538D02*
X014710Y011638D01*
X014710Y011588D02*
X014560Y011588D01*
X014610Y011538D01*
X014560Y011343D02*
X014560Y011243D01*
X014635Y011243D02*
X014635Y011293D01*
X014210Y011268D02*
X014185Y011243D01*
X014210Y011268D02*
X014210Y011318D01*
X014185Y011343D01*
X014135Y011343D01*
X014110Y011318D01*
X014110Y011293D01*
X014135Y011243D01*
X014060Y011243D01*
X014060Y011343D01*
X014060Y011390D02*
X014110Y011440D01*
X014060Y011490D01*
X014210Y011490D01*
X014210Y011538D02*
X014060Y011538D01*
X014110Y011588D01*
X014060Y011638D01*
X014210Y011638D01*
X014210Y011390D02*
X014060Y011390D01*
X014085Y011196D02*
X014060Y011171D01*
X014060Y011121D01*
X014085Y011096D01*
X014085Y011048D02*
X014185Y010948D01*
X014210Y010973D01*
X014210Y011023D01*
X014185Y011048D01*
X014085Y011048D01*
X014060Y011023D01*
X014060Y010973D01*
X014085Y010948D01*
X014185Y010948D01*
X014210Y010901D02*
X014060Y010901D01*
X014110Y010851D01*
X014060Y010801D01*
X014210Y010801D01*
X014210Y011096D02*
X014110Y011196D01*
X014085Y011196D01*
X014210Y011196D02*
X014210Y011096D01*
X009524Y016685D02*
X009434Y016685D01*
X009435Y016685D02*
X009433Y016739D01*
X009427Y016792D01*
X009417Y016845D01*
X009403Y016897D01*
X009386Y016948D01*
X009365Y016997D01*
X009341Y017045D01*
X009313Y017091D01*
X009282Y017135D01*
X009248Y017177D01*
X009212Y017216D01*
X009172Y017253D01*
X009130Y017286D01*
X009086Y017317D01*
X009040Y017344D01*
X009082Y017423D01*
X009131Y017395D01*
X009177Y017363D01*
X009222Y017328D01*
X009264Y017291D01*
X009304Y017250D01*
X009340Y017207D01*
X009374Y017162D01*
X009405Y017115D01*
X009432Y017065D01*
X009456Y017014D01*
X009477Y016962D01*
X009494Y016908D01*
X009507Y016853D01*
X009517Y016798D01*
X009523Y016741D01*
X009525Y016685D01*
X009516Y016685D01*
X009514Y016741D01*
X009508Y016796D01*
X009498Y016851D01*
X009485Y016906D01*
X009468Y016959D01*
X009448Y017011D01*
X009424Y017061D01*
X009397Y017110D01*
X009367Y017157D01*
X009333Y017202D01*
X009297Y017244D01*
X009258Y017284D01*
X009216Y017321D01*
X009172Y017356D01*
X009126Y017387D01*
X009078Y017415D01*
X009074Y017407D01*
X009121Y017379D01*
X009167Y017348D01*
X009210Y017314D01*
X009252Y017278D01*
X009290Y017238D01*
X009326Y017196D01*
X009359Y017152D01*
X009389Y017106D01*
X009416Y017057D01*
X009439Y017007D01*
X009460Y016956D01*
X009476Y016903D01*
X009489Y016850D01*
X009499Y016795D01*
X009505Y016740D01*
X009507Y016685D01*
X009498Y016685D01*
X009496Y016740D01*
X009490Y016794D01*
X009481Y016848D01*
X009468Y016901D01*
X009451Y016953D01*
X009431Y017004D01*
X009408Y017053D01*
X009381Y017101D01*
X009352Y017147D01*
X009319Y017191D01*
X009284Y017232D01*
X009245Y017271D01*
X009205Y017308D01*
X009162Y017341D01*
X009116Y017372D01*
X009069Y017399D01*
X009065Y017391D01*
X009112Y017364D01*
X009156Y017334D01*
X009199Y017301D01*
X009239Y017265D01*
X009277Y017226D01*
X009312Y017185D01*
X009344Y017142D01*
X009374Y017096D01*
X009400Y017049D01*
X009423Y017000D01*
X009443Y016950D01*
X009459Y016898D01*
X009472Y016846D01*
X009481Y016793D01*
X009487Y016739D01*
X009489Y016685D01*
X009480Y016685D01*
X009478Y016738D01*
X009472Y016791D01*
X009463Y016844D01*
X009450Y016896D01*
X009434Y016947D01*
X009415Y016997D01*
X009392Y017045D01*
X009366Y017092D01*
X009337Y017136D01*
X009305Y017179D01*
X009270Y017220D01*
X009233Y017258D01*
X009193Y017294D01*
X009151Y017327D01*
X009107Y017357D01*
X009061Y017384D01*
X009057Y017376D01*
X009102Y017349D01*
X009146Y017319D01*
X009187Y017287D01*
X009227Y017252D01*
X009264Y017214D01*
X009298Y017174D01*
X009330Y017131D01*
X009358Y017087D01*
X009384Y017041D01*
X009406Y016993D01*
X009426Y016944D01*
X009442Y016894D01*
X009454Y016842D01*
X009463Y016790D01*
X009469Y016738D01*
X009471Y016685D01*
X009462Y016685D01*
X009460Y016741D01*
X009453Y016796D01*
X009443Y016851D01*
X009429Y016905D01*
X009411Y016957D01*
X009390Y017009D01*
X009364Y017058D01*
X009336Y017106D01*
X009304Y017152D01*
X009269Y017195D01*
X009231Y017235D01*
X009190Y017273D01*
X009146Y017308D01*
X009100Y017339D01*
X009052Y017368D01*
X009048Y017360D01*
X009096Y017332D01*
X009141Y017301D01*
X009184Y017266D01*
X009224Y017229D01*
X009262Y017189D01*
X009297Y017146D01*
X009328Y017101D01*
X009357Y017054D01*
X009381Y017005D01*
X009403Y016954D01*
X009420Y016902D01*
X009434Y016849D01*
X009444Y016795D01*
X009451Y016740D01*
X009453Y016685D01*
X009444Y016685D01*
X009442Y016739D01*
X009436Y016793D01*
X009426Y016847D01*
X009412Y016899D01*
X009394Y016951D01*
X009373Y017001D01*
X009349Y017050D01*
X009321Y017096D01*
X009289Y017141D01*
X009255Y017183D01*
X009218Y017222D01*
X009178Y017259D01*
X009136Y017293D01*
X009091Y017324D01*
X009044Y017352D01*
X008257Y017411D02*
X008302Y017333D01*
X008301Y017333D02*
X008257Y017305D01*
X008215Y017274D01*
X008175Y017241D01*
X008137Y017205D01*
X008102Y017166D01*
X008070Y017125D01*
X008040Y017081D01*
X008014Y017036D01*
X007991Y016989D01*
X007971Y016941D01*
X007955Y016891D01*
X007942Y016841D01*
X007933Y016789D01*
X007927Y016737D01*
X007925Y016685D01*
X007836Y016684D01*
X007835Y016685D01*
X007837Y016740D01*
X007843Y016794D01*
X007852Y016849D01*
X007865Y016902D01*
X007881Y016954D01*
X007900Y017006D01*
X007923Y017056D01*
X007949Y017104D01*
X007978Y017151D01*
X008010Y017195D01*
X008045Y017238D01*
X008083Y017278D01*
X008123Y017315D01*
X008165Y017350D01*
X008210Y017382D01*
X008256Y017411D01*
X008261Y017403D01*
X008215Y017375D01*
X008171Y017343D01*
X008129Y017308D01*
X008089Y017271D01*
X008052Y017232D01*
X008017Y017190D01*
X007986Y017146D01*
X007957Y017100D01*
X007931Y017052D01*
X007909Y017002D01*
X007889Y016952D01*
X007873Y016900D01*
X007861Y016847D01*
X007852Y016793D01*
X007846Y016739D01*
X007844Y016685D01*
X007853Y016685D01*
X007855Y016739D01*
X007861Y016792D01*
X007870Y016845D01*
X007882Y016897D01*
X007898Y016949D01*
X007917Y016999D01*
X007939Y017048D01*
X007965Y017095D01*
X007993Y017141D01*
X008025Y017184D01*
X008059Y017226D01*
X008095Y017265D01*
X008135Y017302D01*
X008176Y017336D01*
X008220Y017367D01*
X008265Y017396D01*
X008270Y017388D01*
X008222Y017358D01*
X008176Y017324D01*
X008133Y017288D01*
X008092Y017248D01*
X008054Y017206D01*
X008019Y017162D01*
X007987Y017115D01*
X007959Y017066D01*
X007934Y017015D01*
X007912Y016962D01*
X007895Y016909D01*
X007881Y016854D01*
X007871Y016798D01*
X007864Y016742D01*
X007862Y016685D01*
X007871Y016685D01*
X007873Y016741D01*
X007879Y016797D01*
X007889Y016852D01*
X007903Y016906D01*
X007921Y016959D01*
X007942Y017011D01*
X007967Y017062D01*
X007995Y017110D01*
X008026Y017156D01*
X008061Y017201D01*
X008098Y017242D01*
X008139Y017281D01*
X008181Y017317D01*
X008227Y017350D01*
X008274Y017380D01*
X008279Y017372D01*
X008232Y017343D01*
X008187Y017310D01*
X008145Y017274D01*
X008105Y017236D01*
X008068Y017195D01*
X008033Y017151D01*
X008002Y017105D01*
X007975Y017057D01*
X007950Y017008D01*
X007929Y016956D01*
X007912Y016904D01*
X007898Y016850D01*
X007888Y016795D01*
X007882Y016740D01*
X007880Y016685D01*
X007889Y016685D01*
X007891Y016740D01*
X007897Y016794D01*
X007907Y016848D01*
X007921Y016901D01*
X007938Y016953D01*
X007958Y017004D01*
X007983Y017053D01*
X008010Y017100D01*
X008041Y017146D01*
X008074Y017189D01*
X008111Y017230D01*
X008151Y017268D01*
X008193Y017303D01*
X008237Y017335D01*
X008283Y017364D01*
X008288Y017356D01*
X008242Y017328D01*
X008198Y017296D01*
X008157Y017261D01*
X008118Y017223D01*
X008081Y017183D01*
X008048Y017141D01*
X008018Y017096D01*
X007990Y017049D01*
X007967Y017000D01*
X007946Y016950D01*
X007929Y016899D01*
X007916Y016846D01*
X007906Y016793D01*
X007900Y016739D01*
X007898Y016685D01*
X007907Y016685D01*
X007909Y016738D01*
X007915Y016792D01*
X007925Y016844D01*
X007938Y016896D01*
X007955Y016947D01*
X007975Y016997D01*
X007998Y017045D01*
X008025Y017091D01*
X008055Y017135D01*
X008088Y017177D01*
X008124Y017217D01*
X008163Y017254D01*
X008204Y017289D01*
X008247Y017320D01*
X008292Y017349D01*
X008297Y017341D01*
X008252Y017313D01*
X008209Y017282D01*
X008169Y017248D01*
X008131Y017211D01*
X008095Y017172D01*
X008063Y017130D01*
X008033Y017086D01*
X008006Y017040D01*
X007983Y016993D01*
X007963Y016944D01*
X007946Y016894D01*
X007933Y016842D01*
X007924Y016790D01*
X007918Y016738D01*
X007916Y016685D01*
X007836Y016676D02*
X007926Y016676D01*
X007925Y016675D02*
X007927Y016621D01*
X007933Y016568D01*
X007943Y016515D01*
X007957Y016463D01*
X007974Y016412D01*
X007995Y016362D01*
X008019Y016314D01*
X008047Y016268D01*
X008078Y016224D01*
X008112Y016183D01*
X008149Y016143D01*
X008188Y016107D01*
X008131Y016039D01*
X008130Y016038D01*
X008089Y016076D01*
X008051Y016116D01*
X008015Y016159D01*
X007982Y016204D01*
X007952Y016251D01*
X007926Y016299D01*
X007902Y016350D01*
X007882Y016402D01*
X007866Y016455D01*
X007852Y016509D01*
X007843Y016564D01*
X007837Y016619D01*
X007835Y016675D01*
X007844Y016675D01*
X007846Y016620D01*
X007852Y016565D01*
X007861Y016511D01*
X007874Y016457D01*
X007891Y016405D01*
X007910Y016353D01*
X007934Y016303D01*
X007960Y016255D01*
X007990Y016209D01*
X008022Y016164D01*
X008057Y016122D01*
X008096Y016082D01*
X008136Y016045D01*
X008142Y016052D01*
X008102Y016089D01*
X008064Y016128D01*
X008029Y016170D01*
X007997Y016214D01*
X007968Y016260D01*
X007942Y016308D01*
X007919Y016357D01*
X007899Y016408D01*
X007883Y016460D01*
X007870Y016513D01*
X007861Y016566D01*
X007855Y016621D01*
X007853Y016675D01*
X007862Y016675D01*
X007864Y016621D01*
X007870Y016568D01*
X007879Y016515D01*
X007892Y016462D01*
X007908Y016411D01*
X007927Y016360D01*
X007950Y016312D01*
X007975Y016264D01*
X008004Y016219D01*
X008036Y016175D01*
X008071Y016134D01*
X008108Y016095D01*
X008148Y016059D01*
X008154Y016066D01*
X008114Y016102D01*
X008077Y016140D01*
X008043Y016181D01*
X008012Y016224D01*
X007983Y016269D01*
X007958Y016316D01*
X007935Y016364D01*
X007916Y016414D01*
X007900Y016465D01*
X007888Y016516D01*
X007879Y016569D01*
X007873Y016622D01*
X007871Y016675D01*
X007880Y016675D01*
X007882Y016622D01*
X007888Y016570D01*
X007897Y016518D01*
X007909Y016467D01*
X007925Y016417D01*
X007944Y016367D01*
X007966Y016320D01*
X007991Y016273D01*
X008019Y016229D01*
X008050Y016187D01*
X008084Y016146D01*
X008121Y016108D01*
X008159Y016073D01*
X008165Y016079D01*
X008127Y016115D01*
X008091Y016152D01*
X008057Y016192D01*
X008027Y016234D01*
X007999Y016278D01*
X007974Y016324D01*
X007952Y016371D01*
X007933Y016420D01*
X007918Y016469D01*
X007905Y016520D01*
X007897Y016571D01*
X007891Y016623D01*
X007889Y016675D01*
X007898Y016675D01*
X007900Y016619D01*
X007907Y016564D01*
X007917Y016509D01*
X007931Y016455D01*
X007949Y016402D01*
X007971Y016351D01*
X007996Y016301D01*
X008025Y016253D01*
X008057Y016208D01*
X008092Y016165D01*
X008130Y016124D01*
X008171Y016086D01*
X008177Y016093D01*
X008136Y016130D01*
X008099Y016171D01*
X008064Y016213D01*
X008032Y016258D01*
X008004Y016306D01*
X007979Y016355D01*
X007957Y016406D01*
X007940Y016458D01*
X007926Y016511D01*
X007916Y016565D01*
X007909Y016620D01*
X007907Y016675D01*
X007916Y016675D01*
X007918Y016621D01*
X007924Y016567D01*
X007934Y016513D01*
X007948Y016460D01*
X007966Y016409D01*
X007987Y016359D01*
X008012Y016310D01*
X008040Y016263D01*
X008071Y016219D01*
X008105Y016177D01*
X008143Y016137D01*
X008183Y016100D01*
X009224Y016035D02*
X009167Y016104D01*
X009167Y016103D02*
X009207Y016140D01*
X009245Y016179D01*
X009279Y016221D01*
X009311Y016265D01*
X009339Y016311D01*
X009364Y016360D01*
X009385Y016410D01*
X009403Y016461D01*
X009416Y016514D01*
X009426Y016567D01*
X009433Y016621D01*
X009435Y016675D01*
X009524Y016676D01*
X009525Y016675D01*
X009523Y016619D01*
X009517Y016563D01*
X009507Y016508D01*
X009494Y016453D01*
X009477Y016400D01*
X009457Y016347D01*
X009433Y016296D01*
X009406Y016247D01*
X009375Y016200D01*
X009342Y016155D01*
X009306Y016112D01*
X009267Y016072D01*
X009225Y016034D01*
X009219Y016041D01*
X009260Y016078D01*
X009299Y016118D01*
X009335Y016160D01*
X009368Y016205D01*
X009398Y016252D01*
X009425Y016300D01*
X009448Y016351D01*
X009469Y016403D01*
X009485Y016456D01*
X009498Y016510D01*
X009508Y016564D01*
X009514Y016619D01*
X009516Y016675D01*
X009507Y016675D01*
X009505Y016620D01*
X009499Y016565D01*
X009490Y016511D01*
X009477Y016458D01*
X009460Y016406D01*
X009440Y016354D01*
X009417Y016305D01*
X009390Y016256D01*
X009361Y016210D01*
X009328Y016166D01*
X009292Y016124D01*
X009254Y016085D01*
X009213Y016048D01*
X009208Y016055D01*
X009248Y016091D01*
X009286Y016130D01*
X009321Y016172D01*
X009353Y016215D01*
X009383Y016261D01*
X009409Y016309D01*
X009432Y016358D01*
X009452Y016408D01*
X009468Y016460D01*
X009481Y016513D01*
X009490Y016567D01*
X009496Y016621D01*
X009498Y016675D01*
X009489Y016675D01*
X009487Y016621D01*
X009481Y016568D01*
X009472Y016515D01*
X009459Y016463D01*
X009443Y016411D01*
X009424Y016361D01*
X009401Y016313D01*
X009375Y016266D01*
X009346Y016220D01*
X009314Y016177D01*
X009279Y016136D01*
X009242Y016098D01*
X009202Y016062D01*
X009196Y016069D01*
X009235Y016104D01*
X009272Y016142D01*
X009307Y016183D01*
X009338Y016226D01*
X009367Y016270D01*
X009393Y016317D01*
X009415Y016365D01*
X009435Y016414D01*
X009451Y016465D01*
X009463Y016517D01*
X009472Y016569D01*
X009478Y016622D01*
X009480Y016675D01*
X009471Y016675D01*
X009469Y016623D01*
X009463Y016570D01*
X009454Y016519D01*
X009442Y016468D01*
X009426Y016417D01*
X009407Y016368D01*
X009385Y016321D01*
X009359Y016275D01*
X009331Y016231D01*
X009300Y016189D01*
X009266Y016148D01*
X009229Y016111D01*
X009190Y016076D01*
X009184Y016082D01*
X009223Y016117D01*
X009259Y016155D01*
X009293Y016194D01*
X009324Y016236D01*
X009352Y016280D01*
X009377Y016325D01*
X009399Y016372D01*
X009418Y016420D01*
X009433Y016470D01*
X009446Y016520D01*
X009454Y016572D01*
X009460Y016623D01*
X009462Y016675D01*
X009453Y016675D01*
X009451Y016624D01*
X009446Y016573D01*
X009437Y016522D01*
X009425Y016472D01*
X009409Y016423D01*
X009391Y016376D01*
X009369Y016329D01*
X009344Y016284D01*
X009316Y016241D01*
X009286Y016200D01*
X009253Y016161D01*
X009217Y016124D01*
X009179Y016089D01*
X009173Y016096D01*
X009214Y016133D01*
X009252Y016173D01*
X009286Y016215D01*
X009318Y016260D01*
X009347Y016307D01*
X009372Y016356D01*
X009393Y016407D01*
X009411Y016458D01*
X009425Y016512D01*
X009435Y016566D01*
X009442Y016620D01*
X009444Y016675D01*
X006257Y017411D02*
X006302Y017333D01*
X006301Y017333D02*
X006257Y017305D01*
X006215Y017274D01*
X006175Y017241D01*
X006137Y017205D01*
X006102Y017166D01*
X006070Y017125D01*
X006040Y017081D01*
X006014Y017036D01*
X005991Y016989D01*
X005971Y016941D01*
X005955Y016891D01*
X005942Y016841D01*
X005933Y016789D01*
X005927Y016737D01*
X005925Y016685D01*
X005836Y016684D01*
X005835Y016685D01*
X005837Y016740D01*
X005843Y016794D01*
X005852Y016849D01*
X005865Y016902D01*
X005881Y016954D01*
X005900Y017006D01*
X005923Y017056D01*
X005949Y017104D01*
X005978Y017151D01*
X006010Y017195D01*
X006045Y017238D01*
X006083Y017278D01*
X006123Y017315D01*
X006165Y017350D01*
X006210Y017382D01*
X006256Y017411D01*
X006261Y017403D01*
X006215Y017375D01*
X006171Y017343D01*
X006129Y017308D01*
X006089Y017271D01*
X006052Y017232D01*
X006017Y017190D01*
X005986Y017146D01*
X005957Y017100D01*
X005931Y017052D01*
X005909Y017002D01*
X005889Y016952D01*
X005873Y016900D01*
X005861Y016847D01*
X005852Y016793D01*
X005846Y016739D01*
X005844Y016685D01*
X005853Y016685D01*
X005855Y016739D01*
X005861Y016792D01*
X005870Y016845D01*
X005882Y016897D01*
X005898Y016949D01*
X005917Y016999D01*
X005939Y017048D01*
X005965Y017095D01*
X005993Y017141D01*
X006025Y017184D01*
X006059Y017226D01*
X006095Y017265D01*
X006135Y017302D01*
X006176Y017336D01*
X006220Y017367D01*
X006265Y017396D01*
X006270Y017388D01*
X006222Y017358D01*
X006176Y017324D01*
X006133Y017288D01*
X006092Y017248D01*
X006054Y017206D01*
X006019Y017162D01*
X005987Y017115D01*
X005959Y017066D01*
X005934Y017015D01*
X005912Y016962D01*
X005895Y016909D01*
X005881Y016854D01*
X005871Y016798D01*
X005864Y016742D01*
X005862Y016685D01*
X005871Y016685D01*
X005873Y016741D01*
X005879Y016797D01*
X005889Y016852D01*
X005903Y016906D01*
X005921Y016959D01*
X005942Y017011D01*
X005967Y017062D01*
X005995Y017110D01*
X006026Y017156D01*
X006061Y017201D01*
X006098Y017242D01*
X006139Y017281D01*
X006181Y017317D01*
X006227Y017350D01*
X006274Y017380D01*
X006279Y017372D01*
X006232Y017343D01*
X006187Y017310D01*
X006145Y017274D01*
X006105Y017236D01*
X006068Y017195D01*
X006033Y017151D01*
X006002Y017105D01*
X005975Y017057D01*
X005950Y017008D01*
X005929Y016956D01*
X005912Y016904D01*
X005898Y016850D01*
X005888Y016795D01*
X005882Y016740D01*
X005880Y016685D01*
X005889Y016685D01*
X005891Y016740D01*
X005897Y016794D01*
X005907Y016848D01*
X005921Y016901D01*
X005938Y016953D01*
X005958Y017004D01*
X005983Y017053D01*
X006010Y017100D01*
X006041Y017146D01*
X006074Y017189D01*
X006111Y017230D01*
X006151Y017268D01*
X006193Y017303D01*
X006237Y017335D01*
X006283Y017364D01*
X006288Y017356D01*
X006242Y017328D01*
X006198Y017296D01*
X006157Y017261D01*
X006118Y017223D01*
X006081Y017183D01*
X006048Y017141D01*
X006018Y017096D01*
X005990Y017049D01*
X005967Y017000D01*
X005946Y016950D01*
X005929Y016899D01*
X005916Y016846D01*
X005906Y016793D01*
X005900Y016739D01*
X005898Y016685D01*
X005907Y016685D01*
X005909Y016738D01*
X005915Y016792D01*
X005925Y016844D01*
X005938Y016896D01*
X005955Y016947D01*
X005975Y016997D01*
X005998Y017045D01*
X006025Y017091D01*
X006055Y017135D01*
X006088Y017177D01*
X006124Y017217D01*
X006163Y017254D01*
X006204Y017289D01*
X006247Y017320D01*
X006292Y017349D01*
X006297Y017341D01*
X006252Y017313D01*
X006209Y017282D01*
X006169Y017248D01*
X006131Y017211D01*
X006095Y017172D01*
X006063Y017130D01*
X006033Y017086D01*
X006006Y017040D01*
X005983Y016993D01*
X005963Y016944D01*
X005946Y016894D01*
X005933Y016842D01*
X005924Y016790D01*
X005918Y016738D01*
X005916Y016685D01*
X007524Y016685D02*
X007434Y016685D01*
X007435Y016685D02*
X007433Y016739D01*
X007427Y016792D01*
X007417Y016845D01*
X007403Y016897D01*
X007386Y016948D01*
X007365Y016997D01*
X007341Y017045D01*
X007313Y017091D01*
X007282Y017135D01*
X007248Y017177D01*
X007212Y017216D01*
X007172Y017253D01*
X007130Y017286D01*
X007086Y017317D01*
X007040Y017344D01*
X007082Y017423D01*
X007131Y017395D01*
X007177Y017363D01*
X007222Y017328D01*
X007264Y017291D01*
X007304Y017250D01*
X007340Y017207D01*
X007374Y017162D01*
X007405Y017115D01*
X007432Y017065D01*
X007456Y017014D01*
X007477Y016962D01*
X007494Y016908D01*
X007507Y016853D01*
X007517Y016798D01*
X007523Y016741D01*
X007525Y016685D01*
X007516Y016685D01*
X007514Y016741D01*
X007508Y016796D01*
X007498Y016851D01*
X007485Y016906D01*
X007468Y016959D01*
X007448Y017011D01*
X007424Y017061D01*
X007397Y017110D01*
X007367Y017157D01*
X007333Y017202D01*
X007297Y017244D01*
X007258Y017284D01*
X007216Y017321D01*
X007172Y017356D01*
X007126Y017387D01*
X007078Y017415D01*
X007074Y017407D01*
X007121Y017379D01*
X007167Y017348D01*
X007210Y017314D01*
X007252Y017278D01*
X007290Y017238D01*
X007326Y017196D01*
X007359Y017152D01*
X007389Y017106D01*
X007416Y017057D01*
X007439Y017007D01*
X007460Y016956D01*
X007476Y016903D01*
X007489Y016850D01*
X007499Y016795D01*
X007505Y016740D01*
X007507Y016685D01*
X007498Y016685D01*
X007496Y016740D01*
X007490Y016794D01*
X007481Y016848D01*
X007468Y016901D01*
X007451Y016953D01*
X007431Y017004D01*
X007408Y017053D01*
X007381Y017101D01*
X007352Y017147D01*
X007319Y017191D01*
X007284Y017232D01*
X007245Y017271D01*
X007205Y017308D01*
X007162Y017341D01*
X007116Y017372D01*
X007069Y017399D01*
X007065Y017391D01*
X007112Y017364D01*
X007156Y017334D01*
X007199Y017301D01*
X007239Y017265D01*
X007277Y017226D01*
X007312Y017185D01*
X007344Y017142D01*
X007374Y017096D01*
X007400Y017049D01*
X007423Y017000D01*
X007443Y016950D01*
X007459Y016898D01*
X007472Y016846D01*
X007481Y016793D01*
X007487Y016739D01*
X007489Y016685D01*
X007480Y016685D01*
X007478Y016738D01*
X007472Y016791D01*
X007463Y016844D01*
X007450Y016896D01*
X007434Y016947D01*
X007415Y016997D01*
X007392Y017045D01*
X007366Y017092D01*
X007337Y017136D01*
X007305Y017179D01*
X007270Y017220D01*
X007233Y017258D01*
X007193Y017294D01*
X007151Y017327D01*
X007107Y017357D01*
X007061Y017384D01*
X007057Y017376D01*
X007102Y017349D01*
X007146Y017319D01*
X007187Y017287D01*
X007227Y017252D01*
X007264Y017214D01*
X007298Y017174D01*
X007330Y017131D01*
X007358Y017087D01*
X007384Y017041D01*
X007406Y016993D01*
X007426Y016944D01*
X007442Y016894D01*
X007454Y016842D01*
X007463Y016790D01*
X007469Y016738D01*
X007471Y016685D01*
X007462Y016685D01*
X007460Y016741D01*
X007453Y016796D01*
X007443Y016851D01*
X007429Y016905D01*
X007411Y016957D01*
X007390Y017009D01*
X007364Y017058D01*
X007336Y017106D01*
X007304Y017152D01*
X007269Y017195D01*
X007231Y017235D01*
X007190Y017273D01*
X007146Y017308D01*
X007100Y017339D01*
X007052Y017368D01*
X007048Y017360D01*
X007096Y017332D01*
X007141Y017301D01*
X007184Y017266D01*
X007224Y017229D01*
X007262Y017189D01*
X007297Y017146D01*
X007328Y017101D01*
X007357Y017054D01*
X007381Y017005D01*
X007403Y016954D01*
X007420Y016902D01*
X007434Y016849D01*
X007444Y016795D01*
X007451Y016740D01*
X007453Y016685D01*
X007444Y016685D01*
X007442Y016739D01*
X007436Y016793D01*
X007426Y016847D01*
X007412Y016899D01*
X007394Y016951D01*
X007373Y017001D01*
X007349Y017050D01*
X007321Y017096D01*
X007289Y017141D01*
X007255Y017183D01*
X007218Y017222D01*
X007178Y017259D01*
X007136Y017293D01*
X007091Y017324D01*
X007044Y017352D01*
X007224Y016035D02*
X007167Y016104D01*
X007167Y016103D02*
X007207Y016140D01*
X007245Y016179D01*
X007279Y016221D01*
X007311Y016265D01*
X007339Y016311D01*
X007364Y016360D01*
X007385Y016410D01*
X007403Y016461D01*
X007416Y016514D01*
X007426Y016567D01*
X007433Y016621D01*
X007435Y016675D01*
X007524Y016676D01*
X007525Y016675D01*
X007523Y016619D01*
X007517Y016563D01*
X007507Y016508D01*
X007494Y016453D01*
X007477Y016400D01*
X007457Y016347D01*
X007433Y016296D01*
X007406Y016247D01*
X007375Y016200D01*
X007342Y016155D01*
X007306Y016112D01*
X007267Y016072D01*
X007225Y016034D01*
X007219Y016041D01*
X007260Y016078D01*
X007299Y016118D01*
X007335Y016160D01*
X007368Y016205D01*
X007398Y016252D01*
X007425Y016300D01*
X007448Y016351D01*
X007469Y016403D01*
X007485Y016456D01*
X007498Y016510D01*
X007508Y016564D01*
X007514Y016619D01*
X007516Y016675D01*
X007507Y016675D01*
X007505Y016620D01*
X007499Y016565D01*
X007490Y016511D01*
X007477Y016458D01*
X007460Y016406D01*
X007440Y016354D01*
X007417Y016305D01*
X007390Y016256D01*
X007361Y016210D01*
X007328Y016166D01*
X007292Y016124D01*
X007254Y016085D01*
X007213Y016048D01*
X007208Y016055D01*
X007248Y016091D01*
X007286Y016130D01*
X007321Y016172D01*
X007353Y016215D01*
X007383Y016261D01*
X007409Y016309D01*
X007432Y016358D01*
X007452Y016408D01*
X007468Y016460D01*
X007481Y016513D01*
X007490Y016567D01*
X007496Y016621D01*
X007498Y016675D01*
X007489Y016675D01*
X007487Y016621D01*
X007481Y016568D01*
X007472Y016515D01*
X007459Y016463D01*
X007443Y016411D01*
X007424Y016361D01*
X007401Y016313D01*
X007375Y016266D01*
X007346Y016220D01*
X007314Y016177D01*
X007279Y016136D01*
X007242Y016098D01*
X007202Y016062D01*
X007196Y016069D01*
X007235Y016104D01*
X007272Y016142D01*
X007307Y016183D01*
X007338Y016226D01*
X007367Y016270D01*
X007393Y016317D01*
X007415Y016365D01*
X007435Y016414D01*
X007451Y016465D01*
X007463Y016517D01*
X007472Y016569D01*
X007478Y016622D01*
X007480Y016675D01*
X007471Y016675D01*
X007469Y016623D01*
X007463Y016570D01*
X007454Y016519D01*
X007442Y016468D01*
X007426Y016417D01*
X007407Y016368D01*
X007385Y016321D01*
X007359Y016275D01*
X007331Y016231D01*
X007300Y016189D01*
X007266Y016148D01*
X007229Y016111D01*
X007190Y016076D01*
X007184Y016082D01*
X007223Y016117D01*
X007259Y016155D01*
X007293Y016194D01*
X007324Y016236D01*
X007352Y016280D01*
X007377Y016325D01*
X007399Y016372D01*
X007418Y016420D01*
X007433Y016470D01*
X007446Y016520D01*
X007454Y016572D01*
X007460Y016623D01*
X007462Y016675D01*
X007453Y016675D01*
X007451Y016624D01*
X007446Y016573D01*
X007437Y016522D01*
X007425Y016472D01*
X007409Y016423D01*
X007391Y016376D01*
X007369Y016329D01*
X007344Y016284D01*
X007316Y016241D01*
X007286Y016200D01*
X007253Y016161D01*
X007217Y016124D01*
X007179Y016089D01*
X007173Y016096D01*
X007214Y016133D01*
X007252Y016173D01*
X007286Y016215D01*
X007318Y016260D01*
X007347Y016307D01*
X007372Y016356D01*
X007393Y016407D01*
X007411Y016458D01*
X007425Y016512D01*
X007435Y016566D01*
X007442Y016620D01*
X007444Y016675D01*
X005836Y016676D02*
X005926Y016676D01*
X005925Y016675D02*
X005927Y016621D01*
X005933Y016568D01*
X005943Y016515D01*
X005957Y016463D01*
X005974Y016412D01*
X005995Y016362D01*
X006019Y016314D01*
X006047Y016268D01*
X006078Y016224D01*
X006112Y016183D01*
X006149Y016143D01*
X006188Y016107D01*
X006131Y016039D01*
X006130Y016038D01*
X006089Y016076D01*
X006051Y016116D01*
X006015Y016159D01*
X005982Y016204D01*
X005952Y016251D01*
X005926Y016299D01*
X005902Y016350D01*
X005882Y016402D01*
X005866Y016455D01*
X005852Y016509D01*
X005843Y016564D01*
X005837Y016619D01*
X005835Y016675D01*
X005844Y016675D01*
X005846Y016620D01*
X005852Y016565D01*
X005861Y016511D01*
X005874Y016457D01*
X005891Y016405D01*
X005910Y016353D01*
X005934Y016303D01*
X005960Y016255D01*
X005990Y016209D01*
X006022Y016164D01*
X006057Y016122D01*
X006096Y016082D01*
X006136Y016045D01*
X006142Y016052D01*
X006102Y016089D01*
X006064Y016128D01*
X006029Y016170D01*
X005997Y016214D01*
X005968Y016260D01*
X005942Y016308D01*
X005919Y016357D01*
X005899Y016408D01*
X005883Y016460D01*
X005870Y016513D01*
X005861Y016566D01*
X005855Y016621D01*
X005853Y016675D01*
X005862Y016675D01*
X005864Y016621D01*
X005870Y016568D01*
X005879Y016515D01*
X005892Y016462D01*
X005908Y016411D01*
X005927Y016360D01*
X005950Y016312D01*
X005975Y016264D01*
X006004Y016219D01*
X006036Y016175D01*
X006071Y016134D01*
X006108Y016095D01*
X006148Y016059D01*
X006154Y016066D01*
X006114Y016102D01*
X006077Y016140D01*
X006043Y016181D01*
X006012Y016224D01*
X005983Y016269D01*
X005958Y016316D01*
X005935Y016364D01*
X005916Y016414D01*
X005900Y016465D01*
X005888Y016516D01*
X005879Y016569D01*
X005873Y016622D01*
X005871Y016675D01*
X005880Y016675D01*
X005882Y016622D01*
X005888Y016570D01*
X005897Y016518D01*
X005909Y016467D01*
X005925Y016417D01*
X005944Y016367D01*
X005966Y016320D01*
X005991Y016273D01*
X006019Y016229D01*
X006050Y016187D01*
X006084Y016146D01*
X006121Y016108D01*
X006159Y016073D01*
X006165Y016079D01*
X006127Y016115D01*
X006091Y016152D01*
X006057Y016192D01*
X006027Y016234D01*
X005999Y016278D01*
X005974Y016324D01*
X005952Y016371D01*
X005933Y016420D01*
X005918Y016469D01*
X005905Y016520D01*
X005897Y016571D01*
X005891Y016623D01*
X005889Y016675D01*
X005898Y016675D01*
X005900Y016619D01*
X005907Y016564D01*
X005917Y016509D01*
X005931Y016455D01*
X005949Y016402D01*
X005971Y016351D01*
X005996Y016301D01*
X006025Y016253D01*
X006057Y016208D01*
X006092Y016165D01*
X006130Y016124D01*
X006171Y016086D01*
X006177Y016093D01*
X006136Y016130D01*
X006099Y016171D01*
X006064Y016213D01*
X006032Y016258D01*
X006004Y016306D01*
X005979Y016355D01*
X005957Y016406D01*
X005940Y016458D01*
X005926Y016511D01*
X005916Y016565D01*
X005909Y016620D01*
X005907Y016675D01*
X005916Y016675D01*
X005918Y016621D01*
X005924Y016567D01*
X005934Y016513D01*
X005948Y016460D01*
X005966Y016409D01*
X005987Y016359D01*
X006012Y016310D01*
X006040Y016263D01*
X006071Y016219D01*
X006105Y016177D01*
X006143Y016137D01*
X006183Y016100D01*
X003632Y002161D02*
X003677Y002083D01*
X003676Y002083D02*
X003632Y002055D01*
X003590Y002024D01*
X003550Y001991D01*
X003512Y001955D01*
X003477Y001916D01*
X003445Y001875D01*
X003415Y001831D01*
X003389Y001786D01*
X003366Y001739D01*
X003346Y001691D01*
X003330Y001641D01*
X003317Y001591D01*
X003308Y001539D01*
X003302Y001487D01*
X003300Y001435D01*
X003211Y001434D01*
X003210Y001435D01*
X003212Y001490D01*
X003218Y001544D01*
X003227Y001599D01*
X003240Y001652D01*
X003256Y001704D01*
X003275Y001756D01*
X003298Y001806D01*
X003324Y001854D01*
X003353Y001901D01*
X003385Y001945D01*
X003420Y001988D01*
X003458Y002028D01*
X003498Y002065D01*
X003540Y002100D01*
X003585Y002132D01*
X003631Y002161D01*
X003636Y002153D01*
X003590Y002125D01*
X003546Y002093D01*
X003504Y002058D01*
X003464Y002021D01*
X003427Y001982D01*
X003392Y001940D01*
X003361Y001896D01*
X003332Y001850D01*
X003306Y001802D01*
X003284Y001752D01*
X003264Y001702D01*
X003248Y001650D01*
X003236Y001597D01*
X003227Y001543D01*
X003221Y001489D01*
X003219Y001435D01*
X003228Y001435D01*
X003230Y001489D01*
X003236Y001542D01*
X003245Y001595D01*
X003257Y001647D01*
X003273Y001699D01*
X003292Y001749D01*
X003314Y001798D01*
X003340Y001845D01*
X003368Y001891D01*
X003400Y001934D01*
X003434Y001976D01*
X003470Y002015D01*
X003510Y002052D01*
X003551Y002086D01*
X003595Y002117D01*
X003640Y002146D01*
X003645Y002138D01*
X003597Y002108D01*
X003551Y002074D01*
X003508Y002038D01*
X003467Y001998D01*
X003429Y001956D01*
X003394Y001912D01*
X003362Y001865D01*
X003334Y001816D01*
X003309Y001765D01*
X003287Y001712D01*
X003270Y001659D01*
X003256Y001604D01*
X003246Y001548D01*
X003239Y001492D01*
X003237Y001435D01*
X003246Y001435D01*
X003248Y001491D01*
X003254Y001547D01*
X003264Y001602D01*
X003278Y001656D01*
X003296Y001709D01*
X003317Y001761D01*
X003342Y001812D01*
X003370Y001860D01*
X003401Y001906D01*
X003436Y001951D01*
X003473Y001992D01*
X003514Y002031D01*
X003556Y002067D01*
X003602Y002100D01*
X003649Y002130D01*
X003654Y002122D01*
X003607Y002093D01*
X003562Y002060D01*
X003520Y002024D01*
X003480Y001986D01*
X003443Y001945D01*
X003408Y001901D01*
X003377Y001855D01*
X003350Y001807D01*
X003325Y001758D01*
X003304Y001706D01*
X003287Y001654D01*
X003273Y001600D01*
X003263Y001545D01*
X003257Y001490D01*
X003255Y001435D01*
X003264Y001435D01*
X003266Y001490D01*
X003272Y001544D01*
X003282Y001598D01*
X003296Y001651D01*
X003313Y001703D01*
X003333Y001754D01*
X003358Y001803D01*
X003385Y001850D01*
X003416Y001896D01*
X003449Y001939D01*
X003486Y001980D01*
X003526Y002018D01*
X003568Y002053D01*
X003612Y002085D01*
X003658Y002114D01*
X003663Y002106D01*
X003617Y002078D01*
X003573Y002046D01*
X003532Y002011D01*
X003493Y001973D01*
X003456Y001933D01*
X003423Y001891D01*
X003393Y001846D01*
X003365Y001799D01*
X003342Y001750D01*
X003321Y001700D01*
X003304Y001649D01*
X003291Y001596D01*
X003281Y001543D01*
X003275Y001489D01*
X003273Y001435D01*
X003282Y001435D01*
X003284Y001488D01*
X003290Y001542D01*
X003300Y001594D01*
X003313Y001646D01*
X003330Y001697D01*
X003350Y001747D01*
X003373Y001795D01*
X003400Y001841D01*
X003430Y001885D01*
X003463Y001927D01*
X003499Y001967D01*
X003538Y002004D01*
X003579Y002039D01*
X003622Y002070D01*
X003667Y002099D01*
X003672Y002091D01*
X003627Y002063D01*
X003584Y002032D01*
X003544Y001998D01*
X003506Y001961D01*
X003470Y001922D01*
X003438Y001880D01*
X003408Y001836D01*
X003381Y001790D01*
X003358Y001743D01*
X003338Y001694D01*
X003321Y001644D01*
X003308Y001592D01*
X003299Y001540D01*
X003293Y001488D01*
X003291Y001435D01*
X004899Y001435D02*
X004809Y001435D01*
X004810Y001435D02*
X004808Y001489D01*
X004802Y001542D01*
X004792Y001595D01*
X004778Y001647D01*
X004761Y001698D01*
X004740Y001747D01*
X004716Y001795D01*
X004688Y001841D01*
X004657Y001885D01*
X004623Y001927D01*
X004587Y001966D01*
X004547Y002003D01*
X004505Y002036D01*
X004461Y002067D01*
X004415Y002094D01*
X004457Y002173D01*
X004506Y002145D01*
X004552Y002113D01*
X004597Y002078D01*
X004639Y002041D01*
X004679Y002000D01*
X004715Y001957D01*
X004749Y001912D01*
X004780Y001865D01*
X004807Y001815D01*
X004831Y001764D01*
X004852Y001712D01*
X004869Y001658D01*
X004882Y001603D01*
X004892Y001548D01*
X004898Y001491D01*
X004900Y001435D01*
X004891Y001435D01*
X004889Y001491D01*
X004883Y001546D01*
X004873Y001601D01*
X004860Y001656D01*
X004843Y001709D01*
X004823Y001761D01*
X004799Y001811D01*
X004772Y001860D01*
X004742Y001907D01*
X004708Y001952D01*
X004672Y001994D01*
X004633Y002034D01*
X004591Y002071D01*
X004547Y002106D01*
X004501Y002137D01*
X004453Y002165D01*
X004449Y002157D01*
X004496Y002129D01*
X004542Y002098D01*
X004585Y002064D01*
X004627Y002028D01*
X004665Y001988D01*
X004701Y001946D01*
X004734Y001902D01*
X004764Y001856D01*
X004791Y001807D01*
X004814Y001757D01*
X004835Y001706D01*
X004851Y001653D01*
X004864Y001600D01*
X004874Y001545D01*
X004880Y001490D01*
X004882Y001435D01*
X004873Y001435D01*
X004871Y001490D01*
X004865Y001544D01*
X004856Y001598D01*
X004843Y001651D01*
X004826Y001703D01*
X004806Y001754D01*
X004783Y001803D01*
X004756Y001851D01*
X004727Y001897D01*
X004694Y001941D01*
X004659Y001982D01*
X004620Y002021D01*
X004580Y002058D01*
X004537Y002091D01*
X004491Y002122D01*
X004444Y002149D01*
X004440Y002141D01*
X004487Y002114D01*
X004531Y002084D01*
X004574Y002051D01*
X004614Y002015D01*
X004652Y001976D01*
X004687Y001935D01*
X004719Y001892D01*
X004749Y001846D01*
X004775Y001799D01*
X004798Y001750D01*
X004818Y001700D01*
X004834Y001648D01*
X004847Y001596D01*
X004856Y001543D01*
X004862Y001489D01*
X004864Y001435D01*
X004855Y001435D01*
X004853Y001488D01*
X004847Y001541D01*
X004838Y001594D01*
X004825Y001646D01*
X004809Y001697D01*
X004790Y001747D01*
X004767Y001795D01*
X004741Y001842D01*
X004712Y001886D01*
X004680Y001929D01*
X004645Y001970D01*
X004608Y002008D01*
X004568Y002044D01*
X004526Y002077D01*
X004482Y002107D01*
X004436Y002134D01*
X004432Y002126D01*
X004477Y002099D01*
X004521Y002069D01*
X004562Y002037D01*
X004602Y002002D01*
X004639Y001964D01*
X004673Y001924D01*
X004705Y001881D01*
X004733Y001837D01*
X004759Y001791D01*
X004781Y001743D01*
X004801Y001694D01*
X004817Y001644D01*
X004829Y001592D01*
X004838Y001540D01*
X004844Y001488D01*
X004846Y001435D01*
X004837Y001435D01*
X004835Y001491D01*
X004828Y001546D01*
X004818Y001601D01*
X004804Y001655D01*
X004786Y001707D01*
X004765Y001759D01*
X004739Y001808D01*
X004711Y001856D01*
X004679Y001902D01*
X004644Y001945D01*
X004606Y001985D01*
X004565Y002023D01*
X004521Y002058D01*
X004475Y002089D01*
X004427Y002118D01*
X004423Y002110D01*
X004471Y002082D01*
X004516Y002051D01*
X004559Y002016D01*
X004599Y001979D01*
X004637Y001939D01*
X004672Y001896D01*
X004703Y001851D01*
X004732Y001804D01*
X004756Y001755D01*
X004778Y001704D01*
X004795Y001652D01*
X004809Y001599D01*
X004819Y001545D01*
X004826Y001490D01*
X004828Y001435D01*
X004819Y001435D01*
X004817Y001489D01*
X004811Y001543D01*
X004801Y001597D01*
X004787Y001649D01*
X004769Y001701D01*
X004748Y001751D01*
X004724Y001800D01*
X004696Y001846D01*
X004664Y001891D01*
X004630Y001933D01*
X004593Y001972D01*
X004553Y002009D01*
X004511Y002043D01*
X004466Y002074D01*
X004419Y002102D01*
X004599Y000785D02*
X004542Y000854D01*
X004542Y000853D02*
X004582Y000890D01*
X004620Y000929D01*
X004654Y000971D01*
X004686Y001015D01*
X004714Y001061D01*
X004739Y001110D01*
X004760Y001160D01*
X004778Y001211D01*
X004791Y001264D01*
X004801Y001317D01*
X004808Y001371D01*
X004810Y001425D01*
X004899Y001426D01*
X004900Y001425D01*
X004898Y001369D01*
X004892Y001313D01*
X004882Y001258D01*
X004869Y001203D01*
X004852Y001150D01*
X004832Y001097D01*
X004808Y001046D01*
X004781Y000997D01*
X004750Y000950D01*
X004717Y000905D01*
X004681Y000862D01*
X004642Y000822D01*
X004600Y000784D01*
X004594Y000791D01*
X004635Y000828D01*
X004674Y000868D01*
X004710Y000910D01*
X004743Y000955D01*
X004773Y001002D01*
X004800Y001050D01*
X004823Y001101D01*
X004844Y001153D01*
X004860Y001206D01*
X004873Y001260D01*
X004883Y001314D01*
X004889Y001369D01*
X004891Y001425D01*
X004882Y001425D01*
X004880Y001370D01*
X004874Y001315D01*
X004865Y001261D01*
X004852Y001208D01*
X004835Y001156D01*
X004815Y001104D01*
X004792Y001055D01*
X004765Y001006D01*
X004736Y000960D01*
X004703Y000916D01*
X004667Y000874D01*
X004629Y000835D01*
X004588Y000798D01*
X004583Y000805D01*
X004623Y000841D01*
X004661Y000880D01*
X004696Y000922D01*
X004728Y000965D01*
X004758Y001011D01*
X004784Y001059D01*
X004807Y001108D01*
X004827Y001158D01*
X004843Y001210D01*
X004856Y001263D01*
X004865Y001317D01*
X004871Y001371D01*
X004873Y001425D01*
X004864Y001425D01*
X004862Y001371D01*
X004856Y001318D01*
X004847Y001265D01*
X004834Y001213D01*
X004818Y001161D01*
X004799Y001111D01*
X004776Y001063D01*
X004750Y001016D01*
X004721Y000970D01*
X004689Y000927D01*
X004654Y000886D01*
X004617Y000848D01*
X004577Y000812D01*
X004571Y000819D01*
X004610Y000854D01*
X004647Y000892D01*
X004682Y000933D01*
X004713Y000976D01*
X004742Y001020D01*
X004768Y001067D01*
X004790Y001115D01*
X004810Y001164D01*
X004826Y001215D01*
X004838Y001267D01*
X004847Y001319D01*
X004853Y001372D01*
X004855Y001425D01*
X004846Y001425D01*
X004844Y001373D01*
X004838Y001320D01*
X004829Y001269D01*
X004817Y001218D01*
X004801Y001167D01*
X004782Y001118D01*
X004760Y001071D01*
X004734Y001025D01*
X004706Y000981D01*
X004675Y000939D01*
X004641Y000898D01*
X004604Y000861D01*
X004565Y000826D01*
X004559Y000832D01*
X004598Y000867D01*
X004634Y000905D01*
X004668Y000944D01*
X004699Y000986D01*
X004727Y001030D01*
X004752Y001075D01*
X004774Y001122D01*
X004793Y001170D01*
X004808Y001220D01*
X004821Y001270D01*
X004829Y001322D01*
X004835Y001373D01*
X004837Y001425D01*
X004828Y001425D01*
X004826Y001374D01*
X004821Y001323D01*
X004812Y001272D01*
X004800Y001222D01*
X004784Y001173D01*
X004766Y001126D01*
X004744Y001079D01*
X004719Y001034D01*
X004691Y000991D01*
X004661Y000950D01*
X004628Y000911D01*
X004592Y000874D01*
X004554Y000839D01*
X004548Y000846D01*
X004589Y000883D01*
X004627Y000923D01*
X004661Y000965D01*
X004693Y001010D01*
X004722Y001057D01*
X004747Y001106D01*
X004768Y001157D01*
X004786Y001208D01*
X004800Y001262D01*
X004810Y001316D01*
X004817Y001370D01*
X004819Y001425D01*
X003211Y001426D02*
X003301Y001426D01*
X003300Y001425D02*
X003302Y001371D01*
X003308Y001318D01*
X003318Y001265D01*
X003332Y001213D01*
X003349Y001162D01*
X003370Y001112D01*
X003394Y001064D01*
X003422Y001018D01*
X003453Y000974D01*
X003487Y000933D01*
X003524Y000893D01*
X003563Y000857D01*
X003506Y000789D01*
X003505Y000788D01*
X003464Y000826D01*
X003426Y000866D01*
X003390Y000909D01*
X003357Y000954D01*
X003327Y001001D01*
X003301Y001049D01*
X003277Y001100D01*
X003257Y001152D01*
X003241Y001205D01*
X003227Y001259D01*
X003218Y001314D01*
X003212Y001369D01*
X003210Y001425D01*
X003219Y001425D01*
X003221Y001370D01*
X003227Y001315D01*
X003236Y001261D01*
X003249Y001207D01*
X003266Y001155D01*
X003285Y001103D01*
X003309Y001053D01*
X003335Y001005D01*
X003365Y000959D01*
X003397Y000914D01*
X003432Y000872D01*
X003471Y000832D01*
X003511Y000795D01*
X003517Y000802D01*
X003477Y000839D01*
X003439Y000878D01*
X003404Y000920D01*
X003372Y000964D01*
X003343Y001010D01*
X003317Y001058D01*
X003294Y001107D01*
X003274Y001158D01*
X003258Y001210D01*
X003245Y001263D01*
X003236Y001316D01*
X003230Y001371D01*
X003228Y001425D01*
X003237Y001425D01*
X003239Y001371D01*
X003245Y001318D01*
X003254Y001265D01*
X003267Y001212D01*
X003283Y001161D01*
X003302Y001110D01*
X003325Y001062D01*
X003350Y001014D01*
X003379Y000969D01*
X003411Y000925D01*
X003446Y000884D01*
X003483Y000845D01*
X003523Y000809D01*
X003529Y000816D01*
X003489Y000852D01*
X003452Y000890D01*
X003418Y000931D01*
X003387Y000974D01*
X003358Y001019D01*
X003333Y001066D01*
X003310Y001114D01*
X003291Y001164D01*
X003275Y001215D01*
X003263Y001266D01*
X003254Y001319D01*
X003248Y001372D01*
X003246Y001425D01*
X003255Y001425D01*
X003257Y001372D01*
X003263Y001320D01*
X003272Y001268D01*
X003284Y001217D01*
X003300Y001167D01*
X003319Y001117D01*
X003341Y001070D01*
X003366Y001023D01*
X003394Y000979D01*
X003425Y000937D01*
X003459Y000896D01*
X003496Y000858D01*
X003534Y000823D01*
X003540Y000829D01*
X003502Y000865D01*
X003466Y000902D01*
X003432Y000942D01*
X003402Y000984D01*
X003374Y001028D01*
X003349Y001074D01*
X003327Y001121D01*
X003308Y001170D01*
X003293Y001219D01*
X003280Y001270D01*
X003272Y001321D01*
X003266Y001373D01*
X003264Y001425D01*
X003273Y001425D01*
X003275Y001369D01*
X003282Y001314D01*
X003292Y001259D01*
X003306Y001205D01*
X003324Y001152D01*
X003346Y001101D01*
X003371Y001051D01*
X003400Y001003D01*
X003432Y000958D01*
X003467Y000915D01*
X003505Y000874D01*
X003546Y000836D01*
X003552Y000843D01*
X003511Y000880D01*
X003474Y000921D01*
X003439Y000963D01*
X003407Y001008D01*
X003379Y001056D01*
X003354Y001105D01*
X003332Y001156D01*
X003315Y001208D01*
X003301Y001261D01*
X003291Y001315D01*
X003284Y001370D01*
X003282Y001425D01*
X003291Y001425D01*
X003293Y001371D01*
X003299Y001317D01*
X003309Y001263D01*
X003323Y001210D01*
X003341Y001159D01*
X003362Y001109D01*
X003387Y001060D01*
X003415Y001013D01*
X003446Y000969D01*
X003480Y000927D01*
X003518Y000887D01*
X003558Y000850D01*
X002524Y001435D02*
X002434Y001435D01*
X002435Y001435D02*
X002433Y001489D01*
X002427Y001542D01*
X002417Y001595D01*
X002403Y001647D01*
X002386Y001698D01*
X002365Y001747D01*
X002341Y001795D01*
X002313Y001841D01*
X002282Y001885D01*
X002248Y001927D01*
X002212Y001966D01*
X002172Y002003D01*
X002130Y002036D01*
X002086Y002067D01*
X002040Y002094D01*
X002082Y002173D01*
X002131Y002145D01*
X002177Y002113D01*
X002222Y002078D01*
X002264Y002041D01*
X002304Y002000D01*
X002340Y001957D01*
X002374Y001912D01*
X002405Y001865D01*
X002432Y001815D01*
X002456Y001764D01*
X002477Y001712D01*
X002494Y001658D01*
X002507Y001603D01*
X002517Y001548D01*
X002523Y001491D01*
X002525Y001435D01*
X002516Y001435D01*
X002514Y001491D01*
X002508Y001546D01*
X002498Y001601D01*
X002485Y001656D01*
X002468Y001709D01*
X002448Y001761D01*
X002424Y001811D01*
X002397Y001860D01*
X002367Y001907D01*
X002333Y001952D01*
X002297Y001994D01*
X002258Y002034D01*
X002216Y002071D01*
X002172Y002106D01*
X002126Y002137D01*
X002078Y002165D01*
X002074Y002157D01*
X002121Y002129D01*
X002167Y002098D01*
X002210Y002064D01*
X002252Y002028D01*
X002290Y001988D01*
X002326Y001946D01*
X002359Y001902D01*
X002389Y001856D01*
X002416Y001807D01*
X002439Y001757D01*
X002460Y001706D01*
X002476Y001653D01*
X002489Y001600D01*
X002499Y001545D01*
X002505Y001490D01*
X002507Y001435D01*
X002498Y001435D01*
X002496Y001490D01*
X002490Y001544D01*
X002481Y001598D01*
X002468Y001651D01*
X002451Y001703D01*
X002431Y001754D01*
X002408Y001803D01*
X002381Y001851D01*
X002352Y001897D01*
X002319Y001941D01*
X002284Y001982D01*
X002245Y002021D01*
X002205Y002058D01*
X002162Y002091D01*
X002116Y002122D01*
X002069Y002149D01*
X002065Y002141D01*
X002112Y002114D01*
X002156Y002084D01*
X002199Y002051D01*
X002239Y002015D01*
X002277Y001976D01*
X002312Y001935D01*
X002344Y001892D01*
X002374Y001846D01*
X002400Y001799D01*
X002423Y001750D01*
X002443Y001700D01*
X002459Y001648D01*
X002472Y001596D01*
X002481Y001543D01*
X002487Y001489D01*
X002489Y001435D01*
X002480Y001435D01*
X002478Y001488D01*
X002472Y001541D01*
X002463Y001594D01*
X002450Y001646D01*
X002434Y001697D01*
X002415Y001747D01*
X002392Y001795D01*
X002366Y001842D01*
X002337Y001886D01*
X002305Y001929D01*
X002270Y001970D01*
X002233Y002008D01*
X002193Y002044D01*
X002151Y002077D01*
X002107Y002107D01*
X002061Y002134D01*
X002057Y002126D01*
X002102Y002099D01*
X002146Y002069D01*
X002187Y002037D01*
X002227Y002002D01*
X002264Y001964D01*
X002298Y001924D01*
X002330Y001881D01*
X002358Y001837D01*
X002384Y001791D01*
X002406Y001743D01*
X002426Y001694D01*
X002442Y001644D01*
X002454Y001592D01*
X002463Y001540D01*
X002469Y001488D01*
X002471Y001435D01*
X002462Y001435D01*
X002460Y001491D01*
X002453Y001546D01*
X002443Y001601D01*
X002429Y001655D01*
X002411Y001707D01*
X002390Y001759D01*
X002364Y001808D01*
X002336Y001856D01*
X002304Y001902D01*
X002269Y001945D01*
X002231Y001985D01*
X002190Y002023D01*
X002146Y002058D01*
X002100Y002089D01*
X002052Y002118D01*
X002048Y002110D01*
X002096Y002082D01*
X002141Y002051D01*
X002184Y002016D01*
X002224Y001979D01*
X002262Y001939D01*
X002297Y001896D01*
X002328Y001851D01*
X002357Y001804D01*
X002381Y001755D01*
X002403Y001704D01*
X002420Y001652D01*
X002434Y001599D01*
X002444Y001545D01*
X002451Y001490D01*
X002453Y001435D01*
X002444Y001435D01*
X002442Y001489D01*
X002436Y001543D01*
X002426Y001597D01*
X002412Y001649D01*
X002394Y001701D01*
X002373Y001751D01*
X002349Y001800D01*
X002321Y001846D01*
X002289Y001891D01*
X002255Y001933D01*
X002218Y001972D01*
X002178Y002009D01*
X002136Y002043D01*
X002091Y002074D01*
X002044Y002102D01*
X001257Y002161D02*
X001302Y002083D01*
X001301Y002083D02*
X001257Y002055D01*
X001215Y002024D01*
X001175Y001991D01*
X001137Y001955D01*
X001102Y001916D01*
X001070Y001875D01*
X001040Y001831D01*
X001014Y001786D01*
X000991Y001739D01*
X000971Y001691D01*
X000955Y001641D01*
X000942Y001591D01*
X000933Y001539D01*
X000927Y001487D01*
X000925Y001435D01*
X000836Y001434D01*
X000835Y001435D01*
X000837Y001490D01*
X000843Y001544D01*
X000852Y001599D01*
X000865Y001652D01*
X000881Y001704D01*
X000900Y001756D01*
X000923Y001806D01*
X000949Y001854D01*
X000978Y001901D01*
X001010Y001945D01*
X001045Y001988D01*
X001083Y002028D01*
X001123Y002065D01*
X001165Y002100D01*
X001210Y002132D01*
X001256Y002161D01*
X001261Y002153D01*
X001215Y002125D01*
X001171Y002093D01*
X001129Y002058D01*
X001089Y002021D01*
X001052Y001982D01*
X001017Y001940D01*
X000986Y001896D01*
X000957Y001850D01*
X000931Y001802D01*
X000909Y001752D01*
X000889Y001702D01*
X000873Y001650D01*
X000861Y001597D01*
X000852Y001543D01*
X000846Y001489D01*
X000844Y001435D01*
X000853Y001435D01*
X000855Y001489D01*
X000861Y001542D01*
X000870Y001595D01*
X000882Y001647D01*
X000898Y001699D01*
X000917Y001749D01*
X000939Y001798D01*
X000965Y001845D01*
X000993Y001891D01*
X001025Y001934D01*
X001059Y001976D01*
X001095Y002015D01*
X001135Y002052D01*
X001176Y002086D01*
X001220Y002117D01*
X001265Y002146D01*
X001270Y002138D01*
X001222Y002108D01*
X001176Y002074D01*
X001133Y002038D01*
X001092Y001998D01*
X001054Y001956D01*
X001019Y001912D01*
X000987Y001865D01*
X000959Y001816D01*
X000934Y001765D01*
X000912Y001712D01*
X000895Y001659D01*
X000881Y001604D01*
X000871Y001548D01*
X000864Y001492D01*
X000862Y001435D01*
X000871Y001435D01*
X000873Y001491D01*
X000879Y001547D01*
X000889Y001602D01*
X000903Y001656D01*
X000921Y001709D01*
X000942Y001761D01*
X000967Y001812D01*
X000995Y001860D01*
X001026Y001906D01*
X001061Y001951D01*
X001098Y001992D01*
X001139Y002031D01*
X001181Y002067D01*
X001227Y002100D01*
X001274Y002130D01*
X001279Y002122D01*
X001232Y002093D01*
X001187Y002060D01*
X001145Y002024D01*
X001105Y001986D01*
X001068Y001945D01*
X001033Y001901D01*
X001002Y001855D01*
X000975Y001807D01*
X000950Y001758D01*
X000929Y001706D01*
X000912Y001654D01*
X000898Y001600D01*
X000888Y001545D01*
X000882Y001490D01*
X000880Y001435D01*
X000889Y001435D01*
X000891Y001490D01*
X000897Y001544D01*
X000907Y001598D01*
X000921Y001651D01*
X000938Y001703D01*
X000958Y001754D01*
X000983Y001803D01*
X001010Y001850D01*
X001041Y001896D01*
X001074Y001939D01*
X001111Y001980D01*
X001151Y002018D01*
X001193Y002053D01*
X001237Y002085D01*
X001283Y002114D01*
X001288Y002106D01*
X001242Y002078D01*
X001198Y002046D01*
X001157Y002011D01*
X001118Y001973D01*
X001081Y001933D01*
X001048Y001891D01*
X001018Y001846D01*
X000990Y001799D01*
X000967Y001750D01*
X000946Y001700D01*
X000929Y001649D01*
X000916Y001596D01*
X000906Y001543D01*
X000900Y001489D01*
X000898Y001435D01*
X000907Y001435D01*
X000909Y001488D01*
X000915Y001542D01*
X000925Y001594D01*
X000938Y001646D01*
X000955Y001697D01*
X000975Y001747D01*
X000998Y001795D01*
X001025Y001841D01*
X001055Y001885D01*
X001088Y001927D01*
X001124Y001967D01*
X001163Y002004D01*
X001204Y002039D01*
X001247Y002070D01*
X001292Y002099D01*
X001297Y002091D01*
X001252Y002063D01*
X001209Y002032D01*
X001169Y001998D01*
X001131Y001961D01*
X001095Y001922D01*
X001063Y001880D01*
X001033Y001836D01*
X001006Y001790D01*
X000983Y001743D01*
X000963Y001694D01*
X000946Y001644D01*
X000933Y001592D01*
X000924Y001540D01*
X000918Y001488D01*
X000916Y001435D01*
X000836Y001426D02*
X000926Y001426D01*
X000925Y001425D02*
X000927Y001371D01*
X000933Y001318D01*
X000943Y001265D01*
X000957Y001213D01*
X000974Y001162D01*
X000995Y001112D01*
X001019Y001064D01*
X001047Y001018D01*
X001078Y000974D01*
X001112Y000933D01*
X001149Y000893D01*
X001188Y000857D01*
X001131Y000789D01*
X001130Y000788D01*
X001089Y000826D01*
X001051Y000866D01*
X001015Y000909D01*
X000982Y000954D01*
X000952Y001001D01*
X000926Y001049D01*
X000902Y001100D01*
X000882Y001152D01*
X000866Y001205D01*
X000852Y001259D01*
X000843Y001314D01*
X000837Y001369D01*
X000835Y001425D01*
X000844Y001425D01*
X000846Y001370D01*
X000852Y001315D01*
X000861Y001261D01*
X000874Y001207D01*
X000891Y001155D01*
X000910Y001103D01*
X000934Y001053D01*
X000960Y001005D01*
X000990Y000959D01*
X001022Y000914D01*
X001057Y000872D01*
X001096Y000832D01*
X001136Y000795D01*
X001142Y000802D01*
X001102Y000839D01*
X001064Y000878D01*
X001029Y000920D01*
X000997Y000964D01*
X000968Y001010D01*
X000942Y001058D01*
X000919Y001107D01*
X000899Y001158D01*
X000883Y001210D01*
X000870Y001263D01*
X000861Y001316D01*
X000855Y001371D01*
X000853Y001425D01*
X000862Y001425D01*
X000864Y001371D01*
X000870Y001318D01*
X000879Y001265D01*
X000892Y001212D01*
X000908Y001161D01*
X000927Y001110D01*
X000950Y001062D01*
X000975Y001014D01*
X001004Y000969D01*
X001036Y000925D01*
X001071Y000884D01*
X001108Y000845D01*
X001148Y000809D01*
X001154Y000816D01*
X001114Y000852D01*
X001077Y000890D01*
X001043Y000931D01*
X001012Y000974D01*
X000983Y001019D01*
X000958Y001066D01*
X000935Y001114D01*
X000916Y001164D01*
X000900Y001215D01*
X000888Y001266D01*
X000879Y001319D01*
X000873Y001372D01*
X000871Y001425D01*
X000880Y001425D01*
X000882Y001372D01*
X000888Y001320D01*
X000897Y001268D01*
X000909Y001217D01*
X000925Y001167D01*
X000944Y001117D01*
X000966Y001070D01*
X000991Y001023D01*
X001019Y000979D01*
X001050Y000937D01*
X001084Y000896D01*
X001121Y000858D01*
X001159Y000823D01*
X001165Y000829D01*
X001127Y000865D01*
X001091Y000902D01*
X001057Y000942D01*
X001027Y000984D01*
X000999Y001028D01*
X000974Y001074D01*
X000952Y001121D01*
X000933Y001170D01*
X000918Y001219D01*
X000905Y001270D01*
X000897Y001321D01*
X000891Y001373D01*
X000889Y001425D01*
X000898Y001425D01*
X000900Y001369D01*
X000907Y001314D01*
X000917Y001259D01*
X000931Y001205D01*
X000949Y001152D01*
X000971Y001101D01*
X000996Y001051D01*
X001025Y001003D01*
X001057Y000958D01*
X001092Y000915D01*
X001130Y000874D01*
X001171Y000836D01*
X001177Y000843D01*
X001136Y000880D01*
X001099Y000921D01*
X001064Y000963D01*
X001032Y001008D01*
X001004Y001056D01*
X000979Y001105D01*
X000957Y001156D01*
X000940Y001208D01*
X000926Y001261D01*
X000916Y001315D01*
X000909Y001370D01*
X000907Y001425D01*
X000916Y001425D01*
X000918Y001371D01*
X000924Y001317D01*
X000934Y001263D01*
X000948Y001210D01*
X000966Y001159D01*
X000987Y001109D01*
X001012Y001060D01*
X001040Y001013D01*
X001071Y000969D01*
X001105Y000927D01*
X001143Y000887D01*
X001183Y000850D01*
X002224Y000785D02*
X002167Y000854D01*
X002167Y000853D02*
X002207Y000890D01*
X002245Y000929D01*
X002279Y000971D01*
X002311Y001015D01*
X002339Y001061D01*
X002364Y001110D01*
X002385Y001160D01*
X002403Y001211D01*
X002416Y001264D01*
X002426Y001317D01*
X002433Y001371D01*
X002435Y001425D01*
X002524Y001426D01*
X002525Y001425D01*
X002523Y001369D01*
X002517Y001313D01*
X002507Y001258D01*
X002494Y001203D01*
X002477Y001150D01*
X002457Y001097D01*
X002433Y001046D01*
X002406Y000997D01*
X002375Y000950D01*
X002342Y000905D01*
X002306Y000862D01*
X002267Y000822D01*
X002225Y000784D01*
X002219Y000791D01*
X002260Y000828D01*
X002299Y000868D01*
X002335Y000910D01*
X002368Y000955D01*
X002398Y001002D01*
X002425Y001050D01*
X002448Y001101D01*
X002469Y001153D01*
X002485Y001206D01*
X002498Y001260D01*
X002508Y001314D01*
X002514Y001369D01*
X002516Y001425D01*
X002507Y001425D01*
X002505Y001370D01*
X002499Y001315D01*
X002490Y001261D01*
X002477Y001208D01*
X002460Y001156D01*
X002440Y001104D01*
X002417Y001055D01*
X002390Y001006D01*
X002361Y000960D01*
X002328Y000916D01*
X002292Y000874D01*
X002254Y000835D01*
X002213Y000798D01*
X002208Y000805D01*
X002248Y000841D01*
X002286Y000880D01*
X002321Y000922D01*
X002353Y000965D01*
X002383Y001011D01*
X002409Y001059D01*
X002432Y001108D01*
X002452Y001158D01*
X002468Y001210D01*
X002481Y001263D01*
X002490Y001317D01*
X002496Y001371D01*
X002498Y001425D01*
X002489Y001425D01*
X002487Y001371D01*
X002481Y001318D01*
X002472Y001265D01*
X002459Y001213D01*
X002443Y001161D01*
X002424Y001111D01*
X002401Y001063D01*
X002375Y001016D01*
X002346Y000970D01*
X002314Y000927D01*
X002279Y000886D01*
X002242Y000848D01*
X002202Y000812D01*
X002196Y000819D01*
X002235Y000854D01*
X002272Y000892D01*
X002307Y000933D01*
X002338Y000976D01*
X002367Y001020D01*
X002393Y001067D01*
X002415Y001115D01*
X002435Y001164D01*
X002451Y001215D01*
X002463Y001267D01*
X002472Y001319D01*
X002478Y001372D01*
X002480Y001425D01*
X002471Y001425D01*
X002469Y001373D01*
X002463Y001320D01*
X002454Y001269D01*
X002442Y001218D01*
X002426Y001167D01*
X002407Y001118D01*
X002385Y001071D01*
X002359Y001025D01*
X002331Y000981D01*
X002300Y000939D01*
X002266Y000898D01*
X002229Y000861D01*
X002190Y000826D01*
X002184Y000832D01*
X002223Y000867D01*
X002259Y000905D01*
X002293Y000944D01*
X002324Y000986D01*
X002352Y001030D01*
X002377Y001075D01*
X002399Y001122D01*
X002418Y001170D01*
X002433Y001220D01*
X002446Y001270D01*
X002454Y001322D01*
X002460Y001373D01*
X002462Y001425D01*
X002453Y001425D01*
X002451Y001374D01*
X002446Y001323D01*
X002437Y001272D01*
X002425Y001222D01*
X002409Y001173D01*
X002391Y001126D01*
X002369Y001079D01*
X002344Y001034D01*
X002316Y000991D01*
X002286Y000950D01*
X002253Y000911D01*
X002217Y000874D01*
X002179Y000839D01*
X002173Y000846D01*
X002214Y000883D01*
X002252Y000923D01*
X002286Y000965D01*
X002318Y001010D01*
X002347Y001057D01*
X002372Y001106D01*
X002393Y001157D01*
X002411Y001208D01*
X002425Y001262D01*
X002435Y001316D01*
X002442Y001370D01*
X002444Y001425D01*
D22*
X001350Y000810D02*
X001170Y000810D01*
X001990Y000810D02*
X002190Y000810D01*
X003545Y000810D02*
X003725Y000810D01*
X004365Y000810D02*
X004565Y000810D01*
X010670Y000810D02*
X010850Y000810D01*
X011490Y000810D02*
X011690Y000810D01*
X013170Y000810D02*
X013350Y000810D01*
X013990Y000810D02*
X014190Y000810D01*
X009190Y016060D02*
X008990Y016060D01*
X008350Y016060D02*
X008170Y016060D01*
X007190Y016060D02*
X006990Y016060D01*
X006350Y016060D02*
X006170Y016060D01*
M02*
