G75*
%MOIN*%
%OFA0B0*%
%FSLAX24Y24*%
%IPPOS*%
%LPD*%
%AMOC8*
5,1,8,0,0,1.08239X$1,22.5*
%
%ADD10C,0.0150*%
%ADD11C,0.0100*%
%ADD12C,0.0060*%
%ADD13C,0.0200*%
%ADD14R,0.0750X0.0500*%
%ADD15R,0.0700X0.0300*%
%ADD16R,0.0300X0.0500*%
%ADD17C,0.0080*%
%ADD18C,0.0040*%
%ADD19C,0.0050*%
%ADD20C,0.0010*%
%ADD21C,0.0020*%
%ADD22R,0.0250X0.0450*%
%ADD23R,0.1750X0.0200*%
%ADD24R,0.3200X0.0200*%
%ADD25R,0.1250X0.0050*%
%ADD26R,0.1600X0.0200*%
D10*
X001680Y003834D02*
X001680Y004401D01*
X001664Y007772D02*
X001664Y008339D01*
X001947Y008055D02*
X001380Y008055D01*
X014380Y008180D02*
X014947Y008180D01*
X014664Y008464D02*
X014664Y007897D01*
X014680Y004526D02*
X014680Y003959D01*
D11*
X013616Y003872D02*
X013549Y003872D01*
X013416Y003738D01*
X013416Y003605D02*
X013416Y003872D01*
X013222Y003805D02*
X013222Y003738D01*
X012955Y003738D01*
X012955Y003672D02*
X012955Y003805D01*
X013022Y003872D01*
X013155Y003872D01*
X013222Y003805D01*
X013155Y003605D02*
X013022Y003605D01*
X012955Y003672D01*
X012762Y003605D02*
X012561Y003605D01*
X012495Y003672D01*
X012495Y003805D01*
X012561Y003872D01*
X012762Y003872D01*
X012762Y003538D01*
X012695Y003472D01*
X012628Y003472D01*
X012311Y003872D02*
X012245Y003872D01*
X012111Y003738D01*
X012111Y003605D02*
X012111Y003872D01*
X011918Y003805D02*
X011918Y003605D01*
X011717Y003605D01*
X011651Y003672D01*
X011717Y003738D01*
X011918Y003738D01*
X011918Y003805D02*
X011851Y003872D01*
X011717Y003872D01*
X011457Y003805D02*
X011457Y003605D01*
X011457Y003805D02*
X011391Y003872D01*
X011257Y003872D01*
X011190Y003805D01*
X011190Y004005D02*
X011190Y003605D01*
X010997Y003672D02*
X010930Y003605D01*
X010797Y003605D01*
X010730Y003672D01*
X010730Y003939D01*
X010797Y004005D01*
X010930Y004005D01*
X010997Y003939D01*
X010076Y003872D02*
X010076Y003538D01*
X010009Y003472D01*
X009943Y003472D01*
X009876Y003605D02*
X009809Y003672D01*
X009809Y003872D01*
X009626Y003872D02*
X009559Y003872D01*
X009425Y003738D01*
X009425Y003605D02*
X009425Y003872D01*
X009232Y003805D02*
X009232Y003738D01*
X008965Y003738D01*
X008965Y003672D02*
X008965Y003805D01*
X009032Y003872D01*
X009165Y003872D01*
X009232Y003805D01*
X009165Y003605D02*
X009032Y003605D01*
X008965Y003672D01*
X008792Y003605D02*
X008725Y003672D01*
X008725Y003939D01*
X008658Y003872D02*
X008792Y003872D01*
X008485Y003872D02*
X008351Y003872D01*
X008418Y003939D02*
X008418Y003672D01*
X008485Y003605D01*
X008158Y003605D02*
X007958Y003605D01*
X007891Y003672D01*
X007958Y003738D01*
X008158Y003738D01*
X008158Y003805D02*
X008158Y003605D01*
X008158Y003805D02*
X008091Y003872D01*
X007958Y003872D01*
X007697Y003872D02*
X007631Y003805D01*
X007430Y003805D01*
X007430Y003605D02*
X007631Y003605D01*
X007697Y003672D01*
X007697Y003738D01*
X007631Y003805D01*
X007697Y003872D02*
X007697Y003939D01*
X007631Y004005D01*
X007430Y004005D01*
X007430Y003605D01*
X006777Y003605D02*
X006576Y003605D01*
X006510Y003672D01*
X006510Y003805D01*
X006576Y003872D01*
X006777Y003872D01*
X006777Y004005D02*
X006777Y003605D01*
X006336Y003605D02*
X006203Y003605D01*
X006269Y003605D02*
X006269Y003872D01*
X006203Y003872D01*
X006269Y004005D02*
X006269Y004072D01*
X006009Y003872D02*
X005809Y003872D01*
X005742Y003805D01*
X005742Y003672D01*
X005809Y003605D01*
X006009Y003605D01*
X005549Y003605D02*
X005549Y003872D01*
X005415Y004005D01*
X005282Y003872D01*
X005282Y003605D01*
X005282Y003805D02*
X005549Y003805D01*
X004628Y003872D02*
X004428Y003872D01*
X004361Y003805D01*
X004361Y003672D01*
X004428Y003605D01*
X004628Y003605D01*
X004628Y004005D01*
X004168Y003805D02*
X004168Y003605D01*
X003968Y003605D01*
X003901Y003672D01*
X003968Y003738D01*
X004168Y003738D01*
X004168Y003805D02*
X004101Y003872D01*
X003968Y003872D01*
X003707Y003805D02*
X003707Y003738D01*
X003440Y003738D01*
X003440Y003672D02*
X003440Y003805D01*
X003507Y003872D01*
X003641Y003872D01*
X003707Y003805D01*
X003641Y003605D02*
X003507Y003605D01*
X003440Y003672D01*
X003247Y003605D02*
X002980Y003605D01*
X002980Y004005D01*
X006560Y006920D02*
X006560Y007120D01*
X006560Y007760D02*
X006560Y007940D01*
X009876Y003605D02*
X010076Y003605D01*
D12*
X002142Y002898D02*
X002085Y002954D01*
X002142Y002898D02*
X002255Y002898D01*
X002312Y002954D01*
X002312Y003068D01*
X002255Y003124D01*
X002198Y003124D01*
X002085Y003068D01*
X002085Y003238D01*
X002312Y003238D01*
X002453Y003181D02*
X002510Y003238D01*
X002623Y003238D01*
X002680Y003181D01*
X002453Y002954D01*
X002510Y002898D01*
X002623Y002898D01*
X002680Y002954D01*
X002680Y003181D01*
X002822Y003238D02*
X002822Y003011D01*
X002935Y002898D01*
X003048Y003011D01*
X003048Y003238D01*
X002453Y003181D02*
X002453Y002954D01*
X001932Y003204D02*
X001932Y003318D01*
X001876Y003374D01*
X001762Y003374D01*
X001706Y003318D01*
X001706Y003204D01*
X001762Y003148D01*
X001876Y003148D01*
X001932Y003204D01*
X001573Y003148D02*
X001517Y003204D01*
X001517Y003431D01*
X001573Y003374D02*
X001460Y003374D01*
X001361Y003448D02*
X001361Y003675D01*
X001361Y003448D02*
X001248Y003335D01*
X001134Y003448D01*
X001134Y003675D01*
X000993Y003675D02*
X000993Y003619D01*
X000766Y003392D01*
X000766Y003335D01*
X000624Y003335D02*
X000398Y003335D01*
X000511Y003335D02*
X000511Y003675D01*
X000398Y003562D01*
X000766Y003675D02*
X000993Y003675D01*
X003680Y004630D02*
X003680Y005780D01*
X003780Y005880D01*
X007580Y005880D01*
X007680Y005780D01*
X007680Y004630D01*
X007940Y004578D02*
X008053Y004692D01*
X007940Y004805D01*
X008280Y004805D01*
X008280Y004578D02*
X007940Y004578D01*
X008280Y004437D02*
X008280Y004210D01*
X007940Y004210D01*
X008680Y004630D02*
X008680Y005780D01*
X008780Y005880D01*
X012580Y005880D01*
X012680Y005780D01*
X012680Y004630D01*
X013823Y003550D02*
X013823Y003210D01*
X013710Y003210D02*
X013937Y003210D01*
X014078Y003267D02*
X014135Y003210D01*
X014248Y003210D01*
X014305Y003267D01*
X014305Y003323D01*
X014248Y003380D01*
X014192Y003380D01*
X014248Y003380D02*
X014305Y003437D01*
X014305Y003494D01*
X014248Y003550D01*
X014135Y003550D01*
X014078Y003494D01*
X013823Y003550D02*
X013710Y003437D01*
X014447Y003267D02*
X014447Y003210D01*
X014503Y003210D01*
X014503Y003267D01*
X014447Y003267D01*
X014631Y003267D02*
X014688Y003210D01*
X014801Y003210D01*
X014858Y003267D01*
X014858Y003323D01*
X014801Y003380D01*
X014631Y003380D01*
X014631Y003267D01*
X014631Y003380D02*
X014744Y003494D01*
X014858Y003550D01*
X014999Y003550D02*
X015226Y003550D01*
X015226Y003494D01*
X014999Y003267D01*
X014999Y003210D01*
X015367Y003323D02*
X015481Y003210D01*
X015594Y003323D01*
X015594Y003550D01*
X015367Y003550D02*
X015367Y003323D01*
X012530Y003380D02*
X012530Y002730D01*
X012430Y002730D02*
X012430Y003280D01*
X012280Y003280D01*
X012280Y002930D01*
X010530Y002930D01*
X010530Y003380D01*
X012280Y003380D01*
X012530Y003380D01*
X012280Y003380D02*
X012280Y003280D01*
X012430Y001130D02*
X012430Y000580D01*
X012280Y000580D01*
X012280Y000930D01*
X010530Y000930D01*
X010530Y000480D01*
X012280Y000480D01*
X012530Y000480D01*
X012530Y001130D01*
X012280Y000580D02*
X012280Y000480D01*
X009480Y001930D02*
X006880Y001930D01*
X005830Y000930D02*
X005830Y000480D01*
X004080Y000480D01*
X003830Y000480D01*
X003830Y001130D01*
X003930Y001130D02*
X003930Y000580D01*
X004080Y000580D01*
X004080Y000930D01*
X005830Y000930D01*
X004080Y000580D02*
X004080Y000480D01*
X003930Y002730D02*
X003930Y003280D01*
X004080Y003280D01*
X004080Y002930D01*
X005830Y002930D01*
X005830Y003380D01*
X004080Y003380D01*
X003830Y003380D01*
X003830Y002730D01*
X004080Y003280D02*
X004080Y003380D01*
X006585Y006110D02*
X006812Y006110D01*
X006953Y006110D02*
X007180Y006110D01*
X007322Y006110D02*
X007492Y006110D01*
X007548Y006167D01*
X007548Y006394D01*
X007492Y006450D01*
X007322Y006450D01*
X007322Y006110D01*
X007067Y006280D02*
X006953Y006280D01*
X006953Y006450D02*
X006953Y006110D01*
X006585Y006110D02*
X006585Y006450D01*
X006953Y006450D02*
X007180Y006450D01*
X007690Y006337D02*
X007803Y006450D01*
X007803Y006110D01*
X007690Y006110D02*
X007917Y006110D01*
X007940Y005910D02*
X007996Y005910D01*
X008223Y005683D01*
X008280Y005683D01*
X008280Y005542D02*
X008280Y005315D01*
X008280Y005428D02*
X007940Y005428D01*
X008053Y005315D01*
X008053Y005173D02*
X007996Y005173D01*
X007940Y005117D01*
X007940Y005003D01*
X007996Y004947D01*
X008110Y005060D02*
X008110Y005117D01*
X008167Y005173D01*
X008223Y005173D01*
X008280Y005117D01*
X008280Y005003D01*
X008223Y004947D01*
X008110Y005117D02*
X008053Y005173D01*
X007940Y005683D02*
X007940Y005910D01*
X009460Y006005D02*
X009460Y006345D01*
X009573Y006232D01*
X009687Y006345D01*
X009687Y006005D01*
X009828Y006005D02*
X009998Y006005D01*
X010055Y006062D01*
X010055Y006118D01*
X009998Y006175D01*
X009828Y006175D01*
X009828Y006005D02*
X009828Y006345D01*
X009998Y006345D01*
X010055Y006289D01*
X010055Y006232D01*
X009998Y006175D01*
X010197Y006118D02*
X010367Y006118D01*
X010423Y006175D01*
X010423Y006289D01*
X010367Y006345D01*
X010197Y006345D01*
X010197Y006005D01*
X010310Y006118D02*
X010423Y006005D01*
X010565Y006005D02*
X010792Y006005D01*
X010678Y006005D02*
X010678Y006345D01*
X010565Y006232D01*
X010933Y006175D02*
X011047Y006232D01*
X011103Y006232D01*
X011160Y006175D01*
X011160Y006062D01*
X011103Y006005D01*
X010990Y006005D01*
X010933Y006062D01*
X010933Y006175D02*
X010933Y006345D01*
X011160Y006345D01*
X011302Y006175D02*
X011528Y006175D01*
X011670Y006175D02*
X011783Y006232D01*
X011840Y006232D01*
X011897Y006175D01*
X011897Y006062D01*
X011840Y006005D01*
X011727Y006005D01*
X011670Y006062D01*
X011670Y006175D02*
X011670Y006345D01*
X011897Y006345D01*
X011472Y006345D02*
X011302Y006175D01*
X011472Y006005D02*
X011472Y006345D01*
X011348Y007060D02*
X011235Y007060D01*
X011178Y007117D01*
X011037Y007117D02*
X011037Y007173D01*
X010980Y007230D01*
X010923Y007230D01*
X010980Y007230D02*
X011037Y007287D01*
X011037Y007344D01*
X010980Y007400D01*
X010867Y007400D01*
X010810Y007344D01*
X010810Y007117D02*
X010867Y007060D01*
X010980Y007060D01*
X011037Y007117D01*
X011178Y007344D02*
X011235Y007400D01*
X011348Y007400D01*
X011405Y007344D01*
X011405Y007287D01*
X011348Y007230D01*
X011405Y007173D01*
X011405Y007117D01*
X011348Y007060D01*
X011348Y007230D02*
X011292Y007230D01*
X011547Y007117D02*
X011773Y007344D01*
X011773Y007117D01*
X011717Y007060D01*
X011603Y007060D01*
X011547Y007117D01*
X011547Y007344D01*
X011603Y007400D01*
X011717Y007400D01*
X011773Y007344D01*
X010305Y007630D02*
X010078Y007630D01*
X010248Y007800D01*
X010248Y007460D01*
X009937Y007460D02*
X009823Y007573D01*
X009880Y007573D02*
X009710Y007573D01*
X009710Y007460D02*
X009710Y007800D01*
X009880Y007800D01*
X009937Y007744D01*
X009937Y007630D01*
X009880Y007573D01*
X009853Y008560D02*
X009797Y008617D01*
X010023Y008844D01*
X010023Y008617D01*
X009967Y008560D01*
X009853Y008560D01*
X009797Y008617D02*
X009797Y008844D01*
X009853Y008900D01*
X009967Y008900D01*
X010023Y008844D01*
X009655Y008844D02*
X009598Y008900D01*
X009485Y008900D01*
X009428Y008844D01*
X009287Y008844D02*
X009230Y008900D01*
X009117Y008900D01*
X009060Y008844D01*
X009287Y008844D02*
X009287Y008787D01*
X009060Y008560D01*
X009287Y008560D01*
X009428Y008560D02*
X009655Y008787D01*
X009655Y008844D01*
X009655Y008560D02*
X009428Y008560D01*
X008555Y008960D02*
X008328Y008960D01*
X008442Y008960D02*
X008442Y009300D01*
X008328Y009187D01*
X008187Y009244D02*
X008187Y009130D01*
X008130Y009073D01*
X007960Y009073D01*
X007960Y008960D02*
X007960Y009300D01*
X008130Y009300D01*
X008187Y009244D01*
X008073Y009073D02*
X008187Y008960D01*
X008810Y009810D02*
X009037Y010037D01*
X009037Y010094D01*
X008980Y010150D01*
X008867Y010150D01*
X008810Y010094D01*
X008555Y010210D02*
X008328Y010210D01*
X008555Y010437D01*
X008555Y010494D01*
X008498Y010550D01*
X008385Y010550D01*
X008328Y010494D01*
X008187Y010494D02*
X008187Y010380D01*
X008130Y010323D01*
X007960Y010323D01*
X007960Y010210D02*
X007960Y010550D01*
X008130Y010550D01*
X008187Y010494D01*
X008073Y010323D02*
X008187Y010210D01*
X008810Y009810D02*
X009037Y009810D01*
X009178Y009810D02*
X009235Y009810D01*
X009235Y009867D01*
X009178Y009867D01*
X009178Y009810D01*
X009362Y009810D02*
X009589Y010037D01*
X009589Y010094D01*
X009533Y010150D01*
X009419Y010150D01*
X009362Y010094D01*
X009362Y009810D02*
X009589Y009810D01*
X009731Y009810D02*
X009731Y010150D01*
X009731Y009923D02*
X009958Y010150D01*
X009788Y009980D02*
X009958Y009810D01*
X009848Y011060D02*
X009735Y011060D01*
X009678Y011117D01*
X009792Y011230D02*
X009848Y011230D01*
X009905Y011173D01*
X009905Y011117D01*
X009848Y011060D01*
X009848Y011230D02*
X009905Y011287D01*
X009905Y011344D01*
X009848Y011400D01*
X009735Y011400D01*
X009678Y011344D01*
X009537Y011230D02*
X009310Y011230D01*
X009480Y011400D01*
X009480Y011060D01*
X008555Y011517D02*
X008498Y011460D01*
X008385Y011460D01*
X008328Y011517D01*
X008187Y011460D02*
X008073Y011573D01*
X008130Y011573D02*
X007960Y011573D01*
X007960Y011460D02*
X007960Y011800D01*
X008130Y011800D01*
X008187Y011744D01*
X008187Y011630D01*
X008130Y011573D01*
X008328Y011744D02*
X008385Y011800D01*
X008498Y011800D01*
X008555Y011744D01*
X008555Y011687D01*
X008498Y011630D01*
X008555Y011573D01*
X008555Y011517D01*
X008498Y011630D02*
X008442Y011630D01*
X011710Y010398D02*
X011710Y010285D01*
X011766Y010228D01*
X011766Y010087D02*
X011710Y010030D01*
X011710Y009917D01*
X011766Y009860D01*
X011993Y009860D01*
X012050Y009917D01*
X012050Y010030D01*
X011993Y010087D01*
X011993Y010228D02*
X012050Y010285D01*
X012050Y010398D01*
X011993Y010455D01*
X011937Y010455D01*
X011880Y010398D01*
X011880Y010342D01*
X011880Y010398D02*
X011823Y010455D01*
X011766Y010455D01*
X011710Y010398D01*
X006255Y007869D02*
X006198Y007925D01*
X006085Y007925D01*
X006028Y007869D01*
X005887Y007869D02*
X005830Y007925D01*
X005717Y007925D01*
X005660Y007869D01*
X005660Y007642D01*
X005717Y007585D01*
X005830Y007585D01*
X005887Y007642D01*
X006028Y007585D02*
X006255Y007812D01*
X006255Y007869D01*
X006255Y007585D02*
X006028Y007585D01*
X004705Y007810D02*
X004478Y007810D01*
X004592Y007810D02*
X004592Y008150D01*
X004478Y008037D01*
X004337Y008094D02*
X004280Y008150D01*
X004167Y008150D01*
X004110Y008094D01*
X004110Y007867D01*
X004167Y007810D01*
X004280Y007810D01*
X004337Y007867D01*
X004305Y008710D02*
X004305Y009050D01*
X004447Y009050D02*
X004560Y009050D01*
X004503Y009050D02*
X004503Y008710D01*
X004447Y008710D02*
X004560Y008710D01*
X004305Y008710D02*
X004192Y008823D01*
X004078Y008710D01*
X004078Y009050D01*
X003937Y008994D02*
X003880Y009050D01*
X003767Y009050D01*
X003710Y008994D01*
X003710Y008937D01*
X003767Y008880D01*
X003880Y008880D01*
X003937Y008823D01*
X003937Y008767D01*
X003880Y008710D01*
X003767Y008710D01*
X003710Y008767D01*
X004692Y009050D02*
X004919Y009050D01*
X004806Y009050D02*
X004806Y008710D01*
X005060Y008767D02*
X005117Y008710D01*
X005231Y008710D01*
X005287Y008767D01*
X005429Y008710D02*
X005429Y009050D01*
X005287Y008994D02*
X005231Y009050D01*
X005117Y009050D01*
X005060Y008994D01*
X005060Y008767D01*
X005429Y008880D02*
X005656Y008880D01*
X005656Y009050D02*
X005656Y008710D01*
D13*
X007500Y005640D03*
X012500Y005640D03*
D14*
X012405Y004430D03*
X008955Y004430D03*
X007405Y004430D03*
X003955Y004430D03*
D15*
X004680Y004330D03*
X005680Y004330D03*
X006680Y004330D03*
X009680Y004330D03*
X010680Y004330D03*
X011680Y004330D03*
D16*
X011180Y004430D03*
X010180Y004430D03*
X006180Y004430D03*
X005180Y004430D03*
D17*
X003097Y004741D02*
X002782Y004741D01*
X002782Y007497D01*
X003097Y007497D01*
X003097Y004741D01*
X002782Y004741D02*
X000341Y004741D01*
X000341Y007497D01*
X002782Y007497D01*
X002268Y008720D02*
X002268Y009140D01*
X001987Y009140D02*
X002268Y008720D01*
X001987Y008720D02*
X001987Y009140D01*
X001821Y009140D02*
X001680Y009140D01*
X001750Y009140D02*
X001750Y008720D01*
X001680Y008720D02*
X001821Y008720D01*
X001500Y008860D02*
X001500Y009140D01*
X001500Y008860D02*
X001360Y008720D01*
X001220Y008860D01*
X001220Y009140D01*
X003241Y009263D02*
X003241Y009578D01*
X005997Y009578D01*
X005997Y009263D01*
X003241Y009263D01*
X003241Y009578D02*
X003241Y012019D01*
X005997Y012019D01*
X005997Y009578D01*
X007690Y009708D02*
X010170Y009708D01*
X010170Y010652D01*
X007690Y010652D01*
X007690Y009708D01*
X007690Y009402D02*
X010170Y009402D01*
X010170Y008458D01*
X007690Y008458D01*
X007690Y009402D01*
X007690Y010958D02*
X007690Y011902D01*
X010170Y011902D01*
X010170Y010958D01*
X007690Y010958D01*
X009440Y007902D02*
X011920Y007902D01*
X011920Y006958D01*
X009440Y006958D01*
X009440Y007902D01*
X011446Y010180D02*
X011448Y010242D01*
X011454Y010305D01*
X011464Y010366D01*
X011478Y010427D01*
X011495Y010487D01*
X011516Y010546D01*
X011542Y010603D01*
X011570Y010658D01*
X011602Y010712D01*
X011638Y010763D01*
X011676Y010813D01*
X011718Y010859D01*
X011762Y010903D01*
X011810Y010944D01*
X011859Y010982D01*
X011911Y011016D01*
X011965Y011047D01*
X012021Y011075D01*
X012079Y011099D01*
X012138Y011120D01*
X012198Y011136D01*
X012259Y011149D01*
X012321Y011158D01*
X012383Y011163D01*
X012446Y011164D01*
X012508Y011161D01*
X012570Y011154D01*
X012632Y011143D01*
X012692Y011128D01*
X012752Y011110D01*
X012810Y011088D01*
X012867Y011062D01*
X012922Y011032D01*
X012975Y010999D01*
X013026Y010963D01*
X013074Y010924D01*
X013120Y010881D01*
X013163Y010836D01*
X013203Y010788D01*
X013240Y010738D01*
X013274Y010685D01*
X013305Y010631D01*
X013331Y010575D01*
X013355Y010517D01*
X013374Y010457D01*
X013390Y010397D01*
X013402Y010335D01*
X013410Y010274D01*
X013414Y010211D01*
X013414Y010149D01*
X013410Y010086D01*
X013402Y010025D01*
X013390Y009963D01*
X013374Y009903D01*
X013355Y009843D01*
X013331Y009785D01*
X013305Y009729D01*
X013274Y009675D01*
X013240Y009622D01*
X013203Y009572D01*
X013163Y009524D01*
X013120Y009479D01*
X013074Y009436D01*
X013026Y009397D01*
X012975Y009361D01*
X012922Y009328D01*
X012867Y009298D01*
X012810Y009272D01*
X012752Y009250D01*
X012692Y009232D01*
X012632Y009217D01*
X012570Y009206D01*
X012508Y009199D01*
X012446Y009196D01*
X012383Y009197D01*
X012321Y009202D01*
X012259Y009211D01*
X012198Y009224D01*
X012138Y009240D01*
X012079Y009261D01*
X012021Y009285D01*
X011965Y009313D01*
X011911Y009344D01*
X011859Y009378D01*
X011810Y009416D01*
X011762Y009457D01*
X011718Y009501D01*
X011676Y009547D01*
X011638Y009597D01*
X011602Y009648D01*
X011570Y009702D01*
X011542Y009757D01*
X011516Y009814D01*
X011495Y009873D01*
X011478Y009933D01*
X011464Y009994D01*
X011454Y010055D01*
X011448Y010118D01*
X011446Y010180D01*
X012980Y010480D02*
X012980Y010880D01*
X013845Y009140D02*
X013845Y008860D01*
X013985Y008720D01*
X014125Y008860D01*
X014125Y009140D01*
X014305Y009070D02*
X014305Y008790D01*
X014375Y008720D01*
X014516Y008720D01*
X014586Y008790D01*
X014586Y009070D01*
X014516Y009140D01*
X014375Y009140D01*
X014305Y009070D01*
X014766Y009140D02*
X014766Y008790D01*
X014836Y008720D01*
X014976Y008720D01*
X015046Y008790D01*
X015046Y009140D01*
X015226Y009140D02*
X015506Y009140D01*
X015366Y009140D02*
X015366Y008720D01*
X016019Y007619D02*
X013578Y007619D01*
X013578Y004863D01*
X013263Y004863D01*
X013263Y007619D01*
X013578Y007619D01*
X016019Y007619D02*
X016019Y004863D01*
X013578Y004863D01*
X008586Y002095D02*
X008305Y002095D01*
X008446Y002095D02*
X008446Y002515D01*
X008305Y002375D01*
X008125Y002515D02*
X007845Y002515D01*
X007845Y002095D01*
X007845Y002305D02*
X007985Y002305D01*
X005130Y006880D02*
X004730Y006880D01*
X003446Y007430D02*
X003448Y007492D01*
X003454Y007555D01*
X003464Y007616D01*
X003478Y007677D01*
X003495Y007737D01*
X003516Y007796D01*
X003542Y007853D01*
X003570Y007908D01*
X003602Y007962D01*
X003638Y008013D01*
X003676Y008063D01*
X003718Y008109D01*
X003762Y008153D01*
X003810Y008194D01*
X003859Y008232D01*
X003911Y008266D01*
X003965Y008297D01*
X004021Y008325D01*
X004079Y008349D01*
X004138Y008370D01*
X004198Y008386D01*
X004259Y008399D01*
X004321Y008408D01*
X004383Y008413D01*
X004446Y008414D01*
X004508Y008411D01*
X004570Y008404D01*
X004632Y008393D01*
X004692Y008378D01*
X004752Y008360D01*
X004810Y008338D01*
X004867Y008312D01*
X004922Y008282D01*
X004975Y008249D01*
X005026Y008213D01*
X005074Y008174D01*
X005120Y008131D01*
X005163Y008086D01*
X005203Y008038D01*
X005240Y007988D01*
X005274Y007935D01*
X005305Y007881D01*
X005331Y007825D01*
X005355Y007767D01*
X005374Y007707D01*
X005390Y007647D01*
X005402Y007585D01*
X005410Y007524D01*
X005414Y007461D01*
X005414Y007399D01*
X005410Y007336D01*
X005402Y007275D01*
X005390Y007213D01*
X005374Y007153D01*
X005355Y007093D01*
X005331Y007035D01*
X005305Y006979D01*
X005274Y006925D01*
X005240Y006872D01*
X005203Y006822D01*
X005163Y006774D01*
X005120Y006729D01*
X005074Y006686D01*
X005026Y006647D01*
X004975Y006611D01*
X004922Y006578D01*
X004867Y006548D01*
X004810Y006522D01*
X004752Y006500D01*
X004692Y006482D01*
X004632Y006467D01*
X004570Y006456D01*
X004508Y006449D01*
X004446Y006446D01*
X004383Y006447D01*
X004321Y006452D01*
X004259Y006461D01*
X004198Y006474D01*
X004138Y006490D01*
X004079Y006511D01*
X004021Y006535D01*
X003965Y006563D01*
X003911Y006594D01*
X003859Y006628D01*
X003810Y006666D01*
X003762Y006707D01*
X003718Y006751D01*
X003676Y006797D01*
X003638Y006847D01*
X003602Y006898D01*
X003570Y006952D01*
X003542Y007007D01*
X003516Y007064D01*
X003495Y007123D01*
X003478Y007183D01*
X003464Y007244D01*
X003454Y007305D01*
X003448Y007368D01*
X003446Y007430D01*
X005680Y007430D02*
X006180Y007430D01*
D18*
X006323Y007050D02*
X006457Y007050D01*
X006390Y006950D02*
X006323Y006950D01*
X006236Y006983D02*
X006236Y006850D01*
X006136Y006850D01*
X006102Y006883D01*
X006102Y006983D01*
X006015Y006850D02*
X005881Y006850D01*
X005948Y006850D02*
X005948Y007050D01*
X005881Y006983D01*
X005804Y006883D02*
X005804Y006850D01*
X005771Y006850D01*
X005771Y006883D01*
X005804Y006883D01*
X005683Y006883D02*
X005683Y007017D01*
X005550Y006883D01*
X005583Y006850D01*
X005650Y006850D01*
X005683Y006883D01*
X005550Y006883D02*
X005550Y007017D01*
X005583Y007050D01*
X005650Y007050D01*
X005683Y007017D01*
X006323Y007050D02*
X006323Y006850D01*
D19*
X005019Y006275D02*
X004839Y006275D01*
X004839Y006005D01*
X004724Y006005D02*
X004724Y006185D01*
X004839Y006140D02*
X004929Y006140D01*
X004724Y006005D02*
X004589Y006005D01*
X004544Y006050D01*
X004544Y006185D01*
X004430Y006230D02*
X004250Y006050D01*
X004295Y006005D01*
X004385Y006005D01*
X004430Y006050D01*
X004430Y006230D01*
X004385Y006275D01*
X004295Y006275D01*
X004250Y006230D01*
X004250Y006050D01*
X004135Y006005D02*
X003955Y006005D01*
X004045Y006005D02*
X004045Y006275D01*
X003955Y006185D01*
X001030Y006259D02*
X001030Y006304D01*
X000985Y006304D01*
X000985Y006259D01*
X001030Y006259D01*
X000985Y006144D02*
X000940Y006144D01*
X000895Y006099D01*
X000895Y006054D01*
X000895Y006099D02*
X000850Y006144D01*
X000805Y006144D01*
X000760Y006099D01*
X000760Y006009D01*
X000805Y005964D01*
X000805Y005849D02*
X000760Y005804D01*
X000760Y005714D01*
X000805Y005669D01*
X000805Y005555D02*
X000985Y005375D01*
X001030Y005420D01*
X001030Y005510D01*
X000985Y005555D01*
X000805Y005555D01*
X000760Y005510D01*
X000760Y005420D01*
X000805Y005375D01*
X000985Y005375D01*
X001030Y005260D02*
X000760Y005260D01*
X000850Y005170D01*
X000760Y005080D01*
X001030Y005080D01*
X001030Y005669D02*
X000850Y005849D01*
X000805Y005849D01*
X000985Y005964D02*
X001030Y006009D01*
X001030Y006099D01*
X000985Y006144D01*
X000985Y006406D02*
X001030Y006451D01*
X001030Y006541D01*
X000985Y006586D01*
X000895Y006586D01*
X000850Y006541D01*
X000850Y006496D01*
X000895Y006406D01*
X000760Y006406D01*
X000760Y006586D01*
X000760Y006701D02*
X000850Y006791D01*
X000760Y006881D01*
X001030Y006881D01*
X001030Y006995D02*
X000760Y006995D01*
X000850Y007085D01*
X000760Y007175D01*
X001030Y007175D01*
X001030Y006701D02*
X000760Y006701D01*
X001030Y005849D02*
X001030Y005669D01*
X003580Y011330D02*
X003580Y011600D01*
X003670Y011510D01*
X003760Y011600D01*
X003760Y011330D01*
X003875Y011375D02*
X004055Y011555D01*
X004055Y011375D01*
X004010Y011330D01*
X003920Y011330D01*
X003875Y011375D01*
X003875Y011555D01*
X003920Y011600D01*
X004010Y011600D01*
X004055Y011555D01*
X004169Y011555D02*
X004214Y011600D01*
X004304Y011600D01*
X004349Y011555D01*
X004349Y011510D01*
X004169Y011330D01*
X004349Y011330D01*
X004464Y011375D02*
X004509Y011330D01*
X004599Y011330D01*
X004644Y011375D01*
X004644Y011420D01*
X004599Y011465D01*
X004554Y011465D01*
X004599Y011465D02*
X004644Y011510D01*
X004644Y011555D01*
X004599Y011600D01*
X004509Y011600D01*
X004464Y011555D01*
X004759Y011375D02*
X004759Y011330D01*
X004804Y011330D01*
X004804Y011375D01*
X004759Y011375D01*
X004906Y011375D02*
X004951Y011330D01*
X005041Y011330D01*
X005086Y011375D01*
X005086Y011465D01*
X005041Y011510D01*
X004996Y011510D01*
X004906Y011465D01*
X004906Y011600D01*
X005086Y011600D01*
X005201Y011600D02*
X005291Y011510D01*
X005381Y011600D01*
X005381Y011330D01*
X005495Y011330D02*
X005495Y011600D01*
X005585Y011510D01*
X005675Y011600D01*
X005675Y011330D01*
X005201Y011330D02*
X005201Y011600D01*
X011955Y008935D02*
X012045Y009025D01*
X012045Y008755D01*
X011955Y008755D02*
X012135Y008755D01*
X012250Y008800D02*
X012430Y008980D01*
X012430Y008800D01*
X012385Y008755D01*
X012295Y008755D01*
X012250Y008800D01*
X012250Y008980D01*
X012295Y009025D01*
X012385Y009025D01*
X012430Y008980D01*
X012544Y008935D02*
X012544Y008800D01*
X012589Y008755D01*
X012724Y008755D01*
X012724Y008935D01*
X012839Y008890D02*
X012929Y008890D01*
X012839Y008755D02*
X012839Y009025D01*
X013019Y009025D01*
X015260Y007300D02*
X015530Y007300D01*
X015350Y007210D02*
X015260Y007300D01*
X015350Y007210D02*
X015260Y007120D01*
X015530Y007120D01*
X015530Y007006D02*
X015260Y007006D01*
X015350Y006916D01*
X015260Y006826D01*
X015530Y006826D01*
X015485Y006711D02*
X015530Y006666D01*
X015530Y006576D01*
X015485Y006531D01*
X015395Y006531D02*
X015350Y006621D01*
X015350Y006666D01*
X015395Y006711D01*
X015485Y006711D01*
X015260Y006711D02*
X015260Y006531D01*
X015395Y006531D01*
X015485Y006429D02*
X015530Y006429D01*
X015530Y006384D01*
X015485Y006384D01*
X015485Y006429D01*
X015485Y006269D02*
X015530Y006224D01*
X015530Y006134D01*
X015485Y006089D01*
X015530Y005974D02*
X015530Y005794D01*
X015350Y005974D01*
X015305Y005974D01*
X015260Y005929D01*
X015260Y005839D01*
X015305Y005794D01*
X015305Y005680D02*
X015485Y005500D01*
X015530Y005545D01*
X015530Y005635D01*
X015485Y005680D01*
X015305Y005680D01*
X015260Y005635D01*
X015260Y005545D01*
X015305Y005500D01*
X015485Y005500D01*
X015530Y005385D02*
X015260Y005385D01*
X015350Y005295D01*
X015260Y005205D01*
X015530Y005205D01*
X015305Y006089D02*
X015260Y006134D01*
X015260Y006224D01*
X015305Y006269D01*
X015350Y006269D01*
X015395Y006224D01*
X015440Y006269D01*
X015485Y006269D01*
X015395Y006224D02*
X015395Y006179D01*
D20*
X007911Y007853D02*
X007833Y007808D01*
X007833Y007809D02*
X007805Y007853D01*
X007774Y007895D01*
X007741Y007935D01*
X007705Y007973D01*
X007666Y008008D01*
X007625Y008040D01*
X007581Y008070D01*
X007536Y008096D01*
X007489Y008119D01*
X007441Y008139D01*
X007391Y008155D01*
X007341Y008168D01*
X007289Y008177D01*
X007237Y008183D01*
X007185Y008185D01*
X007184Y008274D01*
X007185Y008275D01*
X007240Y008273D01*
X007294Y008267D01*
X007349Y008258D01*
X007402Y008245D01*
X007454Y008229D01*
X007506Y008210D01*
X007556Y008187D01*
X007604Y008161D01*
X007651Y008132D01*
X007695Y008100D01*
X007738Y008065D01*
X007778Y008027D01*
X007815Y007987D01*
X007850Y007945D01*
X007882Y007900D01*
X007911Y007854D01*
X007903Y007849D01*
X007875Y007895D01*
X007843Y007939D01*
X007808Y007981D01*
X007771Y008021D01*
X007732Y008058D01*
X007690Y008093D01*
X007646Y008124D01*
X007600Y008153D01*
X007552Y008179D01*
X007502Y008201D01*
X007452Y008221D01*
X007400Y008237D01*
X007347Y008249D01*
X007293Y008258D01*
X007239Y008264D01*
X007185Y008266D01*
X007185Y008257D01*
X007239Y008255D01*
X007292Y008249D01*
X007345Y008240D01*
X007397Y008228D01*
X007449Y008212D01*
X007499Y008193D01*
X007548Y008171D01*
X007595Y008145D01*
X007641Y008117D01*
X007684Y008085D01*
X007726Y008051D01*
X007765Y008015D01*
X007802Y007975D01*
X007836Y007934D01*
X007867Y007890D01*
X007896Y007845D01*
X007888Y007840D01*
X007858Y007888D01*
X007824Y007934D01*
X007788Y007977D01*
X007748Y008018D01*
X007706Y008056D01*
X007662Y008091D01*
X007615Y008123D01*
X007566Y008151D01*
X007515Y008176D01*
X007462Y008198D01*
X007409Y008215D01*
X007354Y008229D01*
X007298Y008239D01*
X007242Y008246D01*
X007185Y008248D01*
X007185Y008239D01*
X007241Y008237D01*
X007297Y008231D01*
X007352Y008221D01*
X007406Y008207D01*
X007459Y008189D01*
X007511Y008168D01*
X007562Y008143D01*
X007610Y008115D01*
X007656Y008084D01*
X007701Y008049D01*
X007742Y008012D01*
X007781Y007971D01*
X007817Y007929D01*
X007850Y007883D01*
X007880Y007836D01*
X007872Y007831D01*
X007843Y007878D01*
X007810Y007923D01*
X007774Y007965D01*
X007736Y008005D01*
X007695Y008042D01*
X007651Y008077D01*
X007605Y008108D01*
X007557Y008135D01*
X007508Y008160D01*
X007456Y008181D01*
X007404Y008198D01*
X007350Y008212D01*
X007295Y008222D01*
X007240Y008228D01*
X007185Y008230D01*
X007185Y008221D01*
X007240Y008219D01*
X007294Y008213D01*
X007348Y008203D01*
X007401Y008189D01*
X007453Y008172D01*
X007504Y008152D01*
X007553Y008127D01*
X007600Y008100D01*
X007646Y008069D01*
X007689Y008036D01*
X007730Y007999D01*
X007768Y007959D01*
X007803Y007917D01*
X007835Y007873D01*
X007864Y007827D01*
X007856Y007822D01*
X007828Y007868D01*
X007796Y007912D01*
X007761Y007953D01*
X007723Y007992D01*
X007683Y008029D01*
X007641Y008062D01*
X007596Y008092D01*
X007549Y008120D01*
X007500Y008143D01*
X007450Y008164D01*
X007399Y008181D01*
X007346Y008194D01*
X007293Y008204D01*
X007239Y008210D01*
X007185Y008212D01*
X007185Y008203D01*
X007238Y008201D01*
X007292Y008195D01*
X007344Y008185D01*
X007396Y008172D01*
X007447Y008155D01*
X007497Y008135D01*
X007545Y008112D01*
X007591Y008085D01*
X007635Y008055D01*
X007677Y008022D01*
X007717Y007986D01*
X007754Y007947D01*
X007789Y007906D01*
X007820Y007863D01*
X007849Y007818D01*
X007841Y007813D01*
X007813Y007858D01*
X007782Y007901D01*
X007748Y007941D01*
X007711Y007979D01*
X007672Y008015D01*
X007630Y008047D01*
X007586Y008077D01*
X007540Y008104D01*
X007493Y008127D01*
X007444Y008147D01*
X007394Y008164D01*
X007342Y008177D01*
X007290Y008186D01*
X007238Y008192D01*
X007185Y008194D01*
X007185Y006586D02*
X007185Y006676D01*
X007185Y006675D02*
X007239Y006677D01*
X007292Y006683D01*
X007345Y006693D01*
X007397Y006707D01*
X007448Y006724D01*
X007497Y006745D01*
X007545Y006769D01*
X007591Y006797D01*
X007635Y006828D01*
X007677Y006862D01*
X007716Y006898D01*
X007753Y006938D01*
X007786Y006980D01*
X007817Y007024D01*
X007844Y007070D01*
X007923Y007028D01*
X007895Y006979D01*
X007863Y006933D01*
X007828Y006888D01*
X007791Y006846D01*
X007750Y006806D01*
X007707Y006770D01*
X007662Y006736D01*
X007615Y006705D01*
X007565Y006678D01*
X007514Y006654D01*
X007462Y006633D01*
X007408Y006616D01*
X007353Y006603D01*
X007298Y006593D01*
X007241Y006587D01*
X007185Y006585D01*
X007185Y006594D01*
X007241Y006596D01*
X007296Y006602D01*
X007351Y006612D01*
X007406Y006625D01*
X007459Y006642D01*
X007511Y006662D01*
X007561Y006686D01*
X007610Y006713D01*
X007657Y006743D01*
X007702Y006777D01*
X007744Y006813D01*
X007784Y006852D01*
X007821Y006894D01*
X007856Y006938D01*
X007887Y006984D01*
X007915Y007032D01*
X007907Y007036D01*
X007879Y006989D01*
X007848Y006943D01*
X007814Y006900D01*
X007778Y006858D01*
X007738Y006820D01*
X007696Y006784D01*
X007652Y006751D01*
X007606Y006721D01*
X007557Y006694D01*
X007507Y006671D01*
X007456Y006650D01*
X007403Y006634D01*
X007350Y006621D01*
X007295Y006611D01*
X007240Y006605D01*
X007185Y006603D01*
X007185Y006612D01*
X007240Y006614D01*
X007294Y006620D01*
X007348Y006629D01*
X007401Y006642D01*
X007453Y006659D01*
X007504Y006679D01*
X007553Y006702D01*
X007601Y006729D01*
X007647Y006758D01*
X007691Y006791D01*
X007732Y006826D01*
X007771Y006865D01*
X007808Y006905D01*
X007841Y006948D01*
X007872Y006994D01*
X007899Y007041D01*
X007891Y007045D01*
X007864Y006998D01*
X007834Y006954D01*
X007801Y006911D01*
X007765Y006871D01*
X007726Y006833D01*
X007685Y006798D01*
X007642Y006766D01*
X007596Y006736D01*
X007549Y006710D01*
X007500Y006687D01*
X007450Y006667D01*
X007398Y006651D01*
X007346Y006638D01*
X007293Y006629D01*
X007239Y006623D01*
X007185Y006621D01*
X007185Y006630D01*
X007238Y006632D01*
X007291Y006638D01*
X007344Y006647D01*
X007396Y006660D01*
X007447Y006676D01*
X007497Y006695D01*
X007545Y006718D01*
X007592Y006744D01*
X007636Y006773D01*
X007679Y006805D01*
X007720Y006840D01*
X007758Y006877D01*
X007794Y006917D01*
X007827Y006959D01*
X007857Y007003D01*
X007884Y007049D01*
X007876Y007053D01*
X007849Y007008D01*
X007819Y006964D01*
X007787Y006923D01*
X007752Y006883D01*
X007714Y006846D01*
X007674Y006812D01*
X007631Y006780D01*
X007587Y006752D01*
X007541Y006726D01*
X007493Y006704D01*
X007444Y006684D01*
X007394Y006668D01*
X007342Y006656D01*
X007290Y006647D01*
X007238Y006641D01*
X007185Y006639D01*
X007185Y006648D01*
X007241Y006650D01*
X007296Y006657D01*
X007351Y006667D01*
X007405Y006681D01*
X007457Y006699D01*
X007509Y006720D01*
X007558Y006746D01*
X007606Y006774D01*
X007652Y006806D01*
X007695Y006841D01*
X007735Y006879D01*
X007773Y006920D01*
X007808Y006964D01*
X007839Y007010D01*
X007868Y007058D01*
X007860Y007062D01*
X007832Y007014D01*
X007801Y006969D01*
X007766Y006926D01*
X007729Y006886D01*
X007689Y006848D01*
X007646Y006813D01*
X007601Y006782D01*
X007554Y006753D01*
X007505Y006729D01*
X007454Y006707D01*
X007402Y006690D01*
X007349Y006676D01*
X007295Y006666D01*
X007240Y006659D01*
X007185Y006657D01*
X007185Y006666D01*
X007239Y006668D01*
X007293Y006674D01*
X007347Y006684D01*
X007399Y006698D01*
X007451Y006716D01*
X007501Y006737D01*
X007550Y006761D01*
X007596Y006789D01*
X007641Y006821D01*
X007683Y006855D01*
X007722Y006892D01*
X007759Y006932D01*
X007793Y006974D01*
X007824Y007019D01*
X007852Y007066D01*
X006535Y006886D02*
X006604Y006943D01*
X006603Y006943D02*
X006640Y006903D01*
X006679Y006865D01*
X006721Y006831D01*
X006765Y006799D01*
X006811Y006771D01*
X006860Y006746D01*
X006910Y006725D01*
X006961Y006707D01*
X007014Y006694D01*
X007067Y006684D01*
X007121Y006677D01*
X007175Y006675D01*
X007176Y006586D01*
X007175Y006585D01*
X007119Y006587D01*
X007063Y006593D01*
X007008Y006603D01*
X006953Y006616D01*
X006900Y006633D01*
X006847Y006653D01*
X006796Y006677D01*
X006747Y006704D01*
X006700Y006735D01*
X006655Y006768D01*
X006612Y006804D01*
X006572Y006843D01*
X006534Y006885D01*
X006541Y006891D01*
X006578Y006850D01*
X006618Y006811D01*
X006660Y006775D01*
X006705Y006742D01*
X006752Y006712D01*
X006800Y006685D01*
X006851Y006662D01*
X006903Y006641D01*
X006956Y006625D01*
X007010Y006612D01*
X007064Y006602D01*
X007119Y006596D01*
X007175Y006594D01*
X007175Y006603D01*
X007120Y006605D01*
X007065Y006611D01*
X007011Y006620D01*
X006958Y006633D01*
X006906Y006650D01*
X006854Y006670D01*
X006805Y006693D01*
X006756Y006720D01*
X006710Y006749D01*
X006666Y006782D01*
X006624Y006818D01*
X006585Y006856D01*
X006548Y006897D01*
X006555Y006902D01*
X006591Y006862D01*
X006630Y006824D01*
X006672Y006789D01*
X006715Y006757D01*
X006761Y006727D01*
X006809Y006701D01*
X006858Y006678D01*
X006908Y006658D01*
X006960Y006642D01*
X007013Y006629D01*
X007067Y006620D01*
X007121Y006614D01*
X007175Y006612D01*
X007175Y006621D01*
X007121Y006623D01*
X007068Y006629D01*
X007015Y006638D01*
X006963Y006651D01*
X006911Y006667D01*
X006861Y006686D01*
X006813Y006709D01*
X006766Y006735D01*
X006720Y006764D01*
X006677Y006796D01*
X006636Y006831D01*
X006598Y006868D01*
X006562Y006908D01*
X006569Y006914D01*
X006604Y006875D01*
X006642Y006838D01*
X006683Y006803D01*
X006726Y006772D01*
X006770Y006743D01*
X006817Y006717D01*
X006865Y006695D01*
X006914Y006675D01*
X006965Y006659D01*
X007017Y006647D01*
X007069Y006638D01*
X007122Y006632D01*
X007175Y006630D01*
X007175Y006639D01*
X007123Y006641D01*
X007070Y006647D01*
X007019Y006656D01*
X006968Y006668D01*
X006917Y006684D01*
X006868Y006703D01*
X006821Y006725D01*
X006775Y006751D01*
X006731Y006779D01*
X006689Y006810D01*
X006648Y006844D01*
X006611Y006881D01*
X006576Y006920D01*
X006582Y006926D01*
X006617Y006887D01*
X006655Y006851D01*
X006694Y006817D01*
X006736Y006786D01*
X006780Y006758D01*
X006825Y006733D01*
X006872Y006711D01*
X006920Y006692D01*
X006970Y006677D01*
X007020Y006664D01*
X007072Y006656D01*
X007123Y006650D01*
X007175Y006648D01*
X007175Y006657D01*
X007124Y006659D01*
X007073Y006664D01*
X007022Y006673D01*
X006972Y006685D01*
X006923Y006701D01*
X006876Y006719D01*
X006829Y006741D01*
X006784Y006766D01*
X006741Y006794D01*
X006700Y006824D01*
X006661Y006857D01*
X006624Y006893D01*
X006589Y006931D01*
X006596Y006937D01*
X006633Y006896D01*
X006673Y006858D01*
X006715Y006824D01*
X006760Y006792D01*
X006807Y006763D01*
X006856Y006738D01*
X006907Y006717D01*
X006958Y006699D01*
X007012Y006685D01*
X007066Y006675D01*
X007120Y006668D01*
X007175Y006666D01*
X007176Y008274D02*
X007176Y008184D01*
X007175Y008185D02*
X007121Y008183D01*
X007068Y008177D01*
X007015Y008167D01*
X006963Y008153D01*
X006912Y008136D01*
X006862Y008115D01*
X006814Y008091D01*
X006768Y008063D01*
X006724Y008032D01*
X006683Y007998D01*
X006643Y007961D01*
X006607Y007922D01*
X006539Y007979D01*
X006538Y007980D01*
X006576Y008021D01*
X006616Y008059D01*
X006659Y008095D01*
X006704Y008128D01*
X006751Y008158D01*
X006799Y008184D01*
X006850Y008208D01*
X006902Y008228D01*
X006955Y008244D01*
X007009Y008258D01*
X007064Y008267D01*
X007119Y008273D01*
X007175Y008275D01*
X007175Y008266D01*
X007120Y008264D01*
X007065Y008258D01*
X007011Y008249D01*
X006957Y008236D01*
X006905Y008219D01*
X006853Y008200D01*
X006803Y008176D01*
X006755Y008150D01*
X006709Y008120D01*
X006664Y008088D01*
X006622Y008053D01*
X006582Y008014D01*
X006545Y007974D01*
X006552Y007968D01*
X006589Y008008D01*
X006628Y008046D01*
X006670Y008081D01*
X006714Y008113D01*
X006760Y008142D01*
X006808Y008168D01*
X006857Y008191D01*
X006908Y008211D01*
X006960Y008227D01*
X007013Y008240D01*
X007066Y008249D01*
X007121Y008255D01*
X007175Y008257D01*
X007175Y008248D01*
X007121Y008246D01*
X007068Y008240D01*
X007015Y008231D01*
X006962Y008218D01*
X006911Y008202D01*
X006860Y008183D01*
X006812Y008160D01*
X006764Y008135D01*
X006719Y008106D01*
X006675Y008074D01*
X006634Y008039D01*
X006595Y008002D01*
X006559Y007962D01*
X006566Y007956D01*
X006602Y007996D01*
X006640Y008033D01*
X006681Y008067D01*
X006724Y008098D01*
X006769Y008127D01*
X006816Y008152D01*
X006864Y008175D01*
X006914Y008194D01*
X006965Y008210D01*
X007016Y008222D01*
X007069Y008231D01*
X007122Y008237D01*
X007175Y008239D01*
X007175Y008230D01*
X007122Y008228D01*
X007070Y008222D01*
X007018Y008213D01*
X006967Y008201D01*
X006917Y008185D01*
X006867Y008166D01*
X006820Y008144D01*
X006773Y008119D01*
X006729Y008091D01*
X006687Y008060D01*
X006646Y008026D01*
X006608Y007989D01*
X006573Y007951D01*
X006579Y007945D01*
X006615Y007983D01*
X006652Y008019D01*
X006692Y008053D01*
X006734Y008083D01*
X006778Y008111D01*
X006824Y008136D01*
X006871Y008158D01*
X006920Y008177D01*
X006969Y008192D01*
X007020Y008205D01*
X007071Y008213D01*
X007123Y008219D01*
X007175Y008221D01*
X007175Y008212D01*
X007119Y008210D01*
X007064Y008203D01*
X007009Y008193D01*
X006955Y008179D01*
X006902Y008161D01*
X006851Y008139D01*
X006801Y008114D01*
X006753Y008085D01*
X006708Y008053D01*
X006665Y008018D01*
X006624Y007980D01*
X006586Y007939D01*
X006593Y007933D01*
X006630Y007974D01*
X006671Y008011D01*
X006713Y008046D01*
X006758Y008078D01*
X006806Y008106D01*
X006855Y008131D01*
X006906Y008153D01*
X006958Y008170D01*
X007011Y008184D01*
X007065Y008194D01*
X007120Y008201D01*
X007175Y008203D01*
X007175Y008194D01*
X007121Y008192D01*
X007067Y008186D01*
X007013Y008176D01*
X006960Y008162D01*
X006909Y008144D01*
X006859Y008123D01*
X006810Y008098D01*
X006763Y008070D01*
X006719Y008039D01*
X006677Y008005D01*
X006637Y007967D01*
X006600Y007927D01*
D21*
X006080Y003080D02*
X010280Y003080D01*
X010280Y000780D02*
X006080Y000780D01*
D22*
X005955Y000905D03*
X005955Y002955D03*
X010405Y002955D03*
X010405Y000905D03*
D23*
X004955Y001030D03*
D24*
X008180Y001180D03*
X008180Y002680D03*
D25*
X011255Y002705D03*
X011255Y001155D03*
X005105Y001155D03*
X005105Y002705D03*
D26*
X005030Y002830D03*
X011330Y002830D03*
X011330Y001030D03*
M02*
