G75*
%MOIN*%
%OFA0B0*%
%FSLAX24Y24*%
%IPPOS*%
%LPD*%
%AMOC8*
5,1,8,0,0,1.08239X$1,22.5*
%
%ADD10C,0.0720*%
%ADD11C,0.0730*%
%ADD12R,0.0730X0.0730*%
%ADD13C,0.0820*%
%ADD14R,0.0880X0.0880*%
%ADD15C,0.0880*%
%ADD16C,0.1280*%
%ADD17C,0.1080*%
D10*
X004680Y004860D02*
X004680Y005500D01*
X005680Y005500D02*
X005680Y004860D01*
X006680Y004860D02*
X006680Y005500D01*
X009680Y005500D02*
X009680Y004860D01*
X010680Y004860D02*
X010680Y005500D01*
X011680Y005500D02*
X011680Y004860D01*
D11*
X005930Y006446D03*
X004930Y007430D03*
X005930Y008414D03*
X012430Y010680D03*
D12*
X012430Y009680D03*
X003930Y007430D03*
D13*
X006680Y007430D03*
X007680Y007430D03*
X008680Y007430D03*
X006930Y008930D03*
X006930Y010180D03*
X006930Y011430D03*
X010930Y011430D03*
X010930Y010180D03*
X010930Y008930D03*
X012680Y007430D03*
D14*
X014680Y006930D03*
X003930Y010680D03*
X001680Y005430D03*
D15*
X001680Y006808D03*
X005308Y010680D03*
X014680Y005552D03*
D16*
X001680Y001680D03*
X001680Y010680D03*
X014680Y010680D03*
X014680Y001680D03*
D17*
X012280Y001430D02*
X012280Y002430D01*
X010280Y002430D02*
X010280Y001430D01*
X006080Y001430D02*
X006080Y002430D01*
X004080Y002430D02*
X004080Y001430D01*
M02*
